<svg id="callouts" xmlns="http://www.w3.org/2000/svg" viewBox="0 0 199.2 47.9"><defs><style>.cls-1{fill:none;}.cls-2{fill:#4c6875;}</style></defs><title>logo-inner</title><path class="cls-1" d="M50.2,12.6a1.81,1.81,0,0,0,.5-1.4,2.51,2.51,0,0,0-.2-1,1.7,1.7,0,0,0-.6-.6,3.92,3.92,0,0,0-1.3-.2h-.5v3.5h.3A2,2,0,0,0,50.2,12.6Z"/><path class="cls-1" d="M48.6,13.4h-.5v3.4a.76.76,0,0,0,.2.5,1.17,1.17,0,0,0,.7.2,2.07,2.07,0,0,0,1.5-.5,2.25,2.25,0,0,0,.5-1.5,1.75,1.75,0,0,0-.6-1.5C50.2,13.5,49.5,13.4,48.6,13.4Z"/><path class="cls-1" d="M172.8,12.3a2.22,2.22,0,0,0,.1-.9,2,2,0,0,0-.4-1.4c-.3-.4-.9-.5-1.9-.5h-.5v3.9h1c.3,0,.6-.1.9-.1l.6-.3A1.45,1.45,0,0,1,172.8,12.3Z"/><path class="cls-1" d="M159.3,9.4a2.64,2.64,0,0,0-2.3,1,5.1,5.1,0,0,0-.8,3,5.22,5.22,0,0,0,.8,3.1,2.84,2.84,0,0,0,2.4,1,2.76,2.76,0,0,0,2.3-1,4.6,4.6,0,0,0,.8-3.1,5.1,5.1,0,0,0-.8-3A3.31,3.31,0,0,0,159.3,9.4Z"/><path class="cls-1" d="M198.1,12.4h-.2v1.2h.6a.22.22,0,0,0,.2-.2.37.37,0,0,0,.1-.3.76.76,0,0,0-.2-.5C198.5,12.4,198.3,12.4,198.1,12.4Z"/><path class="cls-2" d="M192.8,14.5c-.1.1-.1.2-.2.2h-.8l-.1-.1v-2c0-.1,0-.1.1-.1h.3v-.1h-1.2v.1h.4l.1.1v2.1c0,.1,0,.1-.1.1H191v.1h2.2v-.7H193C192.9,14.3,192.9,14.5,192.8,14.5Z"/><path class="cls-2" d="M195.9,14.5c-.1.1-.1.2-.2.2h-.8l-.1-.1v-2c0-.1,0-.1.1-.1h.3v-.1H194v.1h.4l.1.1v2.1c0,.1,0,.1-.1.1H194v.1h2.2v-.7h-.1C196,14.3,196,14.5,195.9,14.5Z"/><path class="cls-2" d="M198.6,12.3a3.54,3.54,0,0,0-.6-.1h-.9v.1h.3l.1.1v2.1c0,.1,0,.1-.1.1h-.3v.1h1.2v-.1H198l-.1-.1v-.9h.3c.3,0,.5,0,.6-.1s.2-.1.3-.2.1-.2.1-.4,0-.3-.1-.4S198.8,12.4,198.6,12.3Zm0,1c-.1.1-.1.2-.2.2h-.6V12.3h.2a.75.75,0,0,1,.5.1.76.76,0,0,1,.2.5C198.7,13.1,198.7,13.2,198.6,13.3Z"/><path class="cls-2" d="M49.6,13.2a3,3,0,0,0,1.8-.7,1.61,1.61,0,0,0,.6-1.3c0-1.3-1.2-2-3.5-2h-3v.3h.2c.4,0,.7,0,.8.1a.52.52,0,0,1,.2.4c0,.2.1.6.1,1.3v4.1a4.55,4.55,0,0,1-.1,1.4c0,.2-.1.3-.3.4s-.4.1-.7.1h-.3v.3h3.3a10.31,10.31,0,0,0,2-.2,2,2,0,0,0,1.2-.8,2.17,2.17,0,0,0,.5-1.4,1.8,1.8,0,0,0-.7-1.5A6.37,6.37,0,0,0,49.6,13.2ZM48.1,9.5h.5a3.48,3.48,0,0,1,1.3.2.9.9,0,0,1,.6.6,2.51,2.51,0,0,1,.2,1,2,2,0,0,1-.5,1.4,2.65,2.65,0,0,1-1.8.4h-.3Zm2.5,7.4a2.07,2.07,0,0,1-1.5.5,1,1,0,0,1-.7-.2.76.76,0,0,1-.2-.5V13.3h.5a3.44,3.44,0,0,1,2,.5,1.75,1.75,0,0,1,.6,1.5A3.43,3.43,0,0,1,50.6,16.9Z"/><path class="cls-2" d="M56.2,9.6c.4,0,.7,0,.8.1a.52.52,0,0,1,.2.4c0,.2.1.6.1,1.3v5.4a.52.52,0,0,1-.2.4,1.29,1.29,0,0,1-.8.2H56v.3h7l.2-2.6h-.3a5.21,5.21,0,0,1-.6,1.5,1.68,1.68,0,0,1-.8.7,3.59,3.59,0,0,1-1.1.2h-.6c-.6,0-.9-.1-1-.3a5.25,5.25,0,0,1-.2-1.8v-2h.9a1.72,1.72,0,0,1,.8.1.32.32,0,0,1,.3.3,2.22,2.22,0,0,1,.1.9H61V11.8h-.3c0,.4,0,.7-.1.8s-.2.3-.3.3a2.22,2.22,0,0,1-.9.1h-.9V9.6h1.2a4.51,4.51,0,0,1,1.3.1,1.16,1.16,0,0,1,.7.5,2.69,2.69,0,0,1,.5,1.3h.3l-.2-2.1h-6v.2Z"/><path class="cls-2" d="M68.1,16.8c0-.2-.1-.5-.1-1V10l6,7.9h.3v-7a1.72,1.72,0,0,1,.1-.8.78.78,0,0,1,.4-.4,1.88,1.88,0,0,1,.8-.2V9.3H72.5v.3a2.77,2.77,0,0,1,.9.1,1,1,0,0,1,.5.4,1.72,1.72,0,0,1,.1.8V16L69,9.4H66.5v.3a2,2,0,0,1,.9.1,1.38,1.38,0,0,1,.3.4,4.15,4.15,0,0,1,.1,1.3V16a2.51,2.51,0,0,1-.1,1c0,.1-.2.3-.4.4a2,2,0,0,1-.9.2v.3h3.2v-.3a2.51,2.51,0,0,1-1-.2C68.3,17.1,68.1,17,68.1,16.8Z"/><path class="cls-2" d="M83.6,17.3a2.19,2.19,0,0,1-.3-.5V9.5h1.4a2.51,2.51,0,0,1,1,.1.82.82,0,0,1,.5.5,2.78,2.78,0,0,1,.4,1.2h.3v-2H78.7v2H79a3.37,3.37,0,0,1,.4-1.2,1.18,1.18,0,0,1,.5-.5A3.11,3.11,0,0,1,81,9.5h1.3v6a4.55,4.55,0,0,1-.1,1.4c0,.2-.1.3-.3.4s-.4.1-.8.1h-.4v.3h4.2v-.3h-.4A2,2,0,0,1,83.6,17.3Z"/><path class="cls-2" d="M97.3,15.2H97a5.71,5.71,0,0,1-.6,1.5,1.87,1.87,0,0,1-.7.6,3.45,3.45,0,0,1-1.2.1h-.6a2.51,2.51,0,0,1-1-.1,1.38,1.38,0,0,1-.3-.4,10.42,10.42,0,0,1-.1-1.1V11.4a3.81,3.81,0,0,1,.1-1.3c0-.2.1-.3.3-.4s.4-.1.8-.1h.4V9.3H90v.3h.2c.4,0,.7,0,.8.1a.52.52,0,0,1,.2.4c0,.2.1.6.1,1.3v4.1a4.55,4.55,0,0,1-.1,1.4c0,.2-.1.3-.3.4s-.4.1-.7.1H90v.3h7.2Z"/><path class="cls-2" d="M107.3,15.1a5.21,5.21,0,0,1-.6,1.5,1.68,1.68,0,0,1-.8.7,3.59,3.59,0,0,1-1.1.2h-.6c-.6,0-.9-.1-1-.3a5.25,5.25,0,0,1-.2-1.8v-2h.9a1.72,1.72,0,0,1,.8.1.32.32,0,0,1,.3.3,2.22,2.22,0,0,1,.1.9h.3V11.8h-.3c0,.4,0,.7-.1.8s-.2.3-.3.3a2.22,2.22,0,0,1-.9.1h-.9V9.6h1.2a4.51,4.51,0,0,1,1.3.1,1.16,1.16,0,0,1,.7.5,2.69,2.69,0,0,1,.5,1.3h.3l-.2-2.1h-6v.3c.4,0,.7,0,.8.1a.52.52,0,0,1,.2.4c0,.2.1.6.1,1.3v5.4a.52.52,0,0,1-.2.4,1.29,1.29,0,0,1-.8.2h-.2v.3h7l.2-2.6h-.5Z"/><path class="cls-2" d="M116.4,9.6a1.55,1.55,0,0,1,.8.2.76.76,0,0,1,.2.5,2.18,2.18,0,0,1-.4,1l-1.7,2.8-2-3.3a1.74,1.74,0,0,1-.3-.7c0-.3.3-.4,1-.4V9.3h-3.4v.3a1.55,1.55,0,0,1,.8.2c.1.1.4.6.9,1.3l2.1,3.5v1a4.55,4.55,0,0,1-.1,1.4c0,.2-.1.3-.3.4s-.4.1-.8.1H113v.3h3.6v-.3c-.4,0-.7,0-.8-.1a1.38,1.38,0,0,1-.3-.4c0-.2-.1-.7-.1-1.4V14.5l1.9-3.2c.4-.6.7-1,.9-1.3a1.27,1.27,0,0,1,.9-.4V9.3h-2.8v.3Z"/><path class="cls-2" d="M132.8,12.1a.9.9,0,0,0-1-1c-.2,0-.6.1-.6.5a.43.43,0,0,0,.4.4.27.27,0,0,0,.3-.3c0-.2-.1-.3-.3-.4h0s.7-.1.7.5-.5.9-1.1,1.2-1.4.4-1.4,1.2a.56.56,0,0,0,.5.6.32.32,0,0,0,.3-.3.3.3,0,0,0-.6,0h0a.35.35,0,0,1-.1-.2c0-.5.5-.6,1.2-.8a1.27,1.27,0,0,1,.1.6,1.34,1.34,0,0,1-1.5,1.4c-1.1,0-1.5-.6-1.5-1.3a1,1,0,0,1,.6-1,.76.76,0,0,0,.5.2c.1,0,.3,0,.3-.1s-.1-.2-.2-.3H129a.75.75,0,0,1-.1-.5.74.74,0,0,1,.8-.8.85.85,0,0,1,.6.2h0a.46.46,0,0,0-.5.4c0,.2.2.3.4.3a.43.43,0,0,0,.4-.4c0-.4-.3-.8-1-.8a1,1,0,0,0-1.1,1,1.42,1.42,0,0,0,.2.6,1.52,1.52,0,0,0-1.2,1.5c0,.9.9,1.5,2,1.5a1.78,1.78,0,0,0,2-1.8,2.35,2.35,0,0,0-.2-.8C132.3,13.3,132.8,13,132.8,12.1Z"/><path class="cls-2" d="M145.6,16.3l-3.1-7h-2.6v.3h.2c.4,0,.7,0,.8.1a1.38,1.38,0,0,1,.3.4c0,.2.1.6.1,1.3v3.7a4.55,4.55,0,0,1-.1,1.4,1,1,0,0,1-.4.7,1.22,1.22,0,0,1-.9.3v.3h3v-.3a1.22,1.22,0,0,1-.9-.3,2.09,2.09,0,0,1-.4-.6c0-.2-.1-.7-.1-1.4v-5l3.4,7.6h.3l3.3-7.6v5.4a4.55,4.55,0,0,1-.1,1.4c0,.2-.1.3-.3.4s-.4.1-.7.1h-.3v.3h4v-.3h-.4a1.72,1.72,0,0,1-.8-.1,2.19,2.19,0,0,1-.3-.5V11.5a3.81,3.81,0,0,1,.1-1.3c0-.2.1-.3.3-.4s.4-.1.8-.1h.3V9.3h-2.6Z"/><path class="cls-2" d="M159.3,9.1a4.79,4.79,0,0,0-3.3,1.2,3.87,3.87,0,0,0-1.3,3.1,4.08,4.08,0,0,0,1.3,3.2,4.79,4.79,0,0,0,3.3,1.2,4.29,4.29,0,0,0,4.6-4.4,3.94,3.94,0,0,0-1.3-3.2A5.24,5.24,0,0,0,159.3,9.1Zm2.3,7.5a2.76,2.76,0,0,1-2.3,1,2.72,2.72,0,0,1-2.4-1,5.22,5.22,0,0,1-.8-3.1,4.89,4.89,0,0,1,.8-3,2.64,2.64,0,0,1,2.3-1,2.77,2.77,0,0,1,2.4,1.1,5.1,5.1,0,0,1,.8,3A4,4,0,0,1,161.6,16.6Z"/><path class="cls-2" d="M173.6,15.3a5.73,5.73,0,0,0-1.7-1.8,3,3,0,0,0,1.8-.7,2,2,0,0,0,.6-1.4,1.66,1.66,0,0,0-.5-1.2,2.4,2.4,0,0,0-1.2-.7,10.31,10.31,0,0,0-2-.2,14.16,14.16,0,0,0-1.9.1l-1.2.1v.3h.1c.4,0,.7,0,.8.1a1.38,1.38,0,0,1,.3.4c0,.2.1.6.1,1.3v4.1a4.55,4.55,0,0,1-.1,1.4c0,.2-.1.3-.3.4s-.4.1-.8.1h-.3v.3h4v-.3h-.4a1.72,1.72,0,0,1-.8-.1,2.19,2.19,0,0,1-.3-.5V13.8h.3a.75.75,0,0,1,.5.1l.6.6a7.63,7.63,0,0,1,.8,1.1,7.47,7.47,0,0,0,1.9,2.2h2.3v-.3a2.84,2.84,0,0,1-1.3-.4C174.7,16.8,174.2,16.2,173.6,15.3Zm-2.6-2h-1V9.5h.5a2.7,2.7,0,0,1,1.9.5,2.12,2.12,0,0,1,.4,1.4,2.77,2.77,0,0,1-.1.9,2.09,2.09,0,0,1-.4.6c-.2.1-.4.3-.6.3S171.3,13.3,171,13.3Z"/><path class="cls-2" d="M185.7,16.6a1.68,1.68,0,0,1-.8.7,3.59,3.59,0,0,1-1.1.2h-.6c-.6,0-.9-.1-1-.3a5.25,5.25,0,0,1-.2-1.8v-2h.9a1.72,1.72,0,0,1,.8.1.32.32,0,0,1,.3.3,2.22,2.22,0,0,1,.1.9h.3V11.8H184c0,.4,0,.7-.1.8s-.2.3-.3.3a2.22,2.22,0,0,1-.9.1h-.9V9.6H183a4.51,4.51,0,0,1,1.3.1,1.16,1.16,0,0,1,.7.5,2.69,2.69,0,0,1,.5,1.3h.3l-.2-2.1h-6v.3c.4,0,.7,0,.8.1a.52.52,0,0,1,.2.4c0,.2.1.6.1,1.3v5.4a.52.52,0,0,1-.2.4,1.29,1.29,0,0,1-.8.2h-.2v.3h7l.2-2.6h-.3C186.1,15.7,185.9,16.2,185.7,16.6Z"/><path class="cls-2" d="M48.9,36.5H47.7v-.7h3.2v.7H49.7v4.2h-.8Z"/><path class="cls-2" d="M53.5,35.8h2.7v.7H54.3v1.3h1.4v.7H54.3V40h2v.7H53.5Z"/><path class="cls-2" d="M59,35.8h.8V40h1.9v.7H59Z"/><path class="cls-2" d="M64.3,35.8h.8V40H67v.7H64.3Z"/><path class="cls-2" d="M69.6,35.8h.8v4.9h-.8Z"/><path class="cls-2" d="M73.4,35.8h.8l1.3,2.6a.35.35,0,0,0,.1.2c0,.1.1.1.1.2s.1.1.1.2a.35.35,0,0,0,.1.2h0V35.7h.7v4.9H76l-1.5-2.8c0-.1-.1-.1-.1-.2s-.1-.1-.1-.2-.1-.1-.1-.2-.1-.1-.1-.2h0v3.6h-.7Z"/><path class="cls-2" d="M81.2,40.8a1.45,1.45,0,0,1-.7-.2,1.21,1.21,0,0,1-.5-.5,1.91,1.91,0,0,1-.3-.8,3.75,3.75,0,0,1-.1-1.1,3.75,3.75,0,0,1,.1-1.1,2,2,0,0,1,.4-.8,2.65,2.65,0,0,1,.6-.5,1.88,1.88,0,0,1,.8-.2,1.27,1.27,0,0,1,.6.1c.2.1.3.2.5.3a2.19,2.19,0,0,1,.3.5,1.45,1.45,0,0,1,.2.7l-.7.1a4.33,4.33,0,0,0-.1-.5c-.1-.1-.1-.2-.2-.3s-.2-.1-.3-.2-.2-.1-.3-.1a.6.6,0,0,0-.4.1l-.3.3a.85.85,0,0,0-.2.6,2,2,0,0,0-.1.8,2.77,2.77,0,0,0,.1.9c.1.2.1.4.2.6s.2.3.3.3a.6.6,0,0,0,.4.1.91.91,0,0,0,.7-.3,1.22,1.22,0,0,0,.3-.9h-.8V38h1.5v2.4h-.6v-.7h0c0,.1-.1.2-.1.3a.22.22,0,0,1-.2.2c-.1.1-.2.1-.3.2C81.5,40.8,81.4,40.8,81.2,40.8Z"/><path class="cls-2" d="M90.1,38.7l-1.4-2.9h.8l1,2.2h0l1-2.2h.8l-1.4,2.9v2h-.8Z"/><path class="cls-2" d="M96.4,40.8a1.45,1.45,0,0,1-.7-.2,2.65,2.65,0,0,1-.6-.5,2,2,0,0,1-.4-.8,3.75,3.75,0,0,1-.1-1.1,3.75,3.75,0,0,1,.1-1.1,2,2,0,0,1,.4-.8,2.65,2.65,0,0,1,.6-.5,1.32,1.32,0,0,1,1.4,0,2.65,2.65,0,0,1,.6.5,2,2,0,0,1,.4.8,3.75,3.75,0,0,1,.1,1.1,3.75,3.75,0,0,1-.1,1.1,2,2,0,0,1-.4.8,2.65,2.65,0,0,1-.6.5A.84.84,0,0,1,96.4,40.8Zm0-.7a1,1,0,0,0,.8-.5,3.42,3.42,0,0,0,0-2.8.89.89,0,0,0-1.6,0,3.42,3.42,0,0,0,0,2.8A1,1,0,0,0,96.4,40.1Z"/><path class="cls-2" d="M102.6,40.8a1.48,1.48,0,0,1-.7-.1,2.19,2.19,0,0,1-.5-.3,3.33,3.33,0,0,1-.3-.6,1.7,1.7,0,0,1-.1-.7V35.8h.8v3.7a1,1,0,0,0,.1.3c.1.1.2.2.3.2s.2.1.4.1.3,0,.4-.1.2-.1.3-.2a.37.37,0,0,0,.1-.3V35.8h.8V39a1.48,1.48,0,0,1-.1.7l-.3.6a1,1,0,0,1-.5.4A1.48,1.48,0,0,1,102.6,40.8Z"/><path class="cls-2" d="M107.1,35.8h1.5a1.7,1.7,0,0,1,.7.1c.2.1.4.1.5.3a2.19,2.19,0,0,1,.3.5,1.48,1.48,0,0,1,.1.7.75.75,0,0,1-.1.5.76.76,0,0,1-.2.4l-.3.3c-.1.1-.2.1-.3.2l.9,2.1h-.8l-.9-1.9h-.7v1.9H107V35.8Zm1.4,2.3h.4c.1,0,.2-.1.3-.1s.1-.2.2-.3.1-.2.1-.4a.6.6,0,0,0-.1-.4.22.22,0,0,0-.2-.2c-.1,0-.2-.1-.3-.1h-1.1v1.6h.7Z"/><path class="cls-2" d="M117.8,40.8a1.27,1.27,0,0,1-.6-.1c-.2-.1-.3-.1-.5-.2s-.3-.2-.4-.4a2.19,2.19,0,0,1-.3-.5l.7-.3c.1.1.1.2.2.3s.2.2.2.3.2.1.3.2.2.1.4.1a1.07,1.07,0,0,0,.6-.2.76.76,0,0,0,.2-.5.37.37,0,0,0-.1-.3c-.1-.1-.1-.2-.2-.2s-.2-.1-.3-.2-.2-.1-.4-.2-.2-.1-.3-.1-.2-.1-.3-.2-.2-.1-.3-.2-.2-.2-.2-.3-.1-.2-.2-.3-.1-.3-.1-.4a.75.75,0,0,1,.1-.5,1.38,1.38,0,0,1,.3-.4,2.19,2.19,0,0,1,.5-.3,1.85,1.85,0,0,1,1.2,0c.2.1.3.1.4.2l.3.3a.76.76,0,0,1,.2.4l-.7.3c0-.1-.1-.2-.2-.3s-.1-.2-.2-.2a.37.37,0,0,0-.3-.1c-.1,0-.2-.1-.3-.1a.76.76,0,0,0-.5.2.52.52,0,0,0-.2.4.37.37,0,0,0,.1.3.22.22,0,0,0,.2.2c.1.1.2.1.3.2s.2.1.3.2.2.1.3.2.2.1.3.2.2.1.3.2.2.2.2.3.1.2.2.3.1.3.1.4a.75.75,0,0,1-.1.5,1.38,1.38,0,0,1-.3.4,2.19,2.19,0,0,1-.5.3C118.3,40.8,118.1,40.8,117.8,40.8Z"/><path class="cls-2" d="M123,36.5h-1.2v-.7H125v.7h-1.2v4.2H123Z"/><path class="cls-2" d="M129.2,40.8a1.45,1.45,0,0,1-.7-.2,2.65,2.65,0,0,1-.6-.5,2,2,0,0,1-.4-.8,3.75,3.75,0,0,1-.1-1.1,3.75,3.75,0,0,1,.1-1.1,2,2,0,0,1,.4-.8,2.65,2.65,0,0,1,.6-.5,1.85,1.85,0,0,1,.7-.2,1.45,1.45,0,0,1,.7.2,2.65,2.65,0,0,1,.6.5,2,2,0,0,1,.4.8,3.75,3.75,0,0,1,.1,1.1,3.75,3.75,0,0,1-.1,1.1,2,2,0,0,1-.4.8,2.65,2.65,0,0,1-.6.5A.84.84,0,0,1,129.2,40.8Zm0-.7a1,1,0,0,0,.8-.5,3.42,3.42,0,0,0,0-2.8.89.89,0,0,0-1.6,0,3.42,3.42,0,0,0,0,2.8A1,1,0,0,0,129.2,40.1Z"/><path class="cls-2" d="M133.8,35.8h1.5a1.7,1.7,0,0,1,.7.1c.2.1.4.1.5.3a2.19,2.19,0,0,1,.3.5,1.48,1.48,0,0,1,.1.7.75.75,0,0,1-.1.5.76.76,0,0,1-.2.4l-.3.3c-.1.1-.2.1-.3.2l.9,2.1h-.8l-.9-1.9h-.7v1.9h-.8V35.8Zm1.4,2.3h.4c.1,0,.2-.1.3-.1s.1-.2.2-.3.1-.2.1-.4a.6.6,0,0,0-.1-.4.22.22,0,0,0-.2-.2.37.37,0,0,0-.3-.1h-1.1v1.6h.7Z"/><path class="cls-2" d="M140.6,38.7l-1.4-2.9h.8l1,2.2h0l1-2.2h.8l-1.4,2.9v2h-.8v-2Z"/><path class="cls-1" d="M24.5,19,22,13.2H19.9v.2H20c.4,0,.6,0,.7.1s.2.2.2.3v4.1a3.45,3.45,0,0,1-.1,1.2.85.85,0,0,1-.3.5,1.45,1.45,0,0,1-.7.2V20h2.5a1.14,1.14,0,0,1-.8-.3c-.2-.2-.3-.3-.3-.5s-.1-.6-.1-1.1V14l2.8,6.3h.2L27,14v4.4a2.53,2.53,0,0,1-.1,1.1.52.52,0,0,1-.2.4c-.1.1-.3.1-.6.1h-.2v.2h3.3V20h-.3c-.3,0-.5,0-.6-.1a.52.52,0,0,1-.2-.4V15a2.53,2.53,0,0,1,.1-1.1c0-.2.1-.3.2-.3s.3-.1.7-.1h.3v-.2H27.3Z"/><path class="cls-1" d="M9.4,16.5a2.62,2.62,0,0,0,1.5-.6,1.43,1.43,0,0,0,.5-1.1c0-1.1-1-1.6-2.9-1.6h-4v.2h.1c.4,0,.6,0,.7.1s.2.2.2.3a10.42,10.42,0,0,1,.1,1.1v4.5a.52.52,0,0,1-.2.4.84.84,0,0,1-.7.2H4.4v.2H8.7c.7,0,1.2-.1,1.6-.1a2.07,2.07,0,0,0,1-.6,1.5,1.5,0,0,0,.4-1.1,1.76,1.76,0,0,0-.6-1.3A2.06,2.06,0,0,0,9.4,16.5ZM6.6,13.4H7a8,8,0,0,1,2.7.2,1.21,1.21,0,0,1,.5.5,1.88,1.88,0,0,1,.2.8A1.6,1.6,0,0,1,10,16c-.4.4-2.3.4-3.1.4H6.7v-3Zm3.6,6.2A1.46,1.46,0,0,1,9,20a14.79,14.79,0,0,1-2.2-.1.52.52,0,0,1-.2-.4V16.6H7c.8,0,2.8,0,3.2.4a1.73,1.73,0,0,1,.5,1.3A2.23,2.23,0,0,1,10.2,19.6Z"/><path class="cls-1" d="M17.6,15a.37.37,0,0,0-.4.4.27.27,0,0,0,.3.3c.2,0,.3-.1.3-.2a.27.27,0,0,0-.3-.3h0s.6-.1.6.4-.4.7-.8.9-1.1.3-1.1.9a.37.37,0,0,0,.4.4c.2,0,.3-.1.3-.2a.2.2,0,0,0-.4,0h0v-.2c0-.4.4-.5.9-.6a.75.75,0,0,1,.1.5,1,1,0,0,1-1.1,1c-.8,0-1.2-.4-1.1-1a.91.91,0,0,1,.4-.8c.1.1.2.1.3.2s.2,0,.2-.1a.22.22,0,0,0-.2-.2h-.3c-.1-.1-.1-.2-.1-.4a.53.53,0,0,1,.6-.6c.2,0,.4.1.4.2h0c-.2,0-.4.1-.4.3a.32.32,0,0,0,.3.3.27.27,0,0,0,.3-.3.67.67,0,0,0-.7-.6.73.73,0,0,0-.8.8c0,.2.1.3.2.5a1.09,1.09,0,0,0-.9,1.1c0,.7.7,1.1,1.5,1.1a1.32,1.32,0,0,0,1.5-1.3c0-.2-.1-.4-.1-.6.6-.1,1-.4,1-1C18.3,15.2,18,15,17.6,15Z"/><path class="cls-2" d="M9.9,16a1.37,1.37,0,0,0,.4-1.1,1.55,1.55,0,0,0-.2-.8c-.1-.2-.3-.3-.5-.5a11.42,11.42,0,0,0-2.7-.2H6.5v2.9h.2C7.5,16.4,9.5,16.4,9.9,16Z"/><path class="cls-2" d="M7,16.6H6.6v2.9a.52.52,0,0,0,.2.4c.1,0,1.9.1,2.2.1.6,0,1-.1,1.2-.4a1.7,1.7,0,0,0,.4-1.3,1.73,1.73,0,0,0-.5-1.3C9.7,16.6,7.8,16.6,7,16.6Z"/><path class="cls-2" d="M32.9.7h0V0H0V47.9l16.4-2.1L33,47.9V34.4h0V.7ZM11.4,19.5a2.07,2.07,0,0,1-1,.6,7.59,7.59,0,0,1-1.6.1H4.4V20h.3c.3,0,.5,0,.6-.1a.52.52,0,0,0,.2-.4V15a2.81,2.81,0,0,0-.1-1.1c0-.2-.1-.3-.2-.3s-.3-.1-.7-.1h0v-.2h4c1.9,0,2.9.6,2.9,1.6a1.43,1.43,0,0,1-.5,1.1,2.62,2.62,0,0,1-1.5.6,3.8,3.8,0,0,1,1.8.6,1.61,1.61,0,0,1,.6,1.3A2.6,2.6,0,0,1,11.4,19.5Zm5.9-2.7a1.27,1.27,0,0,1,.1.6,1.32,1.32,0,0,1-1.5,1.3c-.9,0-1.5-.4-1.5-1.1a1.09,1.09,0,0,1,.9-1.1.76.76,0,0,1-.2-.5.78.78,0,0,1,.8-.8c.5,0,.7.3.7.6a.32.32,0,0,1-.3.3.27.27,0,0,1-.3-.3c0-.2.1-.3.4-.3h0a.52.52,0,0,0-.4-.2.53.53,0,0,0-.6.6c0,.2,0,.3.1.4h.3a.22.22,0,0,1,.2.2c0,.1-.1.1-.2.1s-.2-.1-.3-.2a1.06,1.06,0,0,0-.5.9c0,.6.3,1,1.1,1a1,1,0,0,0,1.1-1,.9.9,0,0,0-.1-.5c-.5.1-.9.2-.9.6v.2h0c0-.2.1-.2.2-.2a.22.22,0,0,1,.2.2c0,.1-.1.2-.3.2a.43.43,0,0,1-.4-.4c0-.6.6-.7,1.1-.9s.8-.4.8-.9-.5-.4-.6-.4h0a.27.27,0,0,1,.3.3c0,.1-.1.2-.3.2a.27.27,0,0,1-.3-.3.42.42,0,0,1,.4-.4.63.63,0,0,1,.7.7C18.3,16.4,17.9,16.6,17.3,16.8Zm11.9-3.3H29c-.3,0-.6,0-.7.1s-.2.2-.2.3A2.53,2.53,0,0,0,28,15v4.5a.52.52,0,0,0,.2.4c.1.1.3.1.6.1h.3v.2H25.8V20H26c.3,0,.5,0,.6-.1a.52.52,0,0,0,.2-.4,10.42,10.42,0,0,0,.1-1.1V14l-2.8,6.3H24L21.2,14v4.1a2.81,2.81,0,0,0,.1,1.1.55.55,0,0,0,.3.5c.2.2.4.2.8.3v.2H19.9V20a1.45,1.45,0,0,0,.7-.2.55.55,0,0,0,.3-.5A4.51,4.51,0,0,0,21,18V13.9c0-.2-.1-.3-.2-.3s-.3-.1-.7-.1h-.2v-.2H22l2.6,5.8,2.5-5.8h2.1Z"/></svg>