<?xml version="1.0" encoding="utf-8"?>
<!-- Generator: Adobe Illustrator 21.1.0, SVG Export Plug-In . SVG Version: 6.00 Build 0)  -->
<svg version="1.1" id="callouts" xmlns="http://www.w3.org/2000/svg" xmlns:xlink="http://www.w3.org/1999/xlink" x="0px" y="0px"
	 viewBox="0 0 260.3 21.3" style="enable-background:new 0 0 260.3 21.3;" xml:space="preserve">
<style type="text/css">
	.st0{fill:#FFFFFF;}
</style>
<g>
	<path class="st0" d="M7.1,10.1c1.4-0.2,2.4-0.6,3.1-1.2c0.7-0.6,1-1.3,1-2.3c0-2.3-2-3.4-6-3.4L2.6,3.3L0.2,3.4v0.5h0.3
		c0.7,0,1.2,0.1,1.4,0.2c0.2,0.1,0.4,0.4,0.4,0.7C2.4,5.1,2.4,5.9,2.4,7v7.1c0,1.2,0,2-0.1,2.3c-0.1,0.3-0.2,0.6-0.5,0.7
		c-0.2,0.2-0.7,0.2-1.3,0.2H0v0.5h5.7c1.4,0,2.6-0.1,3.4-0.3c0.8-0.2,1.5-0.6,2.1-1.3c0.5-0.7,0.8-1.4,0.8-2.4
		c0-1.1-0.4-1.9-1.2-2.6C10,10.6,8.8,10.2,7.1,10.1z M4.5,3.8c0.3,0,0.6,0,0.9,0c1.1,0,1.8,0.1,2.3,0.3c0.4,0.2,0.8,0.5,1,1
		C8.9,5.5,9,6,9,6.8c0,1.1-0.3,1.9-0.8,2.4C7.6,9.6,6.5,9.9,5,9.9c-0.1,0-0.3,0-0.4,0V3.8z M8.8,16.5c-0.6,0.6-1.4,0.9-2.6,0.9
		c-0.6,0-1.1-0.1-1.3-0.3c-0.2-0.2-0.4-0.5-0.4-0.8c-0.1-0.4-0.1-1.2-0.1-2.6v-3.2c0.3,0,0.6,0,0.8,0c1.6,0,2.8,0.3,3.4,0.9
		c0.6,0.6,1,1.5,1,2.7C9.7,15.1,9.4,15.9,8.8,16.5z"/>
	<path class="st0" d="M30.4,13.4h-0.5c-0.3,1.1-0.6,1.9-1.1,2.5c-0.4,0.6-0.9,1-1.4,1.2c-0.5,0.2-1.1,0.3-1.9,0.3h-1.1
		c-1,0-1.6-0.2-1.8-0.5c-0.2-0.3-0.3-1.3-0.3-3v-3.4H24c0.6,0,1.1,0,1.3,0.1c0.3,0.1,0.5,0.3,0.6,0.5c0.1,0.3,0.2,0.8,0.2,1.6h0.5
		v-5h-0.5c0,0.7,0,1.2-0.1,1.4c-0.1,0.2-0.3,0.4-0.6,0.6c-0.3,0.1-0.8,0.2-1.5,0.2h-1.5V3.9h2c1,0,1.8,0.1,2.2,0.2
		c0.5,0.1,0.9,0.4,1.2,0.8C28.1,5.3,28.4,6,28.6,7h0.5l-0.3-3.6H18.4v0.5c0.7,0,1.2,0.1,1.4,0.2c0.2,0.1,0.4,0.4,0.4,0.7
		c0.1,0.4,0.1,1.1,0.1,2.2v7.1c0,1.2,0,2-0.1,2.3c-0.1,0.3-0.2,0.5-0.4,0.7c-0.2,0.2-0.7,0.3-1.4,0.3h-0.3v0.5h12L30.4,13.4z"/>
	<path class="st0" d="M46.5,3.9c0.6,0,1.1,0.1,1.5,0.2c0.4,0.2,0.7,0.4,0.8,0.6C48.9,4.9,49,5.4,49,6v8.7L40.4,3.4h-4.3v0.5
		c0.8,0,1.3,0.1,1.5,0.2c0.2,0.1,0.4,0.4,0.5,0.7c0.1,0.4,0.2,1.1,0.2,2.2v7.7c0,0.9,0,1.4-0.1,1.7c-0.1,0.2-0.3,0.5-0.6,0.7
		c-0.4,0.2-0.9,0.3-1.6,0.4v0.5h5.4v-0.5c-0.8,0-1.4-0.1-1.7-0.3c-0.4-0.2-0.6-0.5-0.7-0.7c-0.1-0.3-0.1-0.8-0.1-1.7V4.6L49,18.2
		h0.5v-12c0-0.6,0-1.1,0.1-1.3c0.1-0.3,0.3-0.5,0.7-0.7c0.4-0.2,0.8-0.3,1.5-0.4V3.4h-5.3V3.9z"/>
	<path class="st0" d="M57,3.4l-0.1,3.5h0.5c0.2-0.9,0.4-1.6,0.6-2.1C58.4,4.3,58.7,4.1,59,4c0.3-0.1,1-0.1,1.9-0.1H63v10.3
		c0,1.2,0,2-0.1,2.3c-0.1,0.3-0.2,0.6-0.5,0.7c-0.2,0.2-0.7,0.2-1.3,0.2h-0.8v0.5h7.3v-0.5H67c-0.7,0-1.1-0.1-1.3-0.3
		c-0.2-0.2-0.4-0.4-0.4-0.8c-0.1-0.4-0.1-1.1-0.1-2.2V3.9h2.3c0.8,0,1.4,0,1.7,0.1c0.3,0.1,0.6,0.4,0.9,0.8c0.3,0.4,0.5,1.1,0.7,2.1
		h0.5l-0.1-3.5H57z"/>
	<path class="st0" d="M89.2,13.6h-0.5c-0.3,1.2-0.7,2-1.1,2.5c-0.4,0.5-0.8,0.9-1.2,1c-0.4,0.2-1.1,0.2-2,0.2h-1.1
		c-0.8,0-1.4-0.1-1.6-0.2c-0.3-0.1-0.4-0.4-0.5-0.6c-0.1-0.3-0.1-0.9-0.1-2V7c0-1.2,0-2,0.1-2.3c0.1-0.3,0.2-0.5,0.4-0.7
		c0.2-0.1,0.7-0.2,1.4-0.2h0.6V3.4h-7v0.5H77c0.7,0,1.2,0.1,1.4,0.2c0.2,0.1,0.4,0.4,0.4,0.7C79,5.1,79,5.8,79,7v7.1
		c0,1.2,0,2-0.1,2.3c-0.1,0.3-0.2,0.6-0.5,0.7c-0.2,0.2-0.7,0.2-1.3,0.2h-0.4v0.5h12.4L89.2,13.6z"/>
	<path class="st0" d="M106.8,13.4h-0.5c-0.3,1.1-0.6,1.9-1.1,2.5c-0.4,0.6-0.9,1-1.4,1.2c-0.5,0.2-1.1,0.3-1.9,0.3h-1.1
		c-1,0-1.6-0.2-1.8-0.5c-0.2-0.3-0.3-1.3-0.3-3v-3.4h1.6c0.6,0,1.1,0,1.3,0.1c0.3,0.1,0.5,0.3,0.6,0.5c0.1,0.3,0.2,0.8,0.2,1.6h0.5
		v-5h-0.5c0,0.7,0,1.2-0.1,1.4c-0.1,0.2-0.3,0.4-0.6,0.6c-0.3,0.1-0.8,0.2-1.5,0.2h-1.5V3.9h2c1,0,1.8,0.1,2.2,0.2
		c0.5,0.1,0.9,0.4,1.2,0.8c0.3,0.4,0.6,1.1,0.8,2.2h0.5l-0.3-3.6H94.8v0.5c0.7,0,1.2,0.1,1.4,0.2c0.2,0.1,0.4,0.4,0.4,0.7
		c0.1,0.4,0.1,1.1,0.1,2.2v7.1c0,1.2,0,2-0.1,2.3c-0.1,0.3-0.2,0.5-0.4,0.7s-0.7,0.3-1.4,0.3h-0.3v0.5h12L106.8,13.4z"/>
	<path class="st0" d="M126.8,3.4H122v0.5c0.6,0,1.1,0.1,1.3,0.4c0.2,0.3,0.4,0.5,0.4,0.8c0,0.3-0.2,0.9-0.7,1.7l-2.9,4.8l-3.5-5.7
		c-0.4-0.6-0.5-1-0.5-1.2c0-0.5,0.5-0.8,1.7-0.8V3.4h-5.9v0.5c0.6,0,1.1,0.1,1.3,0.4c0.2,0.2,0.7,0.9,1.5,2.2l3.6,6v1.8
		c0,1.2,0,2-0.1,2.3c-0.1,0.3-0.2,0.6-0.5,0.7c-0.2,0.2-0.7,0.2-1.3,0.2h-0.2v0.5h6.2v-0.5c-0.7,0-1.2-0.1-1.5-0.2
		c-0.2-0.1-0.4-0.4-0.5-0.7c-0.1-0.3-0.1-1.1-0.1-2.4v-1.9l3.3-5.4c0.6-1,1.1-1.8,1.6-2.2c0.4-0.4,0.9-0.6,1.6-0.7V3.4z"/>
	<path class="st0" d="M144.2,7.9c-0.2,0-0.6,0.1-0.6,0.6c0,0.3,0.2,0.5,0.4,0.5c0.2,0,0.4-0.2,0.4-0.3c0-0.3-0.2-0.4-0.4-0.4v0
		c0,0,0.8-0.2,0.8,0.6c0,0.8-0.6,1.1-1.3,1.3c-0.8,0.3-1.6,0.5-1.6,1.4c0,0.4,0.3,0.7,0.6,0.7c0.3,0,0.4-0.2,0.4-0.4
		c0-0.2-0.1-0.3-0.3-0.3c-0.2,0-0.3,0.1-0.3,0.4h0c0-0.1-0.1-0.2-0.1-0.3c0-0.6,0.6-0.7,1.4-0.9c0.1,0.2,0.1,0.5,0.1,0.7
		c0,0.8-0.5,1.6-1.7,1.6c-1.3,0-1.8-0.7-1.7-1.5c0-0.5,0.2-1,0.7-1.2c0.2,0.1,0.3,0.2,0.5,0.2c0.2,0,0.3,0,0.4-0.1
		c0-0.2-0.1-0.3-0.3-0.3c-0.2,0-0.3,0-0.5,0c-0.1-0.2-0.2-0.4-0.1-0.6c0-0.6,0.4-1,1-1c0.4,0,0.6,0.1,0.7,0.3v0
		c-0.4-0.1-0.5,0.2-0.5,0.4c0,0.2,0.2,0.4,0.4,0.4c0.2,0,0.5-0.2,0.5-0.5c0-0.5-0.4-0.9-1.1-0.9c-0.5,0-1.2,0.3-1.2,1.2
		c0,0.3,0.1,0.5,0.2,0.7c-0.7,0.2-1.3,0.7-1.3,1.7c0,1.1,1,1.7,2.3,1.7c1.7,0,2.3-1.1,2.3-2c0-0.3-0.1-0.6-0.2-0.9
		c0.9-0.2,1.5-0.6,1.5-1.6C145.3,8.2,144.8,7.9,144.2,7.9z"/>
	<path class="st0" d="M173.7,14.1c0,1.2,0,2-0.1,2.3c-0.1,0.3-0.2,0.6-0.5,0.7c-0.2,0.2-0.7,0.2-1.3,0.2h-0.5v0.5h7v-0.5h-0.6
		c-0.7,0-1.1-0.1-1.3-0.3c-0.2-0.2-0.4-0.4-0.4-0.8c-0.1-0.4-0.1-1.1-0.1-2.2V7c0-1.2,0-2,0.1-2.3c0.1-0.3,0.2-0.5,0.4-0.7
		c0.2-0.1,0.7-0.2,1.4-0.2h0.5V3.4h-4.5l-5.3,12l-5.3-12h-4.4v0.5h0.4c0.7,0,1.2,0.1,1.4,0.2c0.2,0.1,0.4,0.4,0.4,0.7
		c0.1,0.3,0.1,1.1,0.1,2.2v6.3c0,1.2,0,2-0.1,2.5c-0.1,0.4-0.3,0.8-0.7,1.1c-0.4,0.3-0.9,0.5-1.5,0.5v0.5h5.2v-0.5
		c-0.7,0-1.2-0.2-1.6-0.5c-0.4-0.3-0.6-0.7-0.7-1.1c-0.1-0.4-0.1-1.2-0.1-2.4V4.9l5.8,13h0.5l5.8-13V14.1z"/>
	<path class="st0" d="M192.1,3.1c-2.2,0-4.1,0.7-5.6,2c-1.5,1.4-2.3,3.2-2.3,5.4c0,2.3,0.7,4.2,2.2,5.5c1.5,1.4,3.4,2.1,5.7,2.1
		c2.4,0,4.3-0.7,5.7-2.1c1.5-1.4,2.2-3.2,2.2-5.5c0-2.3-0.8-4.2-2.3-5.5C196.2,3.8,194.3,3.1,192.1,3.1z M196.1,15.9
		c-1,1.2-2.2,1.8-3.9,1.8c-1.9,0-3.3-0.6-4.2-1.8c-0.9-1.2-1.4-2.9-1.4-5.3c0-2.3,0.5-4,1.4-5.2c0.9-1.2,2.3-1.8,4-1.8
		c1.8,0,3.1,0.6,4.1,1.8c0.9,1.2,1.4,2.9,1.4,5.2C197.6,13,197.1,14.7,196.1,15.9z"/>
	<path class="st0" d="M221.5,17.4c-0.9,0-1.6-0.3-2.2-0.7c-0.6-0.5-1.5-1.4-2.6-2.9c-1.4-1.8-2.3-2.9-2.9-3.2
		c1.4-0.2,2.4-0.6,3.1-1.3c0.7-0.7,1.1-1.5,1.1-2.4c0-0.8-0.3-1.5-0.8-2.1c-0.5-0.6-1.2-1-2.1-1.3s-2-0.4-3.4-0.4
		c-0.8,0-1.9,0-3.3,0.1l-2.1,0.1v0.5h0.2c0.7,0,1.2,0.1,1.4,0.2c0.2,0.1,0.4,0.4,0.4,0.7c0.1,0.3,0.1,1.1,0.1,2.2v7.1
		c0,1.2,0,2-0.1,2.3c-0.1,0.3-0.2,0.6-0.5,0.7c-0.2,0.2-0.7,0.2-1.3,0.2h-0.5v0.5h7v-0.5h-0.7c-0.7,0-1.1-0.1-1.3-0.3
		c-0.2-0.2-0.4-0.4-0.4-0.8c-0.1-0.4-0.1-1.1-0.1-2.2v-3.2h0.6c0.4,0,0.7,0.1,0.9,0.2c0.2,0.1,0.5,0.5,1,1.1c0.5,0.6,1,1.2,1.4,1.9
		c1.4,2.1,2.5,3.3,3.2,3.8h3.9V17.4z M212.2,10.3c-0.6,0-1.1,0.1-1.7,0.1V3.7c0.3,0,0.6,0,0.9,0c1.7,0,2.8,0.3,3.3,0.9
		c0.5,0.6,0.8,1.4,0.8,2.5c0,0.6-0.1,1.1-0.2,1.5c-0.2,0.4-0.4,0.7-0.6,1c-0.3,0.2-0.6,0.4-1,0.6C213.2,10.2,212.7,10.3,212.2,10.3z
		"/>
	<path class="st0" d="M228.7,16.4c-0.1,0.3-0.2,0.5-0.4,0.7c-0.2,0.2-0.7,0.3-1.4,0.3h-0.3v0.5h12l0.3-4.5h-0.5
		c-0.3,1.1-0.6,1.9-1.1,2.5c-0.4,0.6-0.9,1-1.4,1.2c-0.5,0.2-1.1,0.3-1.9,0.3H233c-1,0-1.6-0.2-1.8-0.5c-0.2-0.3-0.3-1.3-0.3-3v-3.4
		h1.6c0.6,0,1.1,0,1.3,0.1c0.3,0.1,0.5,0.3,0.6,0.5c0.1,0.3,0.2,0.8,0.2,1.6h0.5v-5h-0.5c0,0.7,0,1.2-0.1,1.4
		c-0.1,0.2-0.3,0.4-0.6,0.6c-0.3,0.1-0.8,0.2-1.5,0.2h-1.5V3.9h2c1,0,1.8,0.1,2.2,0.2c0.5,0.1,0.9,0.4,1.2,0.8
		c0.3,0.4,0.6,1.1,0.8,2.2h0.5l-0.3-3.6h-10.4v0.5c0.7,0,1.2,0.1,1.4,0.2c0.2,0.1,0.4,0.4,0.4,0.7c0.1,0.4,0.1,1.1,0.1,2.2v7.1
		C228.8,15.3,228.8,16.1,228.7,16.4z"/>
	<g>
		<g>
			<path class="st0" d="M249.8,12.1l0,1.3H246v-0.2h0.1c0.2,0,0.3,0,0.4-0.1c0.1,0,0.1-0.1,0.1-0.2c0-0.1,0-0.3,0-0.7v-2.2
				c0-0.4,0-0.6,0-0.7c0-0.1-0.1-0.2-0.1-0.2c-0.1,0-0.2-0.1-0.4-0.1H246V9h2.1v0.2H248c-0.2,0-0.4,0-0.4,0.1
				c-0.1,0-0.1,0.1-0.1,0.2c0,0.1,0,0.3,0,0.7v2.3c0,0.3,0,0.5,0,0.6c0,0.1,0.1,0.1,0.1,0.2c0.1,0,0.2,0.1,0.5,0.1h0.3
				c0.3,0,0.5,0,0.6-0.1c0.1,0,0.3-0.2,0.4-0.3c0.1-0.2,0.2-0.4,0.3-0.8H249.8z"/>
			<path class="st0" d="M255.2,12.1l0,1.3h-3.8v-0.2h0.1c0.2,0,0.3,0,0.4-0.1c0.1,0,0.1-0.1,0.1-0.2c0-0.1,0-0.3,0-0.7v-2.2
				c0-0.4,0-0.6,0-0.7c0-0.1-0.1-0.2-0.1-0.2c-0.1,0-0.2-0.1-0.4-0.1h-0.1V9h2.1v0.2h-0.2c-0.2,0-0.4,0-0.4,0.1
				c-0.1,0-0.1,0.1-0.1,0.2c0,0.1,0,0.3,0,0.7v2.3c0,0.3,0,0.5,0,0.6c0,0.1,0.1,0.1,0.1,0.2c0.1,0,0.2,0.1,0.5,0.1h0.3
				c0.3,0,0.5,0,0.6-0.1c0.1,0,0.3-0.2,0.4-0.3c0.1-0.2,0.2-0.4,0.3-0.8H255.2z"/>
			<path class="st0" d="M258.1,11.3v0.9c0,0.3,0,0.6,0,0.7c0,0.1,0.1,0.2,0.1,0.2c0.1,0.1,0.2,0.1,0.4,0.1h0.1v0.2h-2v-0.2h0.1
				c0.2,0,0.3,0,0.4-0.1c0.1,0,0.1-0.1,0.1-0.2c0-0.1,0-0.3,0-0.7v-2.2c0-0.4,0-0.6,0-0.7c0-0.1-0.1-0.2-0.1-0.2
				c-0.1,0-0.2-0.1-0.4-0.1h-0.1V9l0.6,0c0.4,0,0.8,0,1,0c0.5,0,0.8,0,1.1,0.1c0.2,0.1,0.4,0.2,0.6,0.4c0.2,0.2,0.2,0.4,0.2,0.7
				c0,0.2-0.1,0.5-0.2,0.6c-0.1,0.2-0.3,0.3-0.5,0.4c-0.2,0.1-0.6,0.1-1.1,0.1H258.1z M258.1,11.2h0.3c0.3,0,0.5,0,0.6-0.1
				c0.2-0.1,0.3-0.2,0.4-0.3c0.1-0.2,0.2-0.4,0.2-0.6c0-0.4-0.1-0.6-0.3-0.8c-0.2-0.2-0.5-0.3-0.9-0.3c-0.1,0-0.3,0-0.3,0V11.2z"/>
		</g>
	</g>
</g>
</svg>
