<?xml version="1.0" encoding="utf-8"?>
<!-- Generator: Adobe Illustrator 21.1.0, SVG Export Plug-In . SVG Version: 6.00 Build 0)  -->
<svg version="1.1" id="callouts" xmlns="http://www.w3.org/2000/svg" xmlns:xlink="http://www.w3.org/1999/xlink" x="0px" y="0px"
	 viewBox="0 0 199.1 47.9" style="enable-background:new 0 0 199.1 47.9;" xml:space="preserve">
<style type="text/css">
	.st0{fill:none;}
	.st1{fill:#4C6875;}
	.st2{fill:#FFFFFF;}
</style>
<g>
	<path class="st0" d="M50.2,12.6c0.3-0.3,0.5-0.7,0.5-1.4c0-0.4-0.1-0.8-0.2-1c-0.1-0.2-0.3-0.4-0.6-0.6c-0.3-0.1-0.7-0.2-1.3-0.2
		c-0.2,0-0.3,0-0.5,0v3.5c0.1,0,0.2,0,0.3,0C49.2,13.1,49.9,12.9,50.2,12.6z"/>
	<path class="st0" d="M48.6,13.4c-0.2,0-0.3,0-0.5,0v1.9c0,0.8,0,1.3,0,1.5c0,0.2,0.1,0.4,0.2,0.5c0.1,0.1,0.4,0.2,0.7,0.2
		c0.7,0,1.2-0.2,1.5-0.5c0.3-0.3,0.5-0.9,0.5-1.5c0-0.7-0.2-1.2-0.6-1.5C50.2,13.5,49.5,13.4,48.6,13.4z"/>
	<path class="st0" d="M172.8,12.3c0.1-0.2,0.1-0.5,0.1-0.9c0-0.6-0.1-1.1-0.4-1.4c-0.3-0.4-0.9-0.5-1.9-0.5c-0.2,0-0.3,0-0.5,0v3.9
		c0.3,0,0.6,0,1,0c0.3,0,0.6-0.1,0.9-0.1c0.2-0.1,0.4-0.2,0.6-0.3C172.6,12.7,172.7,12.5,172.8,12.3z"/>
	<path class="st0" d="M159.3,9.4c-1,0-1.8,0.3-2.3,1c-0.5,0.7-0.8,1.7-0.8,3c0,1.4,0.3,2.4,0.8,3.1c0.5,0.7,1.4,1,2.4,1
		c1,0,1.7-0.3,2.3-1c0.6-0.7,0.8-1.7,0.8-3.1c0-1.3-0.3-2.3-0.8-3C161.1,9.8,160.3,9.4,159.3,9.4z"/>
	<path class="st0" d="M198.1,12.4c-0.1,0-0.1,0-0.2,0v1.2h0.2c0.1,0,0.3,0,0.4,0c0.1,0,0.2-0.1,0.2-0.2c0.1-0.1,0.1-0.2,0.1-0.3
		c0-0.2-0.1-0.4-0.2-0.5C198.5,12.4,198.3,12.4,198.1,12.4z"/>
	<path class="st1" d="M192.8,14.5c-0.1,0.1-0.1,0.2-0.2,0.2c-0.1,0-0.2,0-0.3,0h-0.2c-0.1,0-0.2,0-0.3,0c0,0-0.1-0.1-0.1-0.1
		c0,0,0-0.2,0-0.3v-1.3c0-0.2,0-0.3,0-0.4c0-0.1,0-0.1,0.1-0.1c0,0,0.1,0,0.2,0h0.1v-0.1h-1.2v0.1h0.1c0.1,0,0.2,0,0.3,0
		c0,0,0.1,0.1,0.1,0.1c0,0.1,0,0.2,0,0.4v1.3c0,0.2,0,0.4,0,0.4c0,0.1,0,0.1-0.1,0.1c0,0-0.1,0-0.2,0h-0.1v0.1h2.2l0-0.7H193
		C192.9,14.3,192.9,14.5,192.8,14.5z"/>
	<path class="st1" d="M195.9,14.5c-0.1,0.1-0.1,0.2-0.2,0.2c-0.1,0-0.2,0-0.3,0h-0.2c-0.1,0-0.2,0-0.3,0c0,0-0.1-0.1-0.1-0.1
		c0,0,0-0.2,0-0.3v-1.3c0-0.2,0-0.3,0-0.4c0-0.1,0-0.1,0.1-0.1c0,0,0.1,0,0.2,0h0.1v-0.1H194v0.1h0.1c0.1,0,0.2,0,0.3,0
		c0,0,0.1,0.1,0.1,0.1c0,0.1,0,0.2,0,0.4v1.3c0,0.2,0,0.4,0,0.4c0,0.1,0,0.1-0.1,0.1c0,0-0.1,0-0.2,0H194v0.1h2.2l0-0.7h-0.1
		C196,14.3,196,14.5,195.9,14.5z"/>
	<path class="st1" d="M198.6,12.3c-0.1,0-0.3-0.1-0.6-0.1c-0.1,0-0.3,0-0.6,0l-0.3,0v0.1h0c0.1,0,0.2,0,0.3,0c0,0,0.1,0.1,0.1,0.1
		c0,0.1,0,0.2,0,0.4v1.3c0,0.2,0,0.4,0,0.4c0,0.1,0,0.1-0.1,0.1c0,0-0.1,0-0.2,0h-0.1v0.1h1.2v-0.1h-0.1c-0.1,0-0.2,0-0.2,0
		c0,0-0.1-0.1-0.1-0.1c0-0.1,0-0.2,0-0.4v-0.5h0.3c0.3,0,0.5,0,0.6-0.1c0.1-0.1,0.2-0.1,0.3-0.2c0.1-0.1,0.1-0.2,0.1-0.4
		c0-0.2,0-0.3-0.1-0.4C198.9,12.5,198.8,12.4,198.6,12.3z M198.6,13.3c-0.1,0.1-0.1,0.2-0.2,0.2c-0.1,0-0.2,0-0.4,0h-0.2v-1.2
		c0,0,0.1,0,0.2,0c0.2,0,0.4,0,0.5,0.1c0.1,0.1,0.2,0.3,0.2,0.5C198.7,13.1,198.7,13.2,198.6,13.3z"/>
	<path class="st1" d="M49.6,13.2c0.8-0.1,1.4-0.3,1.8-0.7c0.4-0.3,0.6-0.8,0.6-1.3c0-1.3-1.2-2-3.5-2l-1.6,0l-1.4,0v0.3h0.2
		c0.4,0,0.7,0,0.8,0.1c0.1,0.1,0.2,0.2,0.2,0.4c0,0.2,0.1,0.6,0.1,1.3v4.1c0,0.7,0,1.2-0.1,1.4c0,0.2-0.1,0.3-0.3,0.4
		c-0.1,0.1-0.4,0.1-0.7,0.1h-0.3v0.3h3.3c0.8,0,1.5-0.1,2-0.2c0.5-0.1,0.9-0.4,1.2-0.8c0.3-0.4,0.5-0.8,0.5-1.4
		c0-0.6-0.2-1.1-0.7-1.5C51.3,13.5,50.6,13.3,49.6,13.2z M48.1,9.5c0.2,0,0.3,0,0.5,0c0.6,0,1.1,0.1,1.3,0.2
		c0.3,0.1,0.5,0.3,0.6,0.6c0.1,0.2,0.2,0.6,0.2,1c0,0.6-0.2,1.1-0.5,1.4c-0.3,0.3-0.9,0.4-1.8,0.4c-0.1,0-0.2,0-0.3,0V9.5z
		 M50.6,16.9c-0.3,0.3-0.8,0.5-1.5,0.5c-0.4,0-0.6-0.1-0.7-0.2c-0.1-0.1-0.2-0.3-0.2-0.5c0-0.2,0-0.7,0-1.5v-1.9c0.2,0,0.3,0,0.5,0
		c0.9,0,1.6,0.2,2,0.5c0.4,0.3,0.6,0.8,0.6,1.5C51.1,16.1,50.9,16.6,50.6,16.9z"/>
	<path class="st1" d="M56.2,9.6c0.4,0,0.7,0,0.8,0.1c0.1,0.1,0.2,0.2,0.2,0.4c0,0.2,0.1,0.6,0.1,1.3v4.1c0,0.7,0,1.1,0,1.3
		c0,0.2-0.1,0.3-0.2,0.4c-0.1,0.1-0.4,0.2-0.8,0.2H56v0.3h7l0.2-2.6h-0.3c-0.1,0.6-0.4,1.1-0.6,1.5c-0.3,0.4-0.5,0.6-0.8,0.7
		c-0.3,0.1-0.7,0.2-1.1,0.2h-0.6c-0.6,0-0.9-0.1-1-0.3c-0.1-0.2-0.2-0.8-0.2-1.8v-2h0.9c0.4,0,0.6,0,0.8,0.1c0.2,0,0.3,0.2,0.3,0.3
		c0.1,0.2,0.1,0.5,0.1,0.9h0.3v-2.9h-0.3c0,0.4,0,0.7-0.1,0.8c-0.1,0.1-0.2,0.3-0.3,0.3c-0.2,0.1-0.5,0.1-0.9,0.1h-0.9V9.6h1.2
		c0.6,0,1,0,1.3,0.1c0.3,0.1,0.5,0.2,0.7,0.5c0.2,0.2,0.4,0.7,0.5,1.3h0.3l-0.2-2.1h-6V9.6z"/>
	<path class="st1" d="M68.1,16.8c0-0.2-0.1-0.5-0.1-1V10l6,7.9h0.3v-7c0-0.4,0-0.6,0.1-0.8c0.1-0.2,0.2-0.3,0.4-0.4
		c0.2-0.1,0.5-0.2,0.8-0.2V9.3h-3.1v0.3c0.3,0,0.6,0,0.9,0.1c0.2,0.1,0.4,0.2,0.5,0.4c0.1,0.2,0.1,0.4,0.1,0.8v5.1l-5-6.6h-2.5v0.3
		c0.5,0,0.7,0,0.9,0.1c0.1,0.1,0.2,0.2,0.3,0.4c0.1,0.2,0.1,0.7,0.1,1.3v4.5c0,0.5,0,0.8-0.1,1c0,0.1-0.2,0.3-0.4,0.4
		c-0.2,0.1-0.5,0.2-0.9,0.2v0.3h3.2v-0.3c-0.4,0-0.8-0.1-1-0.2C68.3,17.1,68.1,17,68.1,16.8z"/>
	<path class="st1" d="M83.6,17.3c-0.1-0.1-0.2-0.3-0.3-0.5c0-0.2,0-0.6,0-1.3v-6h1.4c0.5,0,0.8,0,1,0.1c0.2,0.1,0.4,0.2,0.5,0.5
		c0.2,0.2,0.3,0.7,0.4,1.2h0.3l0-2h-8.2l0,2h0.3c0.1-0.5,0.2-0.9,0.4-1.2c0.2-0.3,0.3-0.4,0.5-0.5c0.2-0.1,0.6-0.1,1.1-0.1h1.3v6
		c0,0.7,0,1.2-0.1,1.4c0,0.2-0.1,0.3-0.3,0.4c-0.1,0.1-0.4,0.1-0.8,0.1h-0.4v0.3h4.2v-0.3h-0.4C84,17.4,83.8,17.4,83.6,17.3z"/>
	<path class="st1" d="M97.3,15.2H97c-0.2,0.7-0.4,1.2-0.6,1.5c-0.2,0.3-0.5,0.5-0.7,0.6c-0.2,0.1-0.6,0.1-1.2,0.1h-0.6
		c-0.5,0-0.8,0-1-0.1c-0.1-0.1-0.2-0.2-0.3-0.4c0-0.2-0.1-0.5-0.1-1.1v-4.4c0-0.7,0-1.1,0.1-1.3c0-0.2,0.1-0.3,0.3-0.4
		c0.1-0.1,0.4-0.1,0.8-0.1h0.4V9.3h-4.1v0.3h0.2c0.4,0,0.7,0,0.8,0.1c0.1,0.1,0.2,0.2,0.2,0.4c0,0.2,0.1,0.6,0.1,1.3v4.1
		c0,0.7,0,1.2-0.1,1.4c0,0.2-0.1,0.3-0.3,0.4c-0.1,0.1-0.4,0.1-0.7,0.1h-0.2v0.3h7.2L97.3,15.2z"/>
	<path class="st1" d="M107.3,15.1c-0.1,0.6-0.4,1.1-0.6,1.5c-0.3,0.4-0.5,0.6-0.8,0.7c-0.3,0.1-0.7,0.2-1.1,0.2h-0.6
		c-0.6,0-0.9-0.1-1-0.3c-0.1-0.2-0.2-0.8-0.2-1.8v-2h0.9c0.4,0,0.6,0,0.8,0.1c0.2,0,0.3,0.2,0.3,0.3c0.1,0.2,0.1,0.5,0.1,0.9h0.3
		v-2.9h-0.3c0,0.4,0,0.7-0.1,0.8c-0.1,0.1-0.2,0.3-0.3,0.3c-0.2,0.1-0.5,0.1-0.9,0.1h-0.9V9.6h1.2c0.6,0,1,0,1.3,0.1
		c0.3,0.1,0.5,0.2,0.7,0.5c0.2,0.2,0.4,0.7,0.5,1.3h0.3l-0.2-2.1h-6v0.3c0.4,0,0.7,0,0.8,0.1c0.1,0.1,0.2,0.2,0.2,0.4
		c0,0.2,0.1,0.6,0.1,1.3v4.1c0,0.7,0,1.1,0,1.3c0,0.2-0.1,0.3-0.2,0.4c-0.1,0.1-0.4,0.2-0.8,0.2h-0.2v0.3h7l0.2-2.6H107.3z"/>
	<path class="st1" d="M116.4,9.6c0.4,0,0.6,0.1,0.8,0.2c0.1,0.1,0.2,0.3,0.2,0.5c0,0.2-0.1,0.5-0.4,1l-1.7,2.8l-2-3.3
		c-0.2-0.3-0.3-0.6-0.3-0.7c0-0.3,0.3-0.4,1-0.4V9.3h-3.4v0.3c0.4,0,0.6,0.1,0.8,0.2c0.1,0.1,0.4,0.6,0.9,1.3l2.1,3.5v1
		c0,0.7,0,1.2-0.1,1.4c0,0.2-0.1,0.3-0.3,0.4c-0.1,0.1-0.4,0.1-0.8,0.1H113v0.3h3.6v-0.3c-0.4,0-0.7,0-0.8-0.1
		c-0.1-0.1-0.2-0.2-0.3-0.4c0-0.2-0.1-0.7-0.1-1.4v-1.1l1.9-3.2c0.4-0.6,0.7-1,0.9-1.3c0.2-0.2,0.5-0.4,0.9-0.4V9.3h-2.8V9.6z"/>
	<path class="st1" d="M132.8,12.1c0-0.7-0.4-1-1-1c-0.2,0-0.6,0.1-0.6,0.5c0,0.2,0.2,0.4,0.4,0.4c0.2,0,0.3-0.1,0.3-0.3
		c0-0.2-0.1-0.3-0.3-0.4v0c0,0,0.7-0.1,0.7,0.5c0,0.7-0.5,0.9-1.1,1.2c-0.7,0.3-1.4,0.4-1.4,1.2c0,0.3,0.2,0.6,0.5,0.6
		c0.2,0,0.3-0.2,0.3-0.3c0-0.2-0.1-0.3-0.3-0.3c-0.2,0-0.3,0.1-0.3,0.3h0c0,0-0.1-0.1-0.1-0.2c0-0.5,0.5-0.6,1.2-0.8
		c0.1,0.2,0.1,0.4,0.1,0.6c0,0.7-0.4,1.4-1.5,1.4c-1.1,0-1.5-0.6-1.5-1.3c0-0.4,0.2-0.9,0.6-1c0.1,0.1,0.3,0.2,0.5,0.2
		c0.1,0,0.3,0,0.3-0.1c0-0.1-0.1-0.2-0.2-0.3c-0.1,0-0.3,0-0.4,0c-0.1-0.1-0.1-0.3-0.1-0.5c0-0.5,0.3-0.8,0.8-0.8
		c0.3,0,0.5,0.1,0.6,0.2v0c-0.3,0-0.5,0.2-0.5,0.4c0,0.2,0.2,0.3,0.4,0.3c0.2,0,0.4-0.2,0.4-0.4c0-0.4-0.3-0.8-1-0.8
		c-0.5,0-1.1,0.3-1.1,1c0,0.2,0.1,0.4,0.2,0.6c-0.6,0.2-1.2,0.6-1.2,1.5c0,0.9,0.9,1.5,2,1.5c1.5,0,2-1,2-1.8c0-0.3-0.1-0.5-0.2-0.8
		C132.3,13.3,132.8,13,132.8,12.1z"/>
	<path class="st1" d="M145.6,16.3l-3.1-7h-2.6v0.3h0.2c0.4,0,0.7,0,0.8,0.1c0.1,0.1,0.2,0.2,0.3,0.4c0,0.2,0.1,0.6,0.1,1.3v3.7
		c0,0.7,0,1.2-0.1,1.4c0,0.3-0.2,0.5-0.4,0.7c-0.2,0.2-0.5,0.3-0.9,0.3v0.3h3v-0.3c-0.4,0-0.7-0.1-0.9-0.3c-0.2-0.2-0.3-0.4-0.4-0.6
		c0-0.2-0.1-0.7-0.1-1.4v-5l3.4,7.6h0.3l3.3-7.6v5.4c0,0.7,0,1.2-0.1,1.4c0,0.2-0.1,0.3-0.3,0.4c-0.1,0.1-0.4,0.1-0.7,0.1h-0.3v0.3
		h4v-0.3h-0.4c-0.4,0-0.6,0-0.8-0.1c-0.1-0.1-0.2-0.3-0.3-0.5c0-0.2,0-0.6,0-1.3v-4.1c0-0.7,0-1.1,0.1-1.3c0-0.2,0.1-0.3,0.3-0.4
		c0.1-0.1,0.4-0.1,0.8-0.1h0.3V9.3h-2.6L145.6,16.3z"/>
	<path class="st1" d="M159.3,9.1c-1.3,0-2.4,0.4-3.3,1.2c-0.9,0.8-1.3,1.8-1.3,3.1c0,1.3,0.4,2.4,1.3,3.2c0.9,0.8,2,1.2,3.3,1.2
		c1.4,0,2.5-0.4,3.3-1.2c0.8-0.8,1.3-1.9,1.3-3.2c0-1.4-0.4-2.4-1.3-3.2C161.7,9.5,160.6,9.1,159.3,9.1z M161.6,16.6
		c-0.6,0.7-1.3,1-2.3,1c-1.1,0-1.9-0.3-2.4-1c-0.5-0.7-0.8-1.7-0.8-3.1c0-1.3,0.3-2.4,0.8-3c0.5-0.7,1.3-1,2.3-1
		c1,0,1.8,0.3,2.4,1.1c0.5,0.7,0.8,1.7,0.8,3C162.5,14.9,162.2,15.9,161.6,16.6z"/>
	<path class="st1" d="M173.6,15.3c-0.8-1.1-1.4-1.7-1.7-1.8c0.8-0.1,1.4-0.3,1.8-0.7c0.4-0.4,0.6-0.9,0.6-1.4c0-0.5-0.2-0.9-0.5-1.2
		c-0.3-0.3-0.7-0.6-1.2-0.7c-0.5-0.1-1.2-0.2-2-0.2c-0.5,0-1.1,0-1.9,0.1l-1.2,0.1v0.3h0.1c0.4,0,0.7,0,0.8,0.1
		c0.1,0.1,0.2,0.2,0.3,0.4c0,0.2,0.1,0.6,0.1,1.3v4.1c0,0.7,0,1.2-0.1,1.4c0,0.2-0.1,0.3-0.3,0.4c-0.1,0.1-0.4,0.1-0.8,0.1h-0.3v0.3
		h4v-0.3h-0.4c-0.4,0-0.6,0-0.8-0.1c-0.1-0.1-0.2-0.3-0.3-0.5c0-0.2,0-0.6,0-1.3v-1.9h0.3c0.2,0,0.4,0,0.5,0.1
		c0.1,0.1,0.3,0.3,0.6,0.6c0.3,0.4,0.6,0.7,0.8,1.1c0.8,1.2,1.4,1.9,1.9,2.2h2.3v-0.3c-0.5,0-0.9-0.2-1.3-0.4
		C174.7,16.8,174.2,16.2,173.6,15.3z M171,13.3c-0.3,0-0.7,0-1,0V9.5c0.2,0,0.4,0,0.5,0c1,0,1.6,0.2,1.9,0.5
		c0.3,0.4,0.4,0.8,0.4,1.4c0,0.3,0,0.6-0.1,0.9c-0.1,0.2-0.2,0.4-0.4,0.6c-0.2,0.1-0.4,0.3-0.6,0.3C171.6,13.3,171.3,13.3,171,13.3z
		"/>
	<path class="st1" d="M185.7,16.6c-0.3,0.4-0.5,0.6-0.8,0.7c-0.3,0.1-0.7,0.2-1.1,0.2h-0.6c-0.6,0-0.9-0.1-1-0.3
		c-0.1-0.2-0.2-0.8-0.2-1.8v-2h0.9c0.4,0,0.6,0,0.8,0.1c0.2,0,0.3,0.2,0.3,0.3c0.1,0.2,0.1,0.5,0.1,0.9h0.3v-2.9H184
		c0,0.4,0,0.7-0.1,0.8c-0.1,0.1-0.2,0.3-0.3,0.3c-0.2,0.1-0.5,0.1-0.9,0.1h-0.9V9.6h1.2c0.6,0,1,0,1.3,0.1c0.3,0.1,0.5,0.2,0.7,0.5
		c0.2,0.2,0.4,0.7,0.5,1.3h0.3l-0.2-2.1h-6v0.3c0.4,0,0.7,0,0.8,0.1c0.1,0.1,0.2,0.2,0.2,0.4c0,0.2,0.1,0.6,0.1,1.3v4.1
		c0,0.7,0,1.1,0,1.3c0,0.2-0.1,0.3-0.2,0.4c-0.1,0.1-0.4,0.2-0.8,0.2h-0.2v0.3h7l0.2-2.6h-0.3C186.1,15.7,185.9,16.2,185.7,16.6z"/>
	<g>
		<path class="st2" d="M48.9,36.5h-1.2v-0.7h3.2v0.7h-1.2v4.2h-0.8V36.5z"/>
		<path class="st2" d="M53.5,35.8h2.7v0.7h-1.9v1.3h1.4v0.7h-1.4V40h2v0.7h-2.8V35.8z"/>
		<path class="st2" d="M59,35.8h0.8V40h1.9v0.7H59V35.8z"/>
		<path class="st2" d="M64.3,35.8h0.8V40H67v0.7h-2.7V35.8z"/>
		<path class="st2" d="M69.6,35.8h0.8v4.9h-0.8V35.8z"/>
		<path class="st2" d="M73.4,35.8h0.8l1.3,2.6c0,0.1,0.1,0.2,0.1,0.2c0,0.1,0.1,0.1,0.1,0.2c0,0.1,0.1,0.1,0.1,0.2
			c0,0.1,0.1,0.2,0.1,0.2h0v-3.5h0.7v4.9H76l-1.5-2.8c0-0.1-0.1-0.1-0.1-0.2c0-0.1-0.1-0.1-0.1-0.2c0-0.1-0.1-0.1-0.1-0.2
			c0-0.1-0.1-0.1-0.1-0.2h0v3.6h-0.7V35.8z"/>
		<path class="st2" d="M81.2,40.8c-0.3,0-0.5-0.1-0.7-0.2c-0.2-0.1-0.4-0.3-0.5-0.5c-0.1-0.2-0.3-0.5-0.3-0.8
			c-0.1-0.3-0.1-0.7-0.1-1.1c0-0.4,0-0.8,0.1-1.1c0.1-0.3,0.2-0.6,0.4-0.8c0.2-0.2,0.4-0.4,0.6-0.5c0.2-0.1,0.5-0.2,0.8-0.2
			c0.2,0,0.4,0,0.6,0.1c0.2,0.1,0.3,0.2,0.5,0.3c0.1,0.1,0.2,0.3,0.3,0.5c0.1,0.2,0.2,0.4,0.2,0.7l-0.7,0.1c0-0.2-0.1-0.4-0.1-0.5
			c-0.1-0.1-0.1-0.2-0.2-0.3c-0.1-0.1-0.2-0.1-0.3-0.2c-0.1,0-0.2-0.1-0.3-0.1c-0.1,0-0.3,0-0.4,0.1c-0.1,0.1-0.2,0.2-0.3,0.3
			c-0.1,0.1-0.2,0.3-0.2,0.6c-0.1,0.2-0.1,0.5-0.1,0.8c0,0.3,0,0.6,0.1,0.9c0.1,0.2,0.1,0.4,0.2,0.6c0.1,0.1,0.2,0.3,0.3,0.3
			c0.1,0.1,0.3,0.1,0.4,0.1c0.3,0,0.5-0.1,0.7-0.3c0.2-0.2,0.3-0.5,0.3-0.9h-0.8v-0.7h1.5v2.4h-0.6v-0.7h0c0,0.1-0.1,0.2-0.1,0.3
			s-0.1,0.2-0.2,0.2c-0.1,0.1-0.2,0.1-0.3,0.2C81.5,40.8,81.4,40.8,81.2,40.8z"/>
		<path class="st2" d="M90.1,38.7l-1.4-2.9h0.8l1,2.2h0l1-2.2h0.8l-1.4,2.9v2h-0.8V38.7z"/>
		<path class="st2" d="M96.4,40.8c-0.3,0-0.5-0.1-0.7-0.2c-0.2-0.1-0.4-0.3-0.6-0.5c-0.2-0.2-0.3-0.5-0.4-0.8
			c-0.1-0.3-0.1-0.7-0.1-1.1c0-0.4,0-0.8,0.1-1.1c0.1-0.3,0.2-0.6,0.4-0.8c0.2-0.2,0.4-0.4,0.6-0.5c0.2-0.1,0.5-0.2,0.7-0.2
			s0.5,0.1,0.7,0.2c0.2,0.1,0.4,0.3,0.6,0.5c0.2,0.2,0.3,0.5,0.4,0.8c0.1,0.3,0.1,0.7,0.1,1.1c0,0.4,0,0.8-0.1,1.1
			c-0.1,0.3-0.2,0.6-0.4,0.8c-0.2,0.2-0.4,0.4-0.6,0.5C96.9,40.8,96.7,40.8,96.4,40.8z M96.4,40.1c0.3,0,0.6-0.2,0.8-0.5
			c0.2-0.3,0.3-0.8,0.3-1.4c0-0.6-0.1-1.1-0.3-1.4c-0.2-0.3-0.5-0.5-0.8-0.5c-0.3,0-0.6,0.2-0.8,0.5c-0.2,0.3-0.3,0.8-0.3,1.4
			c0,0.6,0.1,1.1,0.3,1.4C95.8,39.9,96.1,40.1,96.4,40.1z"/>
		<path class="st2" d="M102.6,40.8c-0.3,0-0.5,0-0.7-0.1c-0.2-0.1-0.4-0.2-0.5-0.3c-0.1-0.2-0.2-0.3-0.3-0.6
			c-0.1-0.2-0.1-0.5-0.1-0.7v-3.3h0.8V39c0,0.2,0,0.4,0,0.5c0,0.1,0.1,0.3,0.1,0.3c0.1,0.1,0.2,0.2,0.3,0.2c0.1,0,0.2,0.1,0.4,0.1
			c0.2,0,0.3,0,0.4-0.1c0.1,0,0.2-0.1,0.3-0.2c0.1-0.1,0.1-0.2,0.1-0.3c0-0.1,0-0.3,0-0.5v-3.2h0.8V39c0,0.3,0,0.5-0.1,0.7
			c-0.1,0.2-0.2,0.4-0.3,0.6c-0.1,0.2-0.3,0.3-0.5,0.4C103.1,40.8,102.9,40.8,102.6,40.8z"/>
		<path class="st2" d="M107.1,35.8h1.5c0.2,0,0.5,0,0.7,0.1c0.2,0.1,0.4,0.1,0.5,0.3c0.1,0.1,0.2,0.3,0.3,0.5
			c0.1,0.2,0.1,0.4,0.1,0.7c0,0.2,0,0.4-0.1,0.5c0,0.1-0.1,0.3-0.2,0.4c-0.1,0.1-0.2,0.2-0.3,0.3c-0.1,0.1-0.2,0.1-0.3,0.2l0.9,2.1
			h-0.8l-0.9-1.9h-0.7v1.9h-0.8V35.8z M108.5,38.1c0.1,0,0.3,0,0.4,0c0.1,0,0.2-0.1,0.3-0.1c0.1-0.1,0.1-0.2,0.2-0.3
			c0-0.1,0.1-0.2,0.1-0.4c0-0.1,0-0.3-0.1-0.4c0-0.1-0.1-0.2-0.2-0.2s-0.2-0.1-0.3-0.1c-0.1,0-0.2,0-0.4,0h-0.7v1.6H108.5z"/>
		<path class="st2" d="M117.8,40.8c-0.2,0-0.4,0-0.6-0.1c-0.2-0.1-0.3-0.1-0.5-0.2c-0.1-0.1-0.3-0.2-0.4-0.4
			c-0.1-0.1-0.2-0.3-0.3-0.5l0.7-0.3c0.1,0.1,0.1,0.2,0.2,0.3c0.1,0.1,0.2,0.2,0.2,0.3c0.1,0.1,0.2,0.1,0.3,0.2
			c0.1,0,0.2,0.1,0.4,0.1c0.3,0,0.4-0.1,0.6-0.2c0.1-0.1,0.2-0.3,0.2-0.5c0-0.1,0-0.2-0.1-0.3c-0.1-0.1-0.1-0.2-0.2-0.2
			c-0.1-0.1-0.2-0.1-0.3-0.2c-0.1-0.1-0.2-0.1-0.4-0.2c-0.1,0-0.2-0.1-0.3-0.1c-0.1-0.1-0.2-0.1-0.3-0.2c-0.1-0.1-0.2-0.1-0.3-0.2
			c-0.1-0.1-0.2-0.2-0.2-0.3c-0.1-0.1-0.1-0.2-0.2-0.3c0-0.1-0.1-0.3-0.1-0.4c0-0.2,0-0.4,0.1-0.5c0.1-0.2,0.2-0.3,0.3-0.4
			c0.1-0.1,0.3-0.2,0.5-0.3c0.2-0.1,0.4-0.1,0.6-0.1c0.2,0,0.4,0,0.6,0.1c0.2,0.1,0.3,0.1,0.4,0.2c0.1,0.1,0.2,0.2,0.3,0.3
			c0.1,0.1,0.2,0.3,0.2,0.4l-0.7,0.3c0-0.1-0.1-0.2-0.2-0.3c-0.1-0.1-0.1-0.2-0.2-0.2c-0.1-0.1-0.2-0.1-0.3-0.1
			c-0.1,0-0.2-0.1-0.3-0.1c-0.2,0-0.4,0.1-0.5,0.2c-0.1,0.1-0.2,0.2-0.2,0.4c0,0.1,0,0.2,0.1,0.3c0,0.1,0.1,0.2,0.2,0.2
			c0.1,0.1,0.2,0.1,0.3,0.2c0.1,0.1,0.2,0.1,0.3,0.2c0.1,0,0.2,0.1,0.3,0.2c0.1,0.1,0.2,0.1,0.3,0.2c0.1,0.1,0.2,0.1,0.3,0.2
			c0.1,0.1,0.2,0.2,0.2,0.3c0.1,0.1,0.1,0.2,0.2,0.3c0,0.1,0.1,0.3,0.1,0.4c0,0.2,0,0.4-0.1,0.5c-0.1,0.2-0.2,0.3-0.3,0.4
			c-0.1,0.1-0.3,0.2-0.5,0.3C118.3,40.8,118.1,40.8,117.8,40.8z"/>
		<path class="st2" d="M123,36.5h-1.2v-0.7h3.2v0.7h-1.2v4.2H123V36.5z"/>
		<path class="st2" d="M129.2,40.8c-0.3,0-0.5-0.1-0.7-0.2c-0.2-0.1-0.4-0.3-0.6-0.5c-0.2-0.2-0.3-0.5-0.4-0.8
			c-0.1-0.3-0.1-0.7-0.1-1.1c0-0.4,0-0.8,0.1-1.1c0.1-0.3,0.2-0.6,0.4-0.8c0.2-0.2,0.4-0.4,0.6-0.5c0.2-0.1,0.5-0.2,0.7-0.2
			c0.3,0,0.5,0.1,0.7,0.2c0.2,0.1,0.4,0.3,0.6,0.5c0.2,0.2,0.3,0.5,0.4,0.8c0.1,0.3,0.1,0.7,0.1,1.1c0,0.4,0,0.8-0.1,1.1
			c-0.1,0.3-0.2,0.6-0.4,0.8c-0.2,0.2-0.4,0.4-0.6,0.5C129.7,40.8,129.5,40.8,129.2,40.8z M129.2,40.1c0.3,0,0.6-0.2,0.8-0.5
			c0.2-0.3,0.3-0.8,0.3-1.4c0-0.6-0.1-1.1-0.3-1.4c-0.2-0.3-0.5-0.5-0.8-0.5c-0.3,0-0.6,0.2-0.8,0.5c-0.2,0.3-0.3,0.8-0.3,1.4
			c0,0.6,0.1,1.1,0.3,1.4C128.6,39.9,128.9,40.1,129.2,40.1z"/>
		<path class="st2" d="M133.8,35.8h1.5c0.2,0,0.5,0,0.7,0.1c0.2,0.1,0.4,0.1,0.5,0.3c0.1,0.1,0.2,0.3,0.3,0.5
			c0.1,0.2,0.1,0.4,0.1,0.7c0,0.2,0,0.4-0.1,0.5c0,0.1-0.1,0.3-0.2,0.4c-0.1,0.1-0.2,0.2-0.3,0.3c-0.1,0.1-0.2,0.1-0.3,0.2l0.9,2.1
			h-0.8l-0.9-1.9h-0.7v1.9h-0.8V35.8z M135.2,38.1c0.1,0,0.3,0,0.4,0c0.1,0,0.2-0.1,0.3-0.1c0.1-0.1,0.1-0.2,0.2-0.3
			c0-0.1,0.1-0.2,0.1-0.4c0-0.1,0-0.3-0.1-0.4c0-0.1-0.1-0.2-0.2-0.2c-0.1-0.1-0.2-0.1-0.3-0.1c-0.1,0-0.2,0-0.4,0h-0.7v1.6H135.2z"
			/>
		<path class="st2" d="M140.6,38.7l-1.4-2.9h0.8l1,2.2h0l1-2.2h0.8l-1.4,2.9v2h-0.8V38.7z"/>
	</g>
	<g>
		<path class="st0" d="M24.5,19L22,13.2h-2.1v0.2H20c0.4,0,0.6,0,0.7,0.1c0.1,0.1,0.2,0.2,0.2,0.3c0,0.2,0,0.5,0,1.1v3
			c0,0.6,0,1-0.1,1.2c0,0.2-0.2,0.4-0.3,0.5c-0.2,0.1-0.4,0.2-0.7,0.2v0.2h2.5V20c-0.3,0-0.6-0.1-0.8-0.3c-0.2-0.2-0.3-0.3-0.3-0.5
			c0-0.2-0.1-0.6-0.1-1.1V14l2.8,6.3h0.2L27,14v4.4c0,0.6,0,1-0.1,1.1c0,0.2-0.1,0.3-0.2,0.4C26.6,20,26.4,20,26.1,20h-0.2v0.2h3.3
			V20h-0.3c-0.3,0-0.5,0-0.6-0.1c-0.1-0.1-0.2-0.2-0.2-0.4c0-0.2,0-0.5,0-1.1V15c0-0.6,0-1,0.1-1.1c0-0.2,0.1-0.3,0.2-0.3
			c0.1-0.1,0.3-0.1,0.7-0.1h0.3v-0.2h-2.1L24.5,19z"/>
		<path class="st0" d="M9.4,16.5c0.7-0.1,1.2-0.3,1.5-0.6c0.3-0.3,0.5-0.6,0.5-1.1c0-1.1-1-1.6-2.9-1.6l-2.9,0l-1.1,0v0.2h0.1
			c0.4,0,0.6,0,0.7,0.1c0.1,0.1,0.2,0.2,0.2,0.3c0,0.2,0.1,0.5,0.1,1.1v3.4c0,0.6,0,1,0,1.1c0,0.2-0.1,0.3-0.2,0.4
			C5.2,20,5,20,4.7,20H4.4v0.2h4.3c0.7,0,1.2-0.1,1.6-0.1c0.4-0.1,0.7-0.3,1-0.6c0.3-0.3,0.4-0.7,0.4-1.1c0-0.5-0.2-0.9-0.6-1.3
			C10.8,16.7,10.2,16.5,9.4,16.5z M6.6,13.4c0.1,0,0.3,0,0.4,0c0.5,0,2.3-0.1,2.7,0.2c0.2,0.1,0.4,0.3,0.5,0.5
			c0.1,0.2,0.2,0.5,0.2,0.8c0,0.5-0.2,0.9-0.4,1.1c-0.4,0.4-2.3,0.4-3.1,0.4c-0.1,0-0.1,0-0.2,0V13.4z M10.2,19.6
			C10,19.9,9.5,20,9,20c-0.3,0-2.1,0-2.2-0.1c-0.1-0.1-0.2-0.2-0.2-0.4c0-0.2,0-0.6,0-1.3v-1.6c0.1,0,0.3,0,0.4,0
			c0.8,0,2.8,0,3.2,0.4c0.3,0.3,0.5,0.7,0.5,1.3C10.6,18.9,10.5,19.3,10.2,19.6z"/>
		<path class="st0" d="M17.6,15c-0.2,0-0.4,0.1-0.4,0.4c0,0.2,0.1,0.3,0.3,0.3c0.2,0,0.3-0.1,0.3-0.2c0-0.2-0.1-0.3-0.3-0.3v0
			c0,0,0.6-0.1,0.6,0.4c0,0.5-0.4,0.7-0.8,0.9c-0.5,0.2-1.1,0.3-1.1,0.9c0,0.3,0.2,0.4,0.4,0.4c0.2,0,0.3-0.1,0.3-0.2
			c0-0.1-0.1-0.2-0.2-0.2c-0.1,0-0.2,0.1-0.2,0.2h0c0,0,0-0.1,0-0.2c0-0.4,0.4-0.5,0.9-0.6c0.1,0.1,0.1,0.3,0.1,0.5
			c0,0.5-0.3,1-1.1,1c-0.8,0-1.2-0.4-1.1-1c0-0.3,0.1-0.6,0.4-0.8c0.1,0.1,0.2,0.1,0.3,0.2c0.1,0,0.2,0,0.2-0.1
			c0-0.1-0.1-0.2-0.2-0.2c-0.1,0-0.2,0-0.3,0c-0.1-0.1-0.1-0.2-0.1-0.4c0-0.4,0.2-0.6,0.6-0.6c0.2,0,0.4,0.1,0.4,0.2v0
			c-0.2,0-0.4,0.1-0.4,0.3c0,0.1,0.1,0.3,0.3,0.3c0.2,0,0.3-0.1,0.3-0.3c0-0.3-0.3-0.6-0.7-0.6c-0.4,0-0.8,0.2-0.8,0.8
			c0,0.2,0.1,0.3,0.2,0.5c-0.5,0.1-0.9,0.5-0.9,1.1c0,0.7,0.7,1.1,1.5,1.1c1.1,0,1.5-0.7,1.5-1.3c0-0.2-0.1-0.4-0.1-0.6
			c0.6-0.1,1-0.4,1-1C18.3,15.2,18,15,17.6,15z"/>
		<path class="st1" d="M9.9,16c0.3-0.3,0.4-0.6,0.4-1.1c0-0.4-0.1-0.6-0.2-0.8c-0.1-0.2-0.3-0.3-0.5-0.5c-0.4-0.2-2.1-0.2-2.7-0.2
			c-0.1,0-0.3,0-0.4,0v2.9c0.1,0,0.2,0,0.2,0C7.5,16.4,9.5,16.4,9.9,16z"/>
		<path class="st1" d="M7,16.6c-0.1,0-0.3,0-0.4,0v1.6c0,0.7,0,1.1,0,1.3c0,0.2,0.1,0.3,0.2,0.4C6.9,19.9,8.7,20,9,20
			c0.6,0,1-0.1,1.2-0.4c0.3-0.3,0.4-0.7,0.4-1.3c0-0.6-0.2-1-0.5-1.3C9.7,16.6,7.8,16.6,7,16.6z"/>
		<path class="st1" d="M32.9,0.7C32.9,0.7,32.9,0.7,32.9,0.7L32.9,0.7V0H0v40.5v7.4l16.4-2.1l16.6,2.1v-7.4v-6.1c0,0,0,0,0,0
			c0,0,0,0,0,0V0.7z M11.4,19.5c-0.3,0.3-0.6,0.5-1,0.6c-0.4,0.1-1,0.1-1.6,0.1H4.4V20h0.3c0.3,0,0.5,0,0.6-0.1
			c0.1-0.1,0.2-0.2,0.2-0.4c0-0.2,0-0.5,0-1.1V15c0-0.6,0-0.9-0.1-1.1c0-0.2-0.1-0.3-0.2-0.3c-0.1-0.1-0.3-0.1-0.7-0.1H4.5v-0.2
			l1.1,0l2.9,0c1.9,0,2.9,0.6,2.9,1.6c0,0.5-0.2,0.8-0.5,1.1c-0.3,0.3-0.8,0.5-1.5,0.6c0.8,0.1,1.4,0.3,1.8,0.6
			c0.4,0.3,0.6,0.8,0.6,1.3C11.8,18.8,11.6,19.1,11.4,19.5z M17.3,16.8c0.1,0.2,0.1,0.4,0.1,0.6c0,0.6-0.4,1.3-1.5,1.3
			c-0.9,0-1.5-0.4-1.5-1.1c0-0.6,0.4-1,0.9-1.1c-0.1-0.1-0.2-0.3-0.2-0.5c0-0.6,0.5-0.8,0.8-0.8c0.5,0,0.7,0.3,0.7,0.6
			c0,0.2-0.2,0.3-0.3,0.3c-0.2,0-0.3-0.1-0.3-0.3c0-0.2,0.1-0.3,0.4-0.3v0c-0.1-0.1-0.2-0.2-0.4-0.2c-0.4,0-0.6,0.2-0.6,0.6
			c0,0.2,0,0.3,0.1,0.4c0.1,0,0.2,0,0.3,0c0.1,0,0.2,0.1,0.2,0.2c0,0.1-0.1,0.1-0.2,0.1c-0.1,0-0.2-0.1-0.3-0.2
			C15.1,16.7,15,17,15,17.3c0,0.6,0.3,1,1.1,1c0.8,0,1.1-0.5,1.1-1c0-0.2,0-0.3-0.1-0.5c-0.5,0.1-0.9,0.2-0.9,0.6c0,0.1,0,0.1,0,0.2
			h0c0-0.2,0.1-0.2,0.2-0.2c0.1,0,0.2,0.1,0.2,0.2c0,0.1-0.1,0.2-0.3,0.2c-0.2,0-0.4-0.2-0.4-0.4c0-0.6,0.6-0.7,1.1-0.9
			c0.4-0.2,0.8-0.4,0.8-0.9c0-0.5-0.5-0.4-0.6-0.4v0c0.2,0,0.3,0.1,0.3,0.3c0,0.1-0.1,0.2-0.3,0.2c-0.2,0-0.3-0.1-0.3-0.3
			c0-0.3,0.3-0.4,0.4-0.4c0.4,0,0.7,0.2,0.7,0.7C18.3,16.4,17.9,16.6,17.3,16.8z M29.2,13.5H29c-0.3,0-0.6,0-0.7,0.1
			c-0.1,0.1-0.2,0.2-0.2,0.3C28,14,28,14.4,28,15v3.4c0,0.6,0,0.9,0,1.1c0,0.2,0.1,0.3,0.2,0.4c0.1,0.1,0.3,0.1,0.6,0.1h0.3v0.2
			h-3.3V20h0.2c0.3,0,0.5,0,0.6-0.1c0.1-0.1,0.2-0.2,0.2-0.4c0-0.2,0.1-0.5,0.1-1.1V14l-2.8,6.3H24L21.2,14v4.1c0,0.6,0,0.9,0.1,1.1
			c0,0.2,0.1,0.4,0.3,0.5c0.2,0.2,0.4,0.2,0.8,0.3v0.2h-2.5V20c0.3,0,0.5-0.1,0.7-0.2c0.2-0.1,0.3-0.3,0.3-0.5C21,19,21,18.6,21,18
			v-3c0-0.6,0-0.9,0-1.1c0-0.2-0.1-0.3-0.2-0.3c-0.1-0.1-0.3-0.1-0.7-0.1h-0.2v-0.2H22l2.6,5.8l2.5-5.8h2.1V13.5z"/>
	</g>
</g>
</svg>
