<?xml version="1.0" encoding="utf-8"?>
<!-- Generator: Adobe Illustrator 21.1.0, SVG Export Plug-In . SVG Version: 6.00 Build 0)  -->
<svg version="1.1" id="Icons" xmlns="http://www.w3.org/2000/svg" xmlns:xlink="http://www.w3.org/1999/xlink" x="0px" y="0px"
	 viewBox="0 0 739.5 55.2" style="enable-background:new 0 0 739.5 55.2;" xml:space="preserve">
<style type="text/css">
	.st0{fill:#293641;}
</style>
<g>
	<path class="st0" d="M157,1.2h2.7v2.9c0,2.1-1.1,3.2-3.4,3.2h-2.7V4.4C153.6,2.3,154.8,1.2,157,1.2z M153.6,15.3
		c0-2.1,1.1-3.2,3.4-3.2h2.7v30.5H157c-2.2,0-3.4-1.1-3.4-3.2V15.3z"/>
	<path class="st0" d="M175.1,36.4c0.8,0.7,1.8,1,2.9,1v2.8c0.1,1.2-0.6,2.3-1.8,2.5c-1,0.3-2.1,0.2-3.1-0.4
		c-1.6-0.7-2.9-1.9-3.8-3.4c-1.1-1.9-1.7-4-1.6-6.2V4.4c0-2.1,1.1-3.2,3.4-3.2h2.7v31.6C173.6,34.2,174.1,35.5,175.1,36.4z"/>
	<path class="st0" d="M206.2,14.7c2.8,2.2,4.5,5.5,4.5,9.1v18.8h-1.8c-1.5,0-2.9-1-3.4-2.5c-2.6,2.3-5.9,3.5-9.4,3.4
		c-3.7,0.1-7.3-1.2-10.1-3.5c-2.8-2.1-4.5-5.5-4.5-9.1v-7.1c0-3.6,1.6-7,4.5-9.1c2.8-2.4,6.4-3.6,10.1-3.5
		C199.8,11.1,203.4,12.3,206.2,14.7z M196.2,17.2c-2.3-0.1-4.5,0.7-6.2,2.2c-1.4,1-2.3,2.7-2.3,4.4v7.1c0,1.8,0.9,3.4,2.3,4.4
		c3.7,2.8,8.8,2.8,12.5,0c1.4-1,2.3-2.7,2.3-4.4v-7.1c0-1.8-0.9-3.4-2.3-4.4C200.7,17.9,198.4,17.2,196.2,17.2z"/>
	<path class="st0" d="M254.4,15.3c0-2.1,1.1-3.2,3.4-3.2h2.7v18.8c0,3.9-1.1,7-3.2,9.2c-2.4,2.3-5.7,3.6-9,3.4
		c-3.5,0.1-6.9-1.3-9.2-3.9c-2.3,2.6-5.7,4-9.2,3.9c-3.8,0-6.8-1.1-9-3.4c-2.2-2.3-3.2-5.3-3.2-9.2V15.3c0-2.1,1.1-3.2,3.4-3.2h2.7
		v18.8c0,2.3,0.5,4,1.6,5c1.3,1.1,2.9,1.7,4.6,1.6c1.6,0.1,3.2-0.5,4.4-1.6c1.2-1.4,1.8-3.1,1.7-4.9V15.3c0-2.1,1.1-3.2,3.4-3.2h2.7
		v18.8c-0.1,1.8,0.5,3.6,1.7,4.9c1.2,1.1,2.8,1.7,4.4,1.6c1.7,0.1,3.4-0.4,4.6-1.6c1-1,1.6-2.7,1.6-5L254.4,15.3L254.4,15.3z"/>
	<path class="st0" d="M294.3,12.1l-11.9,33.5c-0.3,0.8-0.6,1.5-0.9,2.3c-0.3,0.7-0.6,1.4-1,2c-0.9,1.3-2,2.3-3.4,3
		c-1,0.5-2.1,0.6-3.1,0.4c-1.2-0.2-1.9-1.3-1.8-2.5V48c0.7,0,1.4-0.2,2-0.5c0.7-0.2,1.3-0.8,1.5-1.5l1.2-3.1c-1.7-0.3-3-1.4-3.7-2.9
		l-8.9-25.1c-0.3-0.6-0.3-1.3,0-1.9c0.4-0.6,1-0.9,1.7-0.8h3.8l8.9,25.2h0.1l8.2-22.9c0.4-1.4,1.7-2.4,3.2-2.3h4.1V12.1z"/>
	<path class="st0" d="M318.9,12.7c1.5,0.8,2.7,1.9,3.8,3.2c1.1,1.5,1.7,3.4,1.7,5.3c0.1,1.6-0.3,3.1-1,4.5c-0.6,1.1-1.5,2.1-2.6,2.9
		s-2.3,1.4-3.7,1.7c-1.3,0.4-2.6,0.6-4,0.5h-7.3c-0.4,0-0.8,0-1.1-0.1c-0.4-0.1-0.7-0.2-1-0.5v2.5c0,1.5,0.8,2.8,2.2,3.4
		c1.3,0.7,2.7,1.2,4.1,1.2c1.5,0.2,3,0.1,4.4-0.3c1.4-0.2,2.7-0.9,3.7-2c0.9-1.1,2.1-1.3,3.6-0.5l2.9,1.4c-0.5,1.3-1.3,2.4-2.3,3.4
		c-1.4,1.4-3.2,2.5-5.2,3.1c-1.9,0.7-3.9,1-5.9,1c-1.6,0-3.1-0.1-4.7-0.5s-3-1-4.4-1.9c-1.5-1-2.7-2.4-3.4-4
		c-0.7-1.6-1.1-3.4-1.1-5.2V22c0-1.5,0.4-3,1-4.4c1.1-2.2,2.9-3.9,5.1-4.9s4.6-1.6,7.1-1.5C313.6,11.1,316.4,11.6,318.9,12.7z
		 M316.7,24c1.6-0.9,2.2-2.8,1.3-4.4c-0.2-0.4-0.5-0.7-0.8-0.9c-1.3-0.9-2.9-1.4-4.4-1.5s-3.1,0-4.6,0.4c-1.1,0.2-2.2,0.7-3.1,1.4
		c-0.9,0.7-1.4,1.8-1.4,2.9v2.9h10C314.8,24.8,315.8,24.6,316.7,24L316.7,24z"/>
	<path class="st0" d="M330,22.8c0-3.6,1.1-6.4,3.5-8.3c1.9-1.6,4.4-2.5,6.9-2.4h4v2.7c0,2.2-1,3.4-3.1,3.4h-0.8
		c-2.3-0.1-4.3,1.8-4.3,4.1c0,0.2,0,0.4,0,0.5v19.8h-2.7c-2.2,0-3.4-1.1-3.4-3.2L330,22.8L330,22.8L330,22.8z"/>
	<path class="st0" d="M383.9,18.8c-1.3-1.1-2.9-1.7-4.6-1.6c-1.7-0.1-3.3,0.5-4.4,1.7c-1.2,1.4-1.8,3.1-1.7,4.9v18.8h-2.7
		c-2.2,0-3.4-1.1-3.4-3.2V23.8c0.1-1.8-0.5-3.6-1.7-4.9c-1.2-1.2-2.8-1.8-4.4-1.7c-1.7-0.1-3.4,0.4-4.6,1.6c-1.1,1.4-1.7,3.2-1.6,5
		v18.8H352c-2.2,0-3.4-1.1-3.4-3.2V23.8c0-3.8,1.1-6.9,3.2-9.2c2.2-2.3,5.2-3.5,9-3.5c2.9-0.1,5.8,0.9,8,2.8
		c0.4,0.3,0.8,0.7,1.2,1.1c0.4-0.4,0.8-0.8,1.1-1.1c5.1-4,12.3-3.7,17,0.7c2.2,2.3,3.2,5.3,3.2,9.2v18.8h-2.7
		c-2.2,0-3.4-1.1-3.4-3.2V23.8C385.5,22,385,20.2,383.9,18.8z"/>
	<path class="st0" d="M422,14.7c2.9,2.2,4.5,5.5,4.5,9.1v18.8h-1.8c-1.5,0-2.9-1-3.4-2.5c-2.6,2.3-5.9,3.5-9.4,3.4
		c-3.7,0.1-7.3-1.2-10.1-3.5c-2.8-2.1-4.5-5.5-4.5-9.1v-7.1c0-3.6,1.7-7,4.5-9.1c2.8-2.4,6.4-3.6,10.1-3.5
		C415.6,11.1,419.2,12.4,422,14.7z M411.9,17.2c-2.3-0.1-4.5,0.7-6.2,2.2c-1.4,1-2.3,2.7-2.3,4.4v7.1c0,1.8,0.9,3.4,2.3,4.4
		c3.7,2.8,8.8,2.8,12.5,0c1.4-1,2.3-2.7,2.3-4.4v-7.1c0-1.8-0.9-3.4-2.3-4.4C416.4,17.9,414.2,17.2,411.9,17.2L411.9,17.2z"/>
	<path class="st0" d="M433.4,22.8c0-3.6,1.1-6.4,3.5-8.3c1.9-1.6,4.4-2.5,6.9-2.4h4v2.7c0,2.2-1,3.4-3.1,3.4h-0.8
		c-2.3-0.1-4.3,1.8-4.3,4.1c0,0.2,0,0.4,0,0.5v19.8h-2.7c-2.2,0-3.4-1.1-3.4-3.2L433.4,22.8L433.4,22.8z"/>
	<path class="st0" d="M452.6,4.4c0-2.1,1.1-3.2,3.4-3.2h2.7v23.6h2.2c1.2,0,2.3,0.1,3.1-1.1l5.7-9.4c0.7-1.3,2.1-2.2,3.7-2.2h4.7
		L470.7,24c-0.3,0.6-0.7,1.2-1.2,1.7c2.1,1,3.7,2.8,4.5,5l5.2,11.9h-3.9c-1.8,0-3-0.7-3.5-1.9l-3.3-7.6c-0.5-1.4-1.9-2.3-3.4-2.3
		h-6.5v11.8h-2.7c-2.2,0-3.4-1.1-3.4-3.2L452.6,4.4L452.6,4.4L452.6,4.4z"/>
	<path class="st0" d="M504.2,12.7c1.5,0.8,2.7,1.9,3.8,3.2c1.1,1.5,1.7,3.4,1.7,5.3c0.1,1.6-0.3,3.1-1,4.5c-0.6,1.1-1.5,2.1-2.6,2.9
		s-2.3,1.4-3.7,1.7c-1.3,0.4-2.6,0.6-4,0.5h-7.3c-0.4,0-0.8,0-1.1-0.1c-0.4-0.1-0.7-0.2-1-0.5v2.5c0,1.5,0.8,2.8,2.2,3.4
		c1.3,0.7,2.7,1.2,4.1,1.2c1.5,0.2,3,0.1,4.4-0.3c1.4-0.2,2.7-0.9,3.7-2c0.9-1.1,2.1-1.3,3.6-0.5l2.9,1.4c-0.5,1.3-1.3,2.4-2.3,3.4
		c-1.4,1.4-3.2,2.5-5.2,3.1c-1.9,0.7-3.9,1-5.9,1c-1.6,0-3.1-0.1-4.7-0.5s-3-1-4.4-1.9c-1.5-1-2.7-2.4-3.4-4
		c-0.7-1.6-1.1-3.4-1.1-5.2V22c0-1.5,0.4-3,1-4.4c1.1-2.2,2.9-3.9,5.2-4.9c2.2-1,4.6-1.6,7.1-1.5C498.9,11.1,501.6,11.6,504.2,12.7z
		 M501.9,24c1.6-0.9,2.2-2.8,1.3-4.4c-0.2-0.4-0.5-0.7-0.8-0.9c-1.3-0.9-2.9-1.4-4.4-1.5s-3.1,0-4.6,0.4c-1.1,0.2-2.2,0.7-3.1,1.4
		c-0.9,0.7-1.4,1.8-1.4,2.9v2.9h10C500,24.8,501,24.6,501.9,24L501.9,24z"/>
	<path class="st0" d="M528.7,12.1v2.7c0,2.2-1.1,3.4-3.2,3.4h-4v14.6c-0.1,1.4,0.4,2.7,1.4,3.6c0.8,0.7,1.8,1,2.8,1v2.8
		c0.1,1.2-0.6,2.3-1.8,2.5c-1,0.3-2.2,0.2-3.1-0.4c-1.6-0.7-2.9-1.9-3.8-3.3c-1.1-1.9-1.6-4-1.6-6.2V4.4c0-2.1,1.1-3.2,3.3-3.2h2.8
		v10.9L528.7,12.1L528.7,12.1z"/>
	<path class="st0" d="M537.1,1.2h2.7v2.9c0,2.1-1.1,3.2-3.4,3.2h-2.7V4.4C533.7,2.3,534.9,1.2,537.1,1.2z M533.7,15.3
		c0-2.1,1.1-3.2,3.4-3.2h2.7v30.5h-2.7c-2.2,0-3.4-1.1-3.4-3.2V15.3z"/>
	<path class="st0" d="M551.5,14.6c2.7-2.3,6.1-3.5,9.6-3.4c3.5-0.1,7,1.1,9.7,3.4c2.7,2.1,4.2,5.3,4.3,8.7v19.3h-2.7
		c-2.2,0-3.4-1.1-3.4-3.2V23.3c0-1.6-0.8-3.1-2.1-4.1c-3.4-2.6-8.1-2.6-11.5,0c-1.3,1-2.1,2.5-2.1,4.1v19.3h-2.7
		c-2.2,0-3.4-1.1-3.4-3.2V23.3C547.2,19.9,548.8,16.6,551.5,14.6z"/>
	<path class="st0" d="M605.6,14.7c2.8,2.2,4.5,5.5,4.5,9.1v18.5c0,1.7-0.4,3.4-1.1,5c-1.6,2.9-4.4,5.1-7.6,5.9
		c-1.7,0.5-3.5,0.7-5.3,0.7c-1.6,0-3.1-0.2-4.7-0.5c-1.1-0.1-2.1-0.7-2.8-1.6c-0.4-0.8-0.4-1.7-0.1-2.5L589,47c1.7,0.7,3.5,1,5.3,1
		c1.8,0.1,3.6-0.1,5.3-0.6c2.9-0.8,4.4-2.5,4.4-5.2V41c-5.8,3.6-13.3,3.1-18.6-1.1c-2.8-2.1-4.5-5.5-4.5-9.1v-7c0-3.6,1.7-7,4.5-9.1
		c2.8-2.4,6.4-3.6,10.1-3.5C599.2,11.1,602.8,12.4,605.6,14.7z M595.5,17.2c-2.3-0.1-4.5,0.7-6.2,2.2c-1.4,1-2.3,2.7-2.3,4.4v7.1
		c0,1.8,0.9,3.4,2.3,4.4c3.7,2.8,8.8,2.8,12.5,0c1.4-1,2.3-2.7,2.3-4.4v-7.1c0-1.8-0.9-3.4-2.3-4.4C600,17.9,597.8,17.2,595.5,17.2
		L595.5,17.2z"/>
	<path class="st0" d="M620.9,35.8h2.7v3.7c0,2.1-1.1,3.2-3.4,3.2h-2.7V39C617.5,36.8,618.6,35.8,620.9,35.8z"/>
	<path class="st0" d="M630.1,23.3c0-3.4,1.6-6.6,4.3-8.7c2.7-2.3,6.1-3.5,9.6-3.4c3.5-0.1,7,1.1,9.7,3.4c1.6,1.3,2.8,2.9,3.5,4.8
		l-2.6,1.4c-1.3,0.8-3.1,0.5-4-0.7c-0.4-0.4-0.6-0.7-0.8-0.8c-1.6-1.3-3.7-2-5.8-2c-2.1-0.1-4.1,0.7-5.8,2c-1.3,1-2,2.5-2.1,4.1v8.2
		c0,1.6,0.8,3.1,2.1,4.1c1.6,1.3,3.7,2,5.8,1.9c2.1,0,4.2-0.6,5.8-1.9c0.2-0.2,0.4-0.4,0.8-0.8c0.9-1.2,2.7-1.6,4-0.7l2.6,1.4
		c-0.8,1.9-2,3.5-3.5,4.8c-2.7,2.2-6.1,3.4-9.7,3.4c-3.5,0.1-6.9-1.1-9.6-3.4c-2.7-2.1-4.3-5.3-4.3-8.7V23.3z"/>
	<path class="st0" d="M686.3,14.7c2.8,2.2,4.5,5.5,4.5,9.1v7.1c0,3.6-1.7,6.9-4.5,9.1c-5.9,4.7-14.3,4.7-20.2,0
		c-2.8-2.1-4.5-5.5-4.5-9.1v-7.1c0-3.6,1.7-7,4.5-9.1c2.8-2.4,6.4-3.6,10.1-3.5C679.9,11.1,683.5,12.4,686.3,14.7z M676.2,17.2
		c-2.3-0.1-4.5,0.7-6.2,2.2c-1.4,1-2.3,2.7-2.3,4.4v7.1c0,1.8,0.9,3.4,2.3,4.4c3.7,2.8,8.8,2.8,12.5,0c1.4-1,2.3-2.7,2.3-4.4v-7.1
		c0-1.8-0.9-3.4-2.3-4.4C680.7,17.9,678.5,17.2,676.2,17.2L676.2,17.2z"/>
	<path class="st0" d="M732,18.8c-1.3-1.1-2.9-1.7-4.6-1.6c-1.7-0.1-3.3,0.5-4.4,1.7c-1.2,1.4-1.8,3.1-1.7,4.9v18.8h-2.7
		c-2.2,0-3.4-1.1-3.4-3.2V23.8c0.1-1.8-0.5-3.6-1.7-4.9c-1.2-1.2-2.8-1.8-4.4-1.7c-1.7-0.1-3.4,0.4-4.6,1.6c-1.1,1.4-1.7,3.2-1.6,5
		v18.8h-2.7c-2.2,0-3.4-1.1-3.4-3.2V23.8c0-3.8,1.1-6.9,3.2-9.2c2.2-2.3,5.2-3.5,9-3.5c2.9-0.1,5.8,0.9,8,2.8
		c0.4,0.3,0.8,0.7,1.2,1.1c0.4-0.4,0.8-0.8,1.1-1.1c5.1-4,12.3-3.7,17,0.7c2.2,2.3,3.2,5.3,3.2,9.2v18.8h-2.7
		c-2.2,0-3.4-1.1-3.4-3.2V23.8C733.6,22,733.1,20.2,732,18.8z"/>
	<path class="st0" d="M11.9,23.6c0-2.6-0.2-5.2-3.2-5.2c-1.8,0-3,0.7-3,2.7c0,2.2,1.4,3.1,3.1,4.2c2.3,1.4,4.6,3,6.6,4.8
		c1.7,1.6,2.6,3.8,2.5,6.1c0,5.5-3.7,8.4-9,8.4C2.3,44.6,0,41,0,35.7v-2.1h5.5v1.7c-0.1,2.8,0.7,4.9,3.4,4.9c2.3,0,3.4-1.2,3.4-3.4
		c0-1.6-0.8-3.1-2.2-3.9c-2.9-2.2-6.4-3.8-8.6-6.8c-0.9-1.3-1.4-2.9-1.4-4.5c0-5,2.8-7.7,8.6-7.7c8.7,0,8.5,6.7,8.5,9.6L11.9,23.6
		L11.9,23.6z"/>
	<path class="st0" d="M24,43.9V14.7h5.5v29.2H24z"/>
	<path class="st0" d="M34.4,14.7h18.2V19h-6.3v25h-5.5V19h-6.4V14.7L34.4,14.7z"/>
	<path class="st0" d="M57.3,43.9V14.7h15.4V19h-9.9v7.4h9.1v4.3h-9.1v9h9.9V44L57.3,43.9L57.3,43.9z"/>
	<path class="st0" d="M89.7,43.9V14.7h8.8c2.3,0,4.6,0.2,6.2,2.2c1.1,1.5,1.6,3.4,1.4,5.3c0,2.5-0.6,5-3.5,6.1v0.1
		c3.1,0.4,4.2,3,4.2,6.8c0,1.2-0.1,2.4-0.4,3.6c-1.2,3.7-3.3,5.3-7.2,5.3L89.7,43.9L89.7,43.9z M96.2,26.5c1.3,0,3,0.1,3.9-1
		c0.5-1,0.7-2.1,0.6-3.2c0-2.2-0.5-3.3-3-3.3h-2.5v7.5H96.2L96.2,26.5z M96.3,39.7c1.1,0.1,2.2,0,3.3-0.3c1.5-0.7,1.7-2.6,1.7-4.1
		c0-3.2-0.6-4.5-4-4.5h-2.1v8.9L96.3,39.7L96.3,39.7z"/>
	<path class="st0" d="M119.9,22.4c0.6,1.4,1,2.9,1.3,4.5h0.1c0.4-1.9,1-3.8,1.8-5.5l2.6-6.6h6L124,31.5v12.4h-5.5V31.5l-7.6-16.8h6
		L119.9,22.4z"/>
</g>
</svg>
