<?xml version="1.0" encoding="utf-8"?>
<!-- Generator: Adobe Illustrator 21.1.0, SVG Export Plug-In . SVG Version: 6.00 Build 0)  -->
<svg version="1.1" id="callouts" xmlns="http://www.w3.org/2000/svg" xmlns:xlink="http://www.w3.org/1999/xlink" x="0px" y="0px"
	 viewBox="0 0 32.9 47.9" style="enable-background:new 0 0 32.9 47.9;" xml:space="preserve">
<style type="text/css">
	.st0{fill:#FFFFFF;}
</style>
<g>
	<path class="st0" d="M24.5,19L22,13.2h-2.1v0.2H20c0.4,0,0.6,0,0.7,0.1c0.1,0.1,0.2,0.2,0.2,0.3c0,0.2,0,0.5,0,1.1v3
		c0,0.6,0,1-0.1,1.2c0,0.2-0.2,0.4-0.3,0.5c-0.2,0.1-0.4,0.2-0.7,0.2v0.2h2.5V20c-0.3,0-0.6-0.1-0.8-0.3c-0.2-0.2-0.3-0.3-0.3-0.5
		c0-0.2-0.1-0.6-0.1-1.1V14l2.8,6.3h0.2L27,14v4.4c0,0.6,0,1-0.1,1.1c0,0.2-0.1,0.3-0.2,0.4C26.6,20,26.4,20,26.1,20h-0.2v0.2h3.3
		V20h-0.3c-0.3,0-0.5,0-0.6-0.1c-0.1-0.1-0.2-0.2-0.2-0.4c0-0.2,0-0.5,0-1.1V15c0-0.6,0-1,0.1-1.1c0-0.2,0.1-0.3,0.2-0.3
		c0.1-0.1,0.3-0.1,0.7-0.1h0.3v-0.2h-2.1L24.5,19z"/>
	<path class="st0" d="M9.4,16.5c0.7-0.1,1.2-0.3,1.5-0.6c0.3-0.3,0.5-0.6,0.5-1.1c0-1.1-1-1.6-2.9-1.6l-2.9,0l-1.1,0v0.2h0.1
		c0.4,0,0.6,0,0.7,0.1c0.1,0.1,0.2,0.2,0.2,0.3c0,0.2,0.1,0.5,0.1,1.1v3.4c0,0.6,0,1,0,1.1c0,0.2-0.1,0.3-0.2,0.4
		C5.2,20,5,20,4.7,20H4.4v0.2h4.3c0.7,0,1.2-0.1,1.6-0.1c0.4-0.1,0.7-0.3,1-0.6c0.3-0.3,0.4-0.7,0.4-1.1c0-0.5-0.2-0.9-0.6-1.3
		C10.8,16.7,10.2,16.5,9.4,16.5z M6.6,13.4c0.1,0,0.3,0,0.4,0c0.5,0,2.3-0.1,2.7,0.2c0.2,0.1,0.4,0.3,0.5,0.5
		c0.1,0.2,0.2,0.5,0.2,0.8c0,0.5-0.2,0.9-0.4,1.1c-0.4,0.4-2.3,0.4-3.1,0.4c-0.1,0-0.1,0-0.2,0V13.4z M10.2,19.6
		C10,19.9,9.5,20,9,20c-0.3,0-2.1,0-2.2-0.1c-0.1-0.1-0.2-0.2-0.2-0.4c0-0.2,0-0.6,0-1.3v-1.6c0.1,0,0.3,0,0.4,0
		c0.8,0,2.8,0,3.2,0.4c0.3,0.3,0.5,0.7,0.5,1.3C10.6,18.9,10.5,19.3,10.2,19.6z"/>
	<path class="st0" d="M17.6,15c-0.2,0-0.4,0.1-0.4,0.4c0,0.2,0.1,0.3,0.3,0.3c0.2,0,0.3-0.1,0.3-0.2c0-0.2-0.1-0.3-0.3-0.3v0
		c0,0,0.6-0.1,0.6,0.4c0,0.5-0.4,0.7-0.8,0.9c-0.5,0.2-1.1,0.3-1.1,0.9c0,0.3,0.2,0.4,0.4,0.4c0.2,0,0.3-0.1,0.3-0.2
		c0-0.1-0.1-0.2-0.2-0.2c-0.1,0-0.2,0.1-0.2,0.2h0c0,0,0-0.1,0-0.2c0-0.4,0.4-0.5,0.9-0.6c0.1,0.1,0.1,0.3,0.1,0.5
		c0,0.5-0.3,1-1.1,1c-0.8,0-1.2-0.4-1.1-1c0-0.3,0.1-0.6,0.4-0.8c0.1,0.1,0.2,0.1,0.3,0.2c0.1,0,0.2,0,0.2-0.1
		c0-0.1-0.1-0.2-0.2-0.2c-0.1,0-0.2,0-0.3,0c-0.1-0.1-0.1-0.2-0.1-0.4c0-0.4,0.2-0.6,0.6-0.6c0.2,0,0.4,0.1,0.4,0.2v0
		c-0.2,0-0.4,0.1-0.4,0.3c0,0.1,0.1,0.3,0.3,0.3c0.2,0,0.3-0.1,0.3-0.3c0-0.3-0.3-0.6-0.7-0.6c-0.4,0-0.8,0.2-0.8,0.8
		c0,0.2,0.1,0.3,0.2,0.5c-0.5,0.1-0.9,0.5-0.9,1.1c0,0.7,0.7,1.1,1.5,1.1c1.1,0,1.5-0.7,1.5-1.3c0-0.2-0.1-0.4-0.1-0.6
		c0.6-0.1,1-0.4,1-1C18.3,15.2,18,15,17.6,15z"/>
	<path class="st0" d="M9.9,16c0.3-0.3,0.4-0.6,0.4-1.1c0-0.4-0.1-0.6-0.2-0.8c-0.1-0.2-0.3-0.3-0.5-0.5c-0.4-0.2-2.1-0.2-2.7-0.2
		c-0.1,0-0.3,0-0.4,0v2.9c0.1,0,0.2,0,0.2,0C7.5,16.4,9.5,16.4,9.9,16z"/>
	<path class="st0" d="M7,16.6c-0.1,0-0.3,0-0.4,0v1.6c0,0.7,0,1.1,0,1.3c0,0.2,0.1,0.3,0.2,0.4C6.9,19.9,8.7,20,9,20
		c0.6,0,1-0.1,1.2-0.4c0.3-0.3,0.4-0.7,0.4-1.3c0-0.6-0.2-1-0.5-1.3C9.7,16.6,7.8,16.6,7,16.6z"/>
	<path class="st0" d="M32.9,0.7C32.9,0.7,32.9,0.7,32.9,0.7L32.9,0.7V0H0v40.5v7.4l16.4-2.1l16.6,2.1v-7.4v-6.1c0,0,0,0,0,0
		c0,0,0,0,0,0V0.7z M11.4,19.5c-0.3,0.3-0.6,0.5-1,0.6c-0.4,0.1-1,0.1-1.6,0.1H4.4V20h0.3c0.3,0,0.5,0,0.6-0.1
		c0.1-0.1,0.2-0.2,0.2-0.4c0-0.2,0-0.5,0-1.1V15c0-0.6,0-0.9-0.1-1.1c0-0.2-0.1-0.3-0.2-0.3c-0.1-0.1-0.3-0.1-0.7-0.1H4.5v-0.2
		l1.1,0l2.9,0c1.9,0,2.9,0.6,2.9,1.6c0,0.5-0.2,0.8-0.5,1.1c-0.3,0.3-0.8,0.5-1.5,0.6c0.8,0.1,1.4,0.3,1.8,0.6
		c0.4,0.3,0.6,0.8,0.6,1.3C11.8,18.8,11.6,19.1,11.4,19.5z M17.3,16.8c0.1,0.2,0.1,0.4,0.1,0.6c0,0.6-0.4,1.3-1.5,1.3
		c-0.9,0-1.5-0.4-1.5-1.1c0-0.6,0.4-1,0.9-1.1c-0.1-0.1-0.2-0.3-0.2-0.5c0-0.6,0.5-0.8,0.8-0.8c0.5,0,0.7,0.3,0.7,0.6
		c0,0.2-0.2,0.3-0.3,0.3c-0.2,0-0.3-0.1-0.3-0.3c0-0.2,0.1-0.3,0.4-0.3v0c-0.1-0.1-0.2-0.2-0.4-0.2c-0.4,0-0.6,0.2-0.6,0.6
		c0,0.2,0,0.3,0.1,0.4c0.1,0,0.2,0,0.3,0c0.1,0,0.2,0.1,0.2,0.2c0,0.1-0.1,0.1-0.2,0.1c-0.1,0-0.2-0.1-0.3-0.2
		C15.1,16.7,15,17,15,17.3c0,0.6,0.3,1,1.1,1c0.8,0,1.1-0.5,1.1-1c0-0.2,0-0.3-0.1-0.5c-0.5,0.1-0.9,0.2-0.9,0.6c0,0.1,0,0.1,0,0.2
		h0c0-0.2,0.1-0.2,0.2-0.2c0.1,0,0.2,0.1,0.2,0.2c0,0.1-0.1,0.2-0.3,0.2c-0.2,0-0.4-0.2-0.4-0.4c0-0.6,0.6-0.7,1.1-0.9
		c0.4-0.2,0.8-0.4,0.8-0.9c0-0.5-0.5-0.4-0.6-0.4v0c0.2,0,0.3,0.1,0.3,0.3c0,0.1-0.1,0.2-0.3,0.2c-0.2,0-0.3-0.1-0.3-0.3
		c0-0.3,0.3-0.4,0.4-0.4c0.4,0,0.7,0.2,0.7,0.7C18.3,16.4,17.9,16.6,17.3,16.8z M29.2,13.5H29c-0.3,0-0.6,0-0.7,0.1
		c-0.1,0.1-0.2,0.2-0.2,0.3C28,14,28,14.4,28,15v3.4c0,0.6,0,0.9,0,1.1c0,0.2,0.1,0.3,0.2,0.4c0.1,0.1,0.3,0.1,0.6,0.1h0.3v0.2h-3.3
		V20h0.2c0.3,0,0.5,0,0.6-0.1c0.1-0.1,0.2-0.2,0.2-0.4c0-0.2,0.1-0.5,0.1-1.1V14l-2.8,6.3H24L21.2,14v4.1c0,0.6,0,0.9,0.1,1.1
		c0,0.2,0.1,0.4,0.3,0.5c0.2,0.2,0.4,0.2,0.8,0.3v0.2h-2.5V20c0.3,0,0.5-0.1,0.7-0.2c0.2-0.1,0.3-0.3,0.3-0.5C21,19,21,18.6,21,18
		v-3c0-0.6,0-0.9,0-1.1c0-0.2-0.1-0.3-0.2-0.3c-0.1-0.1-0.3-0.1-0.7-0.1h-0.2v-0.2H22l2.6,5.8l2.5-5.8h2.1V13.5z"/>
</g>
</svg>
