<?xml version="1.0" encoding="utf-8"?>
<!-- Generator: Adobe Illustrator 21.1.0, SVG Export Plug-In . SVG Version: 6.00 Build 0)  -->
<svg version="1.1" id="callouts" xmlns="http://www.w3.org/2000/svg" xmlns:xlink="http://www.w3.org/1999/xlink" x="0px" y="0px"
	 viewBox="0 0 66 64.4" style="enable-background:new 0 0 66 64.4;" xml:space="preserve">
<style type="text/css">
	.st0{fill:#FFFFFF;}
</style>
<g>
	<g>
		<g>
			<g>
				<path class="st0" d="M19.8,24.9c0.5-0.5,0.8-1.2,0.8-2.3c0-0.7-0.1-1.3-0.3-1.7c-0.2-0.4-0.6-0.7-1-0.9
					c-0.8-0.5-4.3-0.3-5.3-0.3c-0.3,0-0.5,0-0.8,0v5.9c0.2,0,0.3,0,0.4,0C15.1,25.7,19.1,25.7,19.8,24.9z"/>
			</g>
			<g>
				<path class="st0" d="M14,26.1c-0.3,0-0.5,0-0.8,0v3.1c0,1.3,0,2.2,0.1,2.5c0,0.4,0.2,0.6,0.4,0.8c0.2,0.2,3.8,0.3,4.4,0.3
					c1.1,0,1.9-0.3,2.5-0.8c0.6-0.6,0.8-1.4,0.8-2.5c0-1.2-0.3-2-0.9-2.6C19.5,26.1,15.5,26.1,14,26.1z"/>
			</g>
			<path class="st0" d="M66,1.4C66,1.4,66,1.4,66,1.4C66,1.4,66,1.4,66,1.4V0H0v49.6v14.8l32.8-4.3L66,64.4V49.6V37.3c0,0,0,0,0,0
				c0,0,0,0,0,0V1.4z M22.8,31.8c-0.5,0.6-1.2,1.1-2,1.2c-0.8,0.2-1.9,0.3-3.3,0.3H8.8v-0.5h0.5c0.6,0,1-0.1,1.2-0.2
				c0.2-0.1,0.4-0.4,0.4-0.7c0.1-0.3,0.1-1.1,0.1-2.2v-6.8c0-1.1,0-1.9-0.1-2.2c-0.1-0.3-0.2-0.6-0.4-0.7c-0.2-0.1-0.7-0.2-1.4-0.2
				H9v-0.5l2.3-0.1l5.8-0.1c3.8,0,5.7,1.1,5.7,3.3c0,0.9-0.3,1.6-1,2.2c-0.7,0.5-1.6,0.9-3,1.1c1.6,0.1,2.8,0.5,3.5,1.2
				c0.8,0.7,1.2,1.5,1.2,2.5C23.6,30.4,23.3,31.2,22.8,31.8z M34.7,26.4c0.2,0.3,0.3,0.7,0.3,1.1c0,1.2-0.9,2.7-3.1,2.7
				c-1.7,0-3.1-0.9-3.1-2.3c0-1.3,0.8-2,1.8-2.2c-0.2-0.3-0.3-0.6-0.3-0.9c0-1.2,0.9-1.6,1.6-1.6c1,0,1.5,0.6,1.5,1.2
				c0,0.4-0.3,0.6-0.6,0.6c-0.3,0-0.5-0.3-0.5-0.5c0-0.3,0.2-0.6,0.7-0.6v0c-0.1-0.1-0.4-0.3-0.9-0.3c-0.8,0-1.2,0.4-1.3,1.3
				c0,0.3,0,0.6,0.2,0.8c0.2,0,0.5,0,0.7,0c0.2,0,0.4,0.2,0.4,0.4c0,0.2-0.3,0.2-0.5,0.2c-0.3,0-0.5-0.1-0.7-0.3
				c-0.6,0.3-0.9,1-0.9,1.6c0,1.1,0.6,2,2.3,2c1.6,0,2.2-1.1,2.2-2.1c0-0.3-0.1-0.7-0.2-1c-1,0.2-1.8,0.4-1.8,1.2
				c0,0.1,0,0.3,0.1,0.3h0c0-0.3,0.2-0.5,0.4-0.5c0.2,0,0.4,0.2,0.4,0.4c0,0.2-0.2,0.5-0.5,0.5c-0.4,0-0.7-0.4-0.7-0.9
				c0-1.1,1.1-1.4,2.2-1.8C35.2,25.4,36,25,36,24c0-1-1.1-0.8-1.1-0.8v0c0.3,0,0.5,0.2,0.5,0.6c0,0.2-0.2,0.5-0.5,0.5
				c-0.3,0-0.6-0.3-0.6-0.6c0-0.6,0.5-0.8,0.8-0.8c0.8,0,1.5,0.5,1.5,1.5C36.7,25.6,35.8,26.1,34.7,26.4z M58.6,19.8h-0.5
				c-0.7,0-1.1,0.1-1.4,0.2c-0.2,0.1-0.4,0.3-0.4,0.6c-0.1,0.3-0.1,1-0.1,2.2v6.9c0,1.1,0,1.8,0.1,2.2c0.1,0.3,0.2,0.6,0.4,0.8
				c0.2,0.2,0.7,0.3,1.3,0.3h0.6v0.5h-6.7v-0.5h0.5c0.6,0,1-0.1,1.2-0.2c0.2-0.1,0.4-0.4,0.4-0.7c0.1-0.3,0.1-1.1,0.1-2.2v-8.9
				l-5.6,12.6h-0.5l-5.6-12.6V29c0,1.1,0,1.9,0.1,2.3c0.1,0.4,0.3,0.8,0.6,1.1c0.4,0.3,0.9,0.5,1.5,0.5v0.5h-5v-0.5
				c0.6,0,1.1-0.2,1.5-0.5c0.4-0.3,0.6-0.7,0.7-1.1C42,30.9,42,30.1,42,29v-6.1c0-1.1,0-1.8-0.1-2.2c-0.1-0.3-0.2-0.5-0.4-0.7
				c-0.2-0.1-0.7-0.2-1.4-0.2h-0.4v-0.5H44L49.2,31l5.1-11.6h4.3V19.8z"/>
		</g>
	</g>
</g>
</svg>
