<?xml version="1.0" encoding="utf-8"?>
<!-- Generator: Adobe Illustrator 21.1.0, SVG Export Plug-In . SVG Version: 6.00 Build 0)  -->
<svg version="1.1" id="Layer_1" xmlns="http://www.w3.org/2000/svg" xmlns:xlink="http://www.w3.org/1999/xlink" x="0px" y="0px"
	 viewBox="0 0 232 233" style="enable-background:new 0 0 232 233;" xml:space="preserve">
<style type="text/css">
	.st0{fill:#4C6775;}
	.st1{fill:none;stroke:#9A7537;stroke-linecap:round;stroke-dasharray:1.000000e-03,3;}
	.st2{fill:#9A7537;}
	.st3{fill:#FFFFFF;}
	.st4{fill:none;enable-background:new    ;}
</style>
<circle id="Ellipse_2_copy" class="st0" cx="116" cy="116.5" r="49.5"/>
<circle id="Ellipse_3_copy" class="st1" cx="116" cy="116.5" r="74"/>
<path class="st2" d="M115.7,230.5L115.7,230.5L115.7,230.5L115.7,230.5L115.7,230.5L115.7,230.5z M115.2,230c0-0.3,0.2-0.5,0.5-0.5
	l0,0c0.3,0,0.5,0.2,0.5,0.5l0,0c0,0.3-0.2,0.5-0.5,0.5l0,0C115.4,230.5,115.2,230.3,115.2,230z M118.2,230c0-0.3,0.2-0.5,0.5-0.5
	l0,0c0.3,0,0.5,0.2,0.5,0.5l0,0c0,0.3-0.2,0.5-0.5,0.5l0,0l0,0l0,0h0l0,0C118.4,230.5,118.2,230.2,118.2,230z M112.7,230.5
	c-0.3,0-0.5-0.2-0.5-0.5l0,0c0-0.3,0.2-0.5,0.5-0.5l0,0c0.3,0,0.5,0.2,0.5,0.5l0,0C113.2,230.2,113,230.5,112.7,230.5L112.7,230.5
	L112.7,230.5z M121.2,229.9c0-0.3,0.2-0.5,0.5-0.5l0,0c0.3,0,0.5,0.2,0.5,0.5l0,0c0,0.3-0.2,0.5-0.5,0.5l0,0c0,0,0,0,0,0l0,0
	C121.4,230.4,121.2,230.1,121.2,229.9z M109.7,230.3c-0.3,0-0.5-0.2-0.5-0.5l0,0c0-0.3,0.2-0.5,0.5-0.5l0,0c0.3,0,0.5,0.2,0.5,0.5
	l0,0C110.2,230.1,110,230.3,109.7,230.3L109.7,230.3C109.7,230.3,109.7,230.3,109.7,230.3z M124.2,229.7c0-0.3,0.2-0.5,0.5-0.5l0,0
	c0.3,0,0.5,0.2,0.5,0.5l0,0c0,0.3-0.2,0.5-0.5,0.5l0,0c0,0,0,0,0,0l0,0C124.4,230.2,124.2,230,124.2,229.7z M106.7,230.1
	c-0.3,0-0.5-0.3-0.5-0.5l0,0c0-0.3,0.3-0.5,0.5-0.5l0,0c0.3,0,0.5,0.3,0.5,0.5l0,0C107.2,229.9,107,230.1,106.7,230.1L106.7,230.1
	C106.7,230.1,106.7,230.1,106.7,230.1z M127.2,229.5c0-0.3,0.2-0.5,0.5-0.5l0,0c0.3,0,0.5,0.2,0.5,0.4l0,0c0,0.3-0.2,0.5-0.4,0.5
	l0,0c0,0,0,0,0,0l0,0C127.4,229.9,127.2,229.7,127.2,229.5z M103.7,229.8c-0.3,0-0.5-0.3-0.4-0.5l0,0c0-0.3,0.3-0.5,0.6-0.4l0,0
	c0.3,0,0.5,0.3,0.4,0.5l0,0C104.2,229.6,104,229.8,103.7,229.8L103.7,229.8C103.7,229.8,103.7,229.8,103.7,229.8z M130.2,229.1
	c0-0.3,0.2-0.5,0.4-0.6l0,0c0.3,0,0.5,0.2,0.6,0.4l0,0c0,0.3-0.2,0.5-0.4,0.6l0,0l0,0l0,0c0,0,0,0-0.1,0l0,0
	C130.4,229.6,130.2,229.4,130.2,229.1z M100.7,229.5L100.7,229.5L100.7,229.5c-0.3,0-0.5-0.3-0.4-0.6l0,0c0-0.3,0.3-0.5,0.6-0.4l0,0
	c0.3,0,0.5,0.3,0.4,0.6l0,0C101.2,229.3,101,229.5,100.7,229.5L100.7,229.5C100.7,229.5,100.7,229.5,100.7,229.5z M133.1,228.7
	c0-0.3,0.1-0.5,0.4-0.6l0,0c0.3,0,0.5,0.1,0.6,0.4l0,0c0,0.3-0.1,0.5-0.4,0.6l0,0c0,0,0,0-0.1,0l0,0
	C133.4,229.1,133.2,229,133.1,228.7z M97.7,229L97.7,229L97.7,229c-0.3,0-0.5-0.3-0.4-0.6l0,0c0-0.3,0.3-0.5,0.6-0.4l0,0
	c0.3,0,0.5,0.3,0.4,0.6l0,0C98.2,228.9,98,229,97.7,229L97.7,229C97.8,229,97.7,229,97.7,229z M136.1,228.2c0-0.3,0.1-0.5,0.4-0.6
	l0,0c0.3,0,0.5,0.1,0.6,0.4l0,0c0,0.3-0.1,0.5-0.4,0.6l0,0c0,0-0.1,0-0.1,0l0,0C136.3,228.6,136.1,228.5,136.1,228.2z M94.7,228.5
	c-0.3,0-0.4-0.3-0.4-0.6l0,0c0.1-0.3,0.3-0.5,0.6-0.4l0,0c0.3,0.1,0.5,0.3,0.4,0.6l0,0c-0.1,0.2-0.3,0.4-0.5,0.4l0,0
	C94.8,228.5,94.8,228.5,94.7,228.5z M139,227.7c-0.1-0.3,0.1-0.5,0.4-0.6l0,0c0.3-0.1,0.5,0.1,0.6,0.4l0,0c0.1,0.3-0.1,0.5-0.4,0.6
	l0,0c0,0-0.1,0-0.1,0l0,0C139.3,228.1,139.1,227.9,139,227.7z M91.8,227.9c-0.3-0.1-0.4-0.3-0.4-0.6l0,0c0.1-0.3,0.3-0.4,0.6-0.4
	l0,0c0.3,0.1,0.4,0.3,0.4,0.6l0,0c0,0.2-0.2,0.4-0.5,0.4l0,0C91.8,227.9,91.8,227.9,91.8,227.9z M142,227c-0.1-0.3,0.1-0.5,0.4-0.6
	l0,0c0.3-0.1,0.5,0.1,0.6,0.4l0,0c0.1,0.3-0.1,0.5-0.4,0.6l0,0c0,0-0.1,0-0.1,0l0,0C142.2,227.4,142,227.2,142,227z M88.8,227.2
	L88.8,227.2L88.8,227.2c-0.3-0.1-0.4-0.3-0.4-0.6l0,0c0.1-0.3,0.3-0.4,0.6-0.4l0,0c0.3,0.1,0.4,0.3,0.4,0.6l0,0
	c-0.1,0.2-0.3,0.4-0.5,0.4l0,0C88.9,227.3,88.9,227.2,88.8,227.2z M144.9,226.3c-0.1-0.3,0.1-0.5,0.3-0.6l0,0
	c0.3-0.1,0.5,0.1,0.6,0.4l0,0c0.1,0.3-0.1,0.5-0.4,0.6l0,0c0,0-0.1,0-0.1,0l0,0C145.1,226.7,144.9,226.5,144.9,226.3z M85.9,226.5
	L85.9,226.5L85.9,226.5c-0.3-0.1-0.4-0.4-0.4-0.6l0,0c0.1-0.3,0.4-0.4,0.6-0.4l0,0c0.3,0.1,0.4,0.4,0.4,0.6l0,0
	c-0.1,0.2-0.3,0.4-0.5,0.4l0,0C86,226.5,86,226.5,85.9,226.5z M147.8,225.5c-0.1-0.3,0.1-0.5,0.3-0.6l0,0c0.3-0.1,0.5,0.1,0.6,0.3
	l0,0c0.1,0.3-0.1,0.5-0.3,0.6l0,0c0,0-0.1,0-0.1,0l0,0C148,225.9,147.8,225.7,147.8,225.5z M83,225.7L83,225.7L83,225.7
	c-0.3-0.1-0.4-0.4-0.3-0.6l0,0c0.1-0.3,0.4-0.4,0.6-0.3l0,0c0.3,0.1,0.4,0.4,0.3,0.6l0,0c-0.1,0.2-0.3,0.4-0.5,0.4l0,0
	C83.1,225.7,83.1,225.7,83,225.7z M150.6,224.6c-0.1-0.3,0-0.5,0.3-0.6h0c0.3-0.1,0.6,0.1,0.6,0.3l0,0c0.1,0.3-0.1,0.5-0.3,0.6l0,0
	c-0.1,0-0.1,0-0.2,0l0,0C150.9,225,150.7,224.8,150.6,224.6z M80.1,224.8c-0.3-0.1-0.4-0.4-0.3-0.6l0,0c0.1-0.3,0.4-0.4,0.6-0.3l0,0
	c0.3,0.1,0.4,0.4,0.3,0.6l0,0c-0.1,0.2-0.3,0.3-0.5,0.3l0,0C80.2,224.8,80.2,224.8,80.1,224.8z M153.5,223.7c-0.1-0.3,0-0.5,0.3-0.6
	l0,0c0.3-0.1,0.5,0,0.6,0.3l0,0c0.1,0.3,0,0.5-0.3,0.6l0,0c-0.1,0-0.1,0-0.2,0l0,0C153.7,224,153.5,223.9,153.5,223.7z M77.3,223.8
	L77.3,223.8L77.3,223.8c-0.3-0.1-0.4-0.4-0.3-0.6l0,0c0.1-0.3,0.4-0.4,0.6-0.3v0c0.3,0.1,0.4,0.4,0.3,0.7l0,0
	c-0.1,0.2-0.3,0.3-0.5,0.3l0,0C77.4,223.8,77.3,223.8,77.3,223.8z M156.3,222.6c-0.1-0.3,0-0.5,0.3-0.6l0,0c0.3-0.1,0.6,0,0.7,0.3
	l0,0c0.1,0.3,0,0.5-0.3,0.6l0,0c-0.1,0-0.1,0-0.2,0l0,0C156.6,223,156.4,222.8,156.3,222.6z M74.5,222.7c-0.3-0.1-0.4-0.4-0.3-0.6
	l0,0c0.1-0.2,0.4-0.4,0.6-0.3l0,0c0.3,0.1,0.4,0.4,0.3,0.7l0,0c-0.1,0.2-0.3,0.3-0.5,0.3l0,0C74.6,222.7,74.5,222.7,74.5,222.7z
	 M159.1,221.5c-0.1-0.2,0-0.5,0.3-0.7l0,0c0.2-0.1,0.5,0,0.7,0.3l0,0c0.1,0.2,0,0.5-0.3,0.6l0,0c-0.1,0-0.1,0-0.2,0l0,0
	C159.3,221.8,159.2,221.7,159.1,221.5z M71.7,221.5c-0.3-0.1-0.4-0.4-0.3-0.7l0,0c0.1-0.3,0.4-0.4,0.7-0.3l0,0
	c0.2,0.1,0.4,0.4,0.3,0.7l0,0c-0.1,0.2-0.3,0.3-0.5,0.3l0,0C71.8,221.6,71.7,221.6,71.7,221.5z M161.8,220.4c-0.1-0.2,0-0.6,0.2-0.7
	l0,0c0.2-0.1,0.6,0,0.7,0.2l0,0c0.1,0.3,0,0.5-0.2,0.7l0,0c0,0,0,0,0,0l0,0c-0.1,0-0.1,0-0.2,0l0,0
	C162.1,220.7,161.9,220.6,161.8,220.4z M68.9,220.3c-0.2-0.1-0.4-0.4-0.2-0.7l0,0c0.1-0.2,0.4-0.4,0.7-0.2l0,0
	c0.2,0.1,0.4,0.4,0.2,0.7l0,0c-0.1,0.2-0.3,0.3-0.5,0.3l0,0C69,220.4,69,220.4,68.9,220.3z M164.5,219.1c-0.1-0.2,0-0.5,0.2-0.7l0,0
	c0.2-0.1,0.5,0,0.7,0.2l0,0c0.1,0.2,0,0.5-0.2,0.7l0,0l0,0l0,0c-0.1,0-0.1,0.1-0.2,0.1l0,0C164.8,219.4,164.6,219.3,164.5,219.1z
	 M66.2,219.1L66.2,219.1L66.2,219.1c-0.2-0.1-0.3-0.4-0.2-0.7l0,0c0.1-0.2,0.4-0.3,0.7-0.2v0c0.2,0.1,0.4,0.4,0.2,0.7l0,0
	c-0.1,0.2-0.3,0.3-0.4,0.3l0,0C66.3,219.1,66.2,219.1,66.2,219.1z M167.2,217.8c-0.1-0.2,0-0.5,0.2-0.7l0,0c0.2-0.1,0.5,0,0.7,0.2
	l0,0c0.1,0.2,0,0.5-0.2,0.7l0,0l0,0l0,0c-0.1,0-0.2,0-0.2,0l0,0C167.5,218.1,167.3,218,167.2,217.8z M63.5,217.7
	c-0.2-0.1-0.3-0.4-0.2-0.7l0,0c0.1-0.2,0.4-0.3,0.7-0.2l0,0c0.2,0.1,0.4,0.4,0.2,0.7l0,0c-0.1,0.2-0.3,0.3-0.4,0.3l0,0
	C63.6,217.8,63.5,217.7,63.5,217.7z M169.9,216.4c-0.1-0.2,0-0.5,0.2-0.7l0,0c0.2-0.1,0.6,0,0.7,0.2l0,0c0.1,0.2,0,0.5-0.2,0.7l0,0
	c-0.1,0-0.2,0.1-0.2,0.1l0,0C170.1,216.7,170,216.6,169.9,216.4z M60.8,216.3c-0.2-0.1-0.3-0.4-0.2-0.7l0,0c0.1-0.2,0.4-0.3,0.7-0.2
	l0,0c0.2,0.1,0.3,0.4,0.2,0.7l0,0c-0.1,0.2-0.3,0.3-0.4,0.3l0,0C61,216.3,60.9,216.3,60.8,216.3z M172.5,215
	c-0.1-0.2-0.1-0.5,0.2-0.7l0,0c0.2-0.1,0.5-0.1,0.7,0.2l0,0c0.1,0.2,0.1,0.5-0.2,0.7l0,0c-0.1,0-0.2,0.1-0.2,0.1l0,0
	C172.8,215.2,172.6,215.1,172.5,215z M58.2,214.8c-0.2-0.1-0.3-0.5-0.2-0.7l0,0c0.1-0.2,0.4-0.3,0.7-0.2l0,0
	c0.2,0.1,0.3,0.4,0.2,0.7l0,0c-0.1,0.2-0.3,0.2-0.4,0.2l0,0C58.4,214.8,58.3,214.8,58.2,214.8z M175.1,213.4
	c-0.1-0.2-0.1-0.5,0.2-0.7l0,0c0.2-0.1,0.5-0.1,0.7,0.2l0,0c0.1,0.2,0.1,0.5-0.2,0.7l0,0c0,0,0,0,0,0l0,0c-0.1,0.1-0.2,0.1-0.3,0.1
	l0,0C175.3,213.7,175.2,213.6,175.1,213.4z M55.6,213.2c-0.2-0.1-0.3-0.5-0.1-0.7l0,0c0.1-0.2,0.5-0.3,0.7-0.2l0,0
	c0.2,0.1,0.3,0.5,0.2,0.7l0,0c-0.1,0.2-0.2,0.2-0.4,0.2l0,0C55.8,213.3,55.7,213.3,55.6,213.2z M177.6,211.8
	c-0.1-0.2-0.1-0.5,0.1-0.7v0c0.2-0.1,0.5-0.1,0.7,0.2l0,0c0.2,0.2,0.1,0.5-0.1,0.7l0,0c-0.1,0.1-0.2,0.1-0.3,0.1l0,0
	C177.9,212.1,177.7,212,177.6,211.8z M53.1,211.6c-0.2-0.1-0.3-0.5-0.1-0.7l0,0c0.1-0.2,0.5-0.3,0.7-0.1l0,0
	c0.2,0.1,0.3,0.5,0.1,0.7l0,0c-0.1,0.2-0.2,0.2-0.4,0.2l0,0C53.3,211.6,53.2,211.6,53.1,211.6z M180.1,210.2
	c-0.2-0.2-0.1-0.5,0.1-0.7l0,0c0.2-0.2,0.5-0.1,0.7,0.1l0,0c0.2,0.2,0.1,0.5-0.1,0.7l0,0c-0.1,0.1-0.2,0.1-0.3,0.1l0,0
	C180.3,210.4,180.2,210.3,180.1,210.2z M50.6,209.9c-0.2-0.2-0.3-0.5-0.1-0.7l0,0c0.1-0.2,0.5-0.3,0.7-0.1l0,0
	c0.2,0.2,0.3,0.5,0.1,0.7l0,0c-0.1,0.1-0.2,0.2-0.4,0.2l0,0C50.8,210,50.7,209.9,50.6,209.9z M182.5,208.5c-0.2-0.2-0.1-0.5,0.1-0.7
	l0,0c0.2-0.2,0.5-0.1,0.7,0.1l0,0c0.2,0.2,0.1,0.5-0.1,0.7l0,0l0,0l0,0c-0.1,0.1-0.2,0.1-0.3,0.1l0,0
	C182.8,208.7,182.6,208.6,182.5,208.5z M48.1,208.1c-0.2-0.2-0.3-0.5-0.1-0.7l0,0c0.2-0.2,0.5-0.3,0.7-0.1l0,0
	c0.2,0.2,0.3,0.5,0.1,0.7l0,0c-0.1,0.1-0.2,0.2-0.4,0.2l0,0C48.3,208.2,48.2,208.2,48.1,208.1z M184.9,206.7
	c-0.2-0.2-0.1-0.5,0.1-0.7l0,0c0.2-0.2,0.5-0.1,0.7,0.1l0,0c0.2,0.2,0.1,0.5-0.1,0.7l0,0l0,0l0,0c-0.1,0.1-0.2,0.1-0.3,0.1l0,0
	C185.2,206.9,185,206.8,184.9,206.7z M45.7,206.3c-0.2-0.2-0.3-0.5-0.1-0.7l0,0c0.2-0.2,0.5-0.3,0.7-0.1l0,0
	c0.2,0.2,0.3,0.5,0.1,0.7l0,0c-0.1,0.1-0.2,0.2-0.4,0.2l0,0C45.9,206.4,45.8,206.3,45.7,206.3z M187.3,204.8
	c-0.2-0.2-0.1-0.5,0.1-0.7l0,0c0.2-0.2,0.5-0.2,0.7,0.1l0,0c0.2,0.2,0.1,0.5-0.1,0.7l0,0l0,0l0,0c-0.1,0.1-0.2,0.1-0.3,0.1l0,0
	C187.5,205,187.4,204.9,187.3,204.8z M43.4,204.4L43.4,204.4L43.4,204.4c-0.2-0.2-0.2-0.5-0.1-0.7l0,0c0.2-0.2,0.5-0.2,0.7-0.1l0,0
	c0.2,0.2,0.2,0.5,0.1,0.7l0,0c-0.1,0.1-0.2,0.2-0.4,0.2l0,0C43.6,204.5,43.5,204.5,43.4,204.4z M189.6,202.9c-0.2-0.2-0.2-0.5,0-0.7
	l0,0c0.2-0.2,0.5-0.2,0.7,0l0,0c0.2,0.2,0.2,0.5,0,0.7l0,0c-0.1,0.1-0.2,0.1-0.3,0.1l0,0C189.8,203.1,189.7,203,189.6,202.9z
	 M41.1,202.4L41.1,202.4L41.1,202.4c-0.2-0.2-0.2-0.5,0-0.7l0,0c0.2-0.2,0.5-0.2,0.7,0l0,0c0.2,0.2,0.2,0.5,0,0.7l0,0
	c-0.1,0.1-0.2,0.2-0.4,0.2l0,0C41.3,202.6,41.2,202.5,41.1,202.4z M191.9,200.9c-0.2-0.2-0.2-0.5,0-0.7l0,0c0.2-0.2,0.5-0.2,0.7,0
	l0,0c0.2,0.2,0.2,0.5,0,0.7l0,0c-0.1,0.1-0.2,0.1-0.3,0.1l0,0C192.1,201.1,192,201,191.9,200.9z M38.9,200.4c-0.2-0.2-0.2-0.5,0-0.7
	l0,0c0.2-0.2,0.5-0.2,0.7,0l0,0c0.2,0.2,0.2,0.5,0,0.7l0,0c-0.1,0.1-0.2,0.2-0.4,0.2l0,0C39.1,200.6,38.9,200.5,38.9,200.4z
	 M194.1,198.9c-0.2-0.2-0.2-0.5,0-0.7l0,0c0.2-0.2,0.5-0.2,0.7,0l0,0c0.2,0.2,0.2,0.5,0,0.7l0,0c-0.1,0.1-0.2,0.1-0.3,0.1l0,0
	C194.3,199,194.2,199,194.1,198.9z M36.7,198.4L36.7,198.4L36.7,198.4c-0.2-0.2-0.2-0.5,0-0.7l0,0c0.2-0.2,0.5-0.2,0.7,0l0,0
	c0.2,0.2,0.2,0.5,0,0.7l0,0c-0.1,0.1-0.2,0.2-0.4,0.2l0,0C36.9,198.5,36.8,198.5,36.7,198.4z M196.2,196.8c-0.2-0.2-0.2-0.5,0-0.7
	l0,0c0.2-0.2,0.5-0.2,0.7,0l0,0c0.2,0.2,0.2,0.5,0,0.7l0,0l0,0l0,0c-0.1,0.1-0.2,0.2-0.4,0.2l0,0C196.4,197,196.3,196.9,196.2,196.8
	z M34.5,196.2c-0.2-0.2-0.2-0.5,0-0.7l0,0c0.2-0.2,0.5-0.2,0.7,0l0,0c0.2,0.2,0.2,0.5,0,0.7l0,0c-0.1,0.1-0.2,0.1-0.4,0.1l0,0
	C34.8,196.4,34.6,196.3,34.5,196.2z M198.3,194.7c-0.2-0.2-0.2-0.5,0-0.7l0,0c0.2-0.2,0.5-0.2,0.7,0l0,0c0.2,0.2,0.2,0.5,0,0.7l0,0
	c-0.1,0.1-0.2,0.2-0.4,0.2l0,0C198.5,194.8,198.4,194.8,198.3,194.7z M32.4,194.1C32.4,194.1,32.4,194.1,32.4,194.1L32.4,194.1
	c-0.2-0.2-0.2-0.5,0-0.7l0,0c0.2-0.2,0.5-0.2,0.7,0l0,0c0.2,0.2,0.2,0.5,0,0.7l0,0c-0.1,0.1-0.2,0.1-0.3,0.1l0,0
	C32.7,194.2,32.5,194.2,32.4,194.1z M200.3,192.5c-0.2-0.2-0.2-0.5,0-0.7l0,0c0.2-0.2,0.5-0.2,0.7,0l0,0c0.2,0.2,0.2,0.5,0,0.7l0,0
	c-0.1,0.1-0.2,0.2-0.4,0.2l0,0C200.6,192.6,200.4,192.5,200.3,192.5z M30.4,191.8c-0.2-0.2-0.2-0.5,0-0.7l0,0
	c0.2-0.2,0.5-0.2,0.7,0.1l0,0c0.2,0.2,0.2,0.5,0,0.7l0,0c-0.1,0.1-0.2,0.1-0.3,0.1l0,0C30.7,192,30.5,191.9,30.4,191.8z
	 M202.3,190.2c-0.2-0.2-0.2-0.5-0.1-0.7l0,0c0.2-0.2,0.5-0.2,0.7-0.1l0,0c0.2,0.2,0.2,0.5,0,0.7l0,0c0,0,0,0,0,0l0,0
	c-0.1,0.1-0.2,0.2-0.4,0.2l0,0C202.5,190.3,202.4,190.3,202.3,190.2z M28.5,189.5c-0.2-0.2-0.1-0.5,0.1-0.7l0,0
	c0.2-0.2,0.5-0.2,0.7,0.1l0,0c0.2,0.2,0.1,0.5-0.1,0.7l0,0c-0.1,0.1-0.2,0.1-0.3,0.1l0,0C28.7,189.7,28.6,189.6,28.5,189.5z
	 M204.2,187.9c-0.2-0.2-0.2-0.5-0.1-0.7l0,0c0.2-0.2,0.5-0.2,0.7-0.1l0,0c0.2,0.2,0.2,0.5,0.1,0.7l0,0l0,0l0,0
	c-0.1,0.1-0.2,0.2-0.4,0.2l0,0C204.4,188,204.3,188,204.2,187.9z M26.6,187.2L26.6,187.2L26.6,187.2c-0.2-0.2-0.1-0.5,0.1-0.7l0,0
	c0.2-0.2,0.5-0.1,0.7,0.1l0,0c0.2,0.2,0.1,0.5-0.1,0.7l0,0c-0.1,0.1-0.2,0.1-0.3,0.1l0,0C26.8,187.4,26.7,187.3,26.6,187.2z
	 M206.1,185.5c-0.2-0.2-0.3-0.5-0.1-0.7l0,0c0.2-0.2,0.5-0.3,0.7-0.1l0,0c0.2,0.2,0.3,0.5,0.1,0.7l0,0c-0.1,0.1-0.2,0.2-0.4,0.2l0,0
	C206.3,185.6,206.2,185.6,206.1,185.5z M24.7,184.8c-0.2-0.2-0.1-0.5,0.1-0.7l0,0c0.2-0.2,0.5-0.1,0.7,0.1l0,0
	c0.2,0.2,0.1,0.5-0.1,0.7l0,0c-0.1,0.1-0.2,0.1-0.3,0.1l0,0C25,185,24.8,185,24.7,184.8z M207.9,183.1c-0.2-0.2-0.3-0.5-0.1-0.7l0,0
	c0.2-0.2,0.5-0.3,0.7-0.1l0,0c0.2,0.2,0.3,0.5,0.1,0.7l0,0c-0.1,0.1-0.2,0.2-0.4,0.2l0,0C208.1,183.2,208,183.2,207.9,183.1z
	 M23,182.4c-0.2-0.2-0.1-0.5,0.1-0.7l0,0c0.2-0.2,0.5-0.1,0.7,0.1l0,0c0.2,0.2,0.1,0.5-0.1,0.7l0,0c-0.1,0.1-0.2,0.1-0.3,0.1l0,0
	C23.2,182.6,23.1,182.5,23,182.4z M209.6,180.7c-0.2-0.2-0.3-0.5-0.1-0.7l0,0c0.2-0.2,0.5-0.3,0.7-0.1l0,0c0.2,0.2,0.3,0.5,0.1,0.7
	l0,0c-0.1,0.1-0.2,0.2-0.4,0.2l0,0C209.8,180.8,209.7,180.7,209.6,180.7z M21.3,179.9c-0.2-0.2-0.1-0.5,0.1-0.7l0,0
	c0.2-0.2,0.5-0.1,0.7,0.1l0,0c0.2,0.2,0.1,0.5-0.1,0.7l0,0c-0.1,0-0.2,0.1-0.3,0.1l0,0C21.5,180.1,21.3,180,21.3,179.9z
	 M211.3,178.2c-0.2-0.1-0.3-0.5-0.2-0.7l0,0c0.2-0.2,0.5-0.3,0.7-0.2l0,0c0.2,0.2,0.3,0.5,0.1,0.7l0,0c-0.1,0.1-0.2,0.2-0.4,0.2l0,0
	C211.5,178.3,211.4,178.2,211.3,178.2z M19.6,177.4c-0.1-0.2-0.1-0.5,0.1-0.7l0,0c0.2-0.2,0.5-0.1,0.7,0.1l0,0
	c0.1,0.2,0.1,0.5-0.1,0.7l0,0c-0.1,0.1-0.2,0.1-0.3,0.1l0,0C19.9,177.6,19.7,177.5,19.6,177.4z M212.9,175.6
	c-0.2-0.1-0.3-0.5-0.2-0.7l0,0c0.1-0.2,0.5-0.3,0.7-0.2l0,0c0.2,0.1,0.3,0.4,0.2,0.7l0,0c-0.1,0.2-0.3,0.2-0.4,0.2l0,0
	C213.1,175.7,213,175.7,212.9,175.6z M18,174.8L18,174.8L18,174.8c-0.1-0.2-0.1-0.5,0.2-0.7l0,0c0.2-0.1,0.6-0.1,0.7,0.2l0,0
	c0.1,0.2,0.1,0.5-0.2,0.7l0,0c-0.1,0-0.2,0.1-0.3,0.1l0,0C18.3,175.1,18.1,175,18,174.8z M214.4,173.1c-0.2-0.1-0.3-0.5-0.2-0.7v0
	c0.1-0.2,0.4-0.3,0.7-0.2l0,0c0.2,0.1,0.3,0.4,0.2,0.7l0,0l0,0l0,0c-0.1,0.2-0.3,0.2-0.4,0.2l0,0
	C214.6,173.1,214.5,173.1,214.4,173.1z M16.5,172.2c-0.1-0.2-0.1-0.5,0.2-0.7l0,0c0.2-0.1,0.5,0,0.7,0.2l0,0c0.1,0.2,0,0.6-0.2,0.7
	l0,0c-0.1,0-0.2,0.1-0.2,0.1l0,0C16.8,172.5,16.6,172.4,16.5,172.2z M215.9,170.4c-0.2-0.1-0.3-0.4-0.2-0.7l0,0
	c0.1-0.2,0.4-0.3,0.7-0.2l0,0c0.2,0.1,0.3,0.4,0.2,0.7l0,0c-0.1,0.2-0.3,0.3-0.4,0.3l0,0C216.1,170.5,216,170.5,215.9,170.4z
	 M15.1,169.6C15.1,169.6,15.1,169.6,15.1,169.6L15.1,169.6c-0.1-0.2,0-0.5,0.2-0.7l0,0c0.2-0.1,0.5,0,0.7,0.2l0,0
	c0.1,0.2,0,0.5-0.2,0.7l0,0c-0.1,0-0.2,0.1-0.2,0.1l0,0C15.4,169.8,15.2,169.8,15.1,169.6z M217.3,167.8c-0.2-0.1-0.4-0.4-0.2-0.7
	l0,0c0.1-0.2,0.4-0.3,0.7-0.2l0,0c0.2,0.1,0.3,0.4,0.2,0.7l0,0l0,0l0,0c-0.1,0.2-0.3,0.3-0.5,0.3l0,0
	C217.4,167.8,217.4,167.8,217.3,167.8z M13.7,166.9c-0.1-0.2,0-0.6,0.2-0.7l0,0c0.2-0.1,0.6,0,0.7,0.2l0,0c0.1,0.2,0,0.5-0.2,0.7
	l0,0c-0.1,0-0.1,0-0.2,0l0,0C14,167.2,13.8,167.1,13.7,166.9z M218.6,165.1c-0.2-0.1-0.4-0.4-0.2-0.7l0,0c0.1-0.2,0.4-0.4,0.7-0.2
	l0,0c0.2,0.1,0.3,0.4,0.2,0.7l0,0l0,0l0,0c-0.1,0.2-0.3,0.3-0.5,0.3l0,0C218.8,165.1,218.7,165.1,218.6,165.1z M12.4,164.2
	c-0.1-0.2,0-0.6,0.2-0.7l0,0c0.2-0.1,0.5,0,0.7,0.2h0c0.1,0.2,0,0.5-0.2,0.7l0,0c-0.1,0-0.1,0.1-0.2,0.1l0,0
	C12.7,164.5,12.5,164.4,12.4,164.2z M219.9,162.3c-0.2-0.1-0.4-0.4-0.3-0.7l0,0c0.1-0.2,0.4-0.4,0.7-0.3l0,0
	c0.3,0.1,0.4,0.4,0.3,0.7l0,0c-0.1,0.2-0.3,0.3-0.5,0.3l0,0C220,162.4,219.9,162.4,219.9,162.3z M11.2,161.5
	C11.2,161.5,11.2,161.5,11.2,161.5L11.2,161.5c-0.1-0.2,0-0.5,0.3-0.7l0,0c0.2-0.1,0.6,0,0.7,0.3l0,0c0.1,0.2,0,0.5-0.3,0.7l0,0
	c-0.1,0-0.1,0-0.2,0l0,0C11.5,161.8,11.3,161.6,11.2,161.5z M221,159.6c-0.2-0.1-0.4-0.4-0.3-0.6l0,0c0.1-0.3,0.4-0.4,0.7-0.3l0,0
	c0.2,0.1,0.4,0.4,0.3,0.7l0,0l0,0l0,0c-0.1,0.2-0.3,0.3-0.5,0.3l0,0C221.2,159.6,221.1,159.6,221,159.6z M10.1,158.7L10.1,158.7
	L10.1,158.7c-0.1-0.3,0-0.5,0.3-0.6l0,0c0.2-0.1,0.5,0,0.6,0.3l0,0c0.1,0.3,0,0.5-0.3,0.7l0,0c-0.1,0-0.1,0-0.2,0l0,0
	C10.3,159,10.1,158.9,10.1,158.7z M222.2,156.8c-0.3-0.1-0.4-0.4-0.3-0.6h0c0.1-0.3,0.4-0.4,0.6-0.3l0,0c0.3,0.1,0.4,0.4,0.3,0.6
	l0,0l0,0l0,0c-0.1,0.2-0.3,0.3-0.5,0.3l0,0C222.3,156.8,222.2,156.8,222.2,156.8z M9,155.9L9,155.9L9,155.9c-0.1-0.3,0-0.6,0.3-0.6
	l0,0c0.2-0.1,0.5,0,0.6,0.3l0,0c0.1,0.3,0,0.5-0.3,0.6l0,0c-0.1,0-0.1,0-0.2,0l0,0C9.3,156.2,9.1,156.1,9,155.9z M223.2,154
	c-0.3-0.1-0.4-0.4-0.3-0.6l0,0c0.1-0.3,0.4-0.4,0.6-0.3l0,0c0.3,0.1,0.4,0.4,0.3,0.6l0,0l0,0l0,0c-0.1,0.2-0.3,0.3-0.5,0.3l0,0
	C223.3,154,223.2,154,223.2,154z M8,153C8,153,8,153,8,153L8,153c-0.1-0.3,0-0.6,0.3-0.6l0,0c0.3-0.1,0.5,0.1,0.6,0.3l0,0
	c0.1,0.3-0.1,0.5-0.3,0.6l0,0c0,0-0.1,0-0.2,0l0,0C8.2,153.4,8.1,153.2,8,153z M224.1,151.1c-0.3-0.1-0.4-0.4-0.3-0.6l0,0
	c0.1-0.3,0.4-0.4,0.6-0.3l0,0c0.3,0.1,0.4,0.4,0.3,0.6l0,0c0,0,0,0,0,0l0,0c-0.1,0.2-0.3,0.4-0.5,0.4l0,0
	C224.2,151.1,224.2,151.1,224.1,151.1z M7.1,150.2L7.1,150.2L7.1,150.2c-0.1-0.3,0.1-0.6,0.3-0.6l0,0c0.3-0.1,0.5,0.1,0.6,0.3l0,0
	c0.1,0.3-0.1,0.5-0.3,0.6l0,0c0,0-0.1,0-0.1,0l0,0C7.3,150.5,7.1,150.4,7.1,150.2z M225,148.2c-0.3-0.1-0.4-0.4-0.3-0.6h0
	c0.1-0.3,0.3-0.4,0.6-0.3l0,0c0.3,0.1,0.4,0.3,0.3,0.6l0,0l0,0l0,0c-0.1,0.2-0.3,0.4-0.5,0.4l0,0C225.1,148.2,225.1,148.2,225,148.2
	z M6.2,147.3c-0.1-0.3,0.1-0.5,0.4-0.6l0,0c0.3-0.1,0.5,0.1,0.6,0.4l0,0c0.1,0.3-0.1,0.5-0.4,0.6l0,0c0,0-0.1,0-0.1,0l0,0
	C6.5,147.6,6.3,147.5,6.2,147.3z M225.8,145.3c-0.3-0.1-0.4-0.3-0.4-0.6v0c0.1-0.3,0.3-0.4,0.6-0.4l0,0c0.3,0.1,0.4,0.3,0.4,0.6l0,0
	c-0.1,0.2-0.3,0.4-0.5,0.4l0,0C225.9,145.3,225.9,145.3,225.8,145.3z M5.4,144.4c-0.1-0.3,0.1-0.5,0.4-0.6l0,0
	c0.3-0.1,0.5,0.1,0.6,0.4l0,0c0.1,0.3-0.1,0.5-0.4,0.6l0,0c-0.1,0-0.1,0-0.1,0l0,0C5.7,144.7,5.5,144.6,5.4,144.4z M226.5,142.4
	c-0.3-0.1-0.4-0.3-0.4-0.6l0,0c0.1-0.3,0.3-0.4,0.6-0.4l0,0c0.3,0.1,0.4,0.3,0.4,0.6l0,0c-0.1,0.2-0.3,0.4-0.5,0.4l0,0
	C226.6,142.4,226.6,142.4,226.5,142.4z M4.7,141.4c-0.1-0.3,0.1-0.5,0.4-0.6l0,0c0.3-0.1,0.5,0.1,0.6,0.4l0,0
	c0.1,0.3-0.1,0.5-0.4,0.6l0,0c0,0-0.1,0-0.1,0l0,0C5,141.8,4.8,141.7,4.7,141.4z M227.2,139.5c-0.3-0.1-0.4-0.3-0.4-0.6l0,0
	c0-0.3,0.3-0.4,0.6-0.4l0,0c0.3,0,0.4,0.3,0.4,0.6l0,0C227.7,139.3,227.5,139.5,227.2,139.5L227.2,139.5
	C227.2,139.5,227.2,139.5,227.2,139.5z M4.1,138.5c-0.1-0.3,0.1-0.5,0.4-0.6l0,0c0.3,0,0.5,0.1,0.6,0.4l0,0c0.1,0.3-0.1,0.5-0.4,0.6
	l0,0c0,0-0.1,0-0.1,0l0,0C4.4,138.9,4.2,138.7,4.1,138.5z M227.7,136.5c-0.3,0-0.5-0.3-0.4-0.6l0,0c0-0.3,0.3-0.5,0.6-0.4l0,0
	c0.3,0,0.4,0.3,0.4,0.6l0,0l0,0l0,0C228.3,136.4,228.1,136.5,227.7,136.5L227.7,136.5C227.8,136.5,227.8,136.5,227.7,136.5z
	 M3.6,135.5c0-0.3,0.1-0.5,0.4-0.6l0,0c0.3,0,0.5,0.1,0.6,0.4l0,0c0,0.3-0.1,0.5-0.4,0.6l0,0c0,0-0.1,0-0.1,0l0,0
	C3.8,135.9,3.6,135.8,3.6,135.5z M228.2,133.6c-0.3,0-0.5-0.3-0.4-0.6l0,0c0-0.3,0.3-0.5,0.6-0.4l0,0c0.3,0,0.5,0.3,0.4,0.6l0,0
	C228.8,133.4,228.5,133.6,228.2,133.6L228.2,133.6C228.3,133.6,228.3,133.6,228.2,133.6z M3.1,132.5c0-0.3,0.2-0.5,0.4-0.6l0,0
	c0.3,0,0.5,0.2,0.6,0.4l0,0c0,0.3-0.1,0.5-0.4,0.6l0,0c0,0,0,0-0.1,0l0,0C3.4,133,3.2,132.8,3.1,132.5z M228.6,130.6
	c-0.3,0-0.5-0.3-0.4-0.5l0,0c0-0.3,0.3-0.5,0.6-0.4l0,0c0.3,0,0.5,0.3,0.4,0.6l0,0l0,0l0,0C229.2,130.4,228.9,130.6,228.6,130.6
	L228.6,130.6C228.7,130.6,228.7,130.6,228.6,130.6z M2.7,129.5c0-0.3,0.2-0.5,0.4-0.5l0,0c0.3,0,0.5,0.2,0.6,0.4l0,0
	c0,0.3-0.2,0.5-0.4,0.6l0,0c0,0,0,0-0.1,0l0,0C3,130,2.8,129.8,2.7,129.5z M229,127.6c-0.3,0-0.5-0.3-0.5-0.5l0,0
	c0-0.3,0.3-0.5,0.5-0.5l0,0c0.3,0,0.5,0.3,0.5,0.5l0,0l0,0l0,0C229.5,127.4,229.3,127.6,229,127.6L229,127.6
	C229,127.6,229,127.6,229,127.6z M2.4,126.5c0-0.3,0.2-0.5,0.4-0.5l0,0c0.3,0,0.5,0.2,0.5,0.5l0,0c0,0.3-0.2,0.5-0.4,0.5l0,0
	c0,0,0,0,0,0l0,0C2.7,127,2.5,126.8,2.4,126.5z M229.2,124.6c-0.3,0-0.5-0.3-0.5-0.5l0,0c0-0.3,0.2-0.5,0.5-0.5l0,0
	c0.3,0,0.5,0.2,0.5,0.5l0,0C229.7,124.4,229.5,124.6,229.2,124.6L229.2,124.6C229.2,124.6,229.2,124.6,229.2,124.6z M2.2,123.5
	c0-0.3,0.2-0.5,0.5-0.5l0,0c0.3,0,0.5,0.2,0.5,0.5l0,0c0,0.3-0.2,0.5-0.5,0.5l0,0c0,0,0,0,0,0l0,0C2.5,124,2.2,123.8,2.2,123.5z
	 M229.4,121.6c-0.3,0-0.5-0.2-0.5-0.5l0,0c0-0.3,0.2-0.5,0.5-0.5l0,0c0.3,0,0.5,0.2,0.5,0.5l0,0
	C229.9,121.4,229.7,121.6,229.4,121.6L229.4,121.6L229.4,121.6z M2.1,120.5L2.1,120.5L2.1,120.5c0-0.3,0.2-0.5,0.5-0.5l0,0
	c0.3,0,0.5,0.2,0.5,0.5l0,0c0,0.3-0.2,0.5-0.5,0.5l0,0c0,0,0,0,0,0l0,0C2.3,121,2.1,120.8,2.1,120.5z M229.5,118.6
	c-0.3,0-0.5-0.2-0.5-0.5l0,0c0-0.3,0.2-0.5,0.5-0.5l0,0c0.3,0,0.5,0.2,0.5,0.5l0,0C230,118.4,229.8,118.6,229.5,118.6L229.5,118.6
	L229.5,118.6z M230,118.2L230,118.2L230,118.2L230,118.2L230,118.2L230,118.2z M2,117.5c0-0.3,0.2-0.5,0.5-0.5l0,0
	c0.3,0,0.5,0.2,0.5,0.5l0,0c0,0.3-0.2,0.5-0.5,0.5l0,0c0,0,0,0,0,0l0,0C2.2,118,2,117.8,2,117.5z M229,115.2c0-0.3,0.2-0.5,0.5-0.5
	l0,0c0.3,0,0.5,0.2,0.5,0.5l0,0l0,0l0,0c0,0.3-0.2,0.5-0.5,0.5l0,0c0,0,0,0,0,0l0,0C229.2,115.6,229,115.4,229,115.2z M2.5,115
	c-0.3,0-0.5-0.2-0.5-0.5l0,0c0-0.3,0.2-0.5,0.5-0.5l0,0c0.3,0,0.5,0.2,0.5,0.5l0,0C3,114.8,2.8,115,2.5,115L2.5,115
	C2.5,115,2.5,115,2.5,115z M228.9,112.2c0-0.3,0.2-0.5,0.5-0.5l0,0c0.3,0,0.5,0.2,0.5,0.5l0,0c0,0.3-0.2,0.5-0.5,0.5l0,0
	c0,0,0,0,0,0l0,0C229.2,112.7,228.9,112.4,228.9,112.2z M2.6,112c-0.3,0-0.5-0.2-0.5-0.5l0,0c0-0.3,0.2-0.5,0.5-0.5l0,0
	c0.3,0,0.5,0.2,0.5,0.5l0,0C3.1,111.8,2.9,112,2.6,112L2.6,112L2.6,112z M228.8,109.2L228.8,109.2c0-0.3,0.2-0.5,0.5-0.5l0,0
	c0.3,0,0.5,0.2,0.5,0.5l0,0c0,0.3-0.2,0.5-0.5,0.5l0,0c0,0,0,0,0,0l0,0C229,109.7,228.8,109.5,228.8,109.2z M2.7,109
	c-0.3,0-0.5-0.2-0.5-0.5l0,0c0-0.3,0.2-0.5,0.5-0.5l0,0c0.3,0,0.5,0.2,0.5,0.5l0,0C3.3,108.8,3,109,2.7,109L2.7,109
	C2.8,109,2.8,109,2.7,109z M228.5,106.2c0-0.3,0.2-0.5,0.5-0.5l0,0c0.3,0,0.5,0.2,0.5,0.5l0,0c0,0.3-0.2,0.5-0.5,0.5l0,0
	c0,0,0,0,0,0l0,0C228.8,106.7,228.6,106.5,228.5,106.2z M3,106c-0.3,0-0.5-0.3-0.5-0.5l0,0l0,0l0,0c0-0.3,0.3-0.5,0.5-0.5l0,0
	c0.3,0,0.5,0.3,0.5,0.5l0,0C3.5,105.8,3.3,106,3,106L3,106C3,106,3,106,3,106z M228.2,103.2L228.2,103.2c0-0.3,0.2-0.5,0.4-0.6l0,0
	c0.3,0,0.5,0.2,0.5,0.4l0,0c0,0.3-0.2,0.5-0.4,0.6l0,0c0,0,0,0-0.1,0l0,0C228.5,103.7,228.3,103.5,228.2,103.2z M3.3,103.1
	c-0.3,0-0.5-0.3-0.4-0.6l0,0l0,0l0,0c0-0.3,0.3-0.5,0.6-0.4l0,0c0.3,0,0.5,0.3,0.4,0.5l0,0C3.8,102.9,3.6,103.1,3.3,103.1L3.3,103.1
	C3.3,103.1,3.3,103.1,3.3,103.1z M227.9,100.3L227.9,100.3c0-0.3,0.1-0.5,0.4-0.6l0,0c0.3,0,0.5,0.1,0.6,0.4l0,0c0,0,0,0,0,0l0,0
	c0,0.3-0.1,0.5-0.4,0.6l0,0c0,0-0.1,0-0.1,0l0,0C228.1,100.7,227.9,100.5,227.9,100.3z M3.7,100.1c-0.3,0-0.5-0.3-0.4-0.6l0,0l0,0
	l0,0c0-0.3,0.3-0.5,0.6-0.4l0,0c0.3,0,0.5,0.3,0.4,0.6v0C4.2,99.9,4,100.1,3.7,100.1L3.7,100.1C3.7,100.1,3.7,100.1,3.7,100.1z
	 M227.4,97.3L227.4,97.3c0-0.3,0.1-0.5,0.4-0.6l0,0c0.3,0,0.5,0.1,0.6,0.4l0,0l0,0l0,0c0,0.3-0.1,0.5-0.4,0.6l0,0c0,0-0.1,0-0.1,0
	l0,0C227.6,97.8,227.4,97.6,227.4,97.3z M4.2,97.1c-0.3,0-0.5-0.3-0.4-0.6l0,0c0.1-0.3,0.3-0.5,0.6-0.4l0,0c0.3,0.1,0.5,0.3,0.4,0.6
	l0,0C4.7,97,4.5,97.1,4.2,97.1L4.2,97.1C4.2,97.1,4.2,97.1,4.2,97.1z M226.8,94.4c0-0.3,0.1-0.5,0.4-0.6l0,0
	c0.3-0.1,0.5,0.1,0.6,0.4l0,0l0,0l0,0c0.1,0.3-0.1,0.5-0.4,0.6l0,0c0,0-0.1,0-0.1,0l0,0C227.1,94.8,226.9,94.6,226.8,94.4z
	 M4.7,94.2c-0.3-0.1-0.4-0.3-0.4-0.6l0,0c0,0,0,0,0,0l0,0c0.1-0.3,0.3-0.5,0.6-0.4l0,0c0.3,0.1,0.5,0.3,0.4,0.6l0,0
	c0,0.2-0.2,0.4-0.5,0.4l0,0C4.8,94.2,4.7,94.2,4.7,94.2z M226.2,91.5c-0.1-0.3,0.1-0.5,0.4-0.6l0,0c0.3-0.1,0.5,0.1,0.6,0.4l0,0
	c0.1,0.3-0.1,0.5-0.4,0.6l0,0c0,0-0.1,0-0.1,0l0,0C226.5,91.9,226.3,91.7,226.2,91.5z M5.3,91.2c-0.3-0.1-0.4-0.3-0.4-0.6l0,0
	c0.1-0.3,0.3-0.4,0.6-0.4l0,0c0.3,0.1,0.4,0.3,0.4,0.6l0,0c-0.1,0.2-0.3,0.4-0.5,0.4l0,0C5.4,91.2,5.4,91.2,5.3,91.2z M225.5,88.6
	c-0.1-0.3,0.1-0.5,0.4-0.6l0,0c0.3-0.1,0.5,0.1,0.6,0.4l0,0c0.1,0.3-0.1,0.5-0.4,0.6l0,0c0,0-0.1,0-0.1,0l0,0
	C225.8,88.9,225.6,88.8,225.5,88.6z M6,88.3c-0.3-0.1-0.4-0.3-0.4-0.6l0,0c0.1-0.3,0.3-0.4,0.6-0.4l0,0c0.3,0.1,0.4,0.3,0.4,0.6l0,0
	c-0.1,0.2-0.3,0.4-0.5,0.4l0,0C6.1,88.3,6.1,88.3,6,88.3z M224.8,85.7c-0.1-0.3,0.1-0.5,0.3-0.6l0,0c0.3-0.1,0.5,0.1,0.6,0.3l0,0
	c0.1,0.3-0.1,0.5-0.3,0.6l0,0c-0.1,0-0.1,0-0.1,0l0,0C225,86.1,224.8,85.9,224.8,85.7z M6.8,85.4c-0.3-0.1-0.4-0.4-0.3-0.6l0,0
	c0.1-0.3,0.4-0.4,0.6-0.3l0,0c0.3,0.1,0.4,0.4,0.3,0.6l0,0c-0.1,0.2-0.3,0.4-0.5,0.4l0,0C6.9,85.4,6.9,85.4,6.8,85.4z M223.9,82.8
	c-0.1-0.3,0.1-0.5,0.3-0.6l0,0c0.3-0.1,0.5,0.1,0.6,0.3l0,0c0.1,0.3-0.1,0.5-0.3,0.6l0,0c0,0-0.1,0-0.1,0l0,0
	C224.2,83.2,224,83,223.9,82.8z M7.7,82.6c-0.3-0.1-0.4-0.4-0.3-0.6l0,0c0.1-0.3,0.4-0.4,0.6-0.3l0,0c0.3,0.1,0.4,0.4,0.3,0.6l0,0
	c-0.1,0.2-0.3,0.3-0.5,0.3l0,0C7.8,82.6,7.7,82.6,7.7,82.6z M223,80L223,80c-0.1-0.3,0-0.5,0.3-0.6l0,0c0.3-0.1,0.5,0,0.6,0.3l0,0
	l0,0l0,0c0.1,0.3,0,0.5-0.3,0.6l0,0c-0.1,0-0.1,0-0.2,0l0,0C223.2,80.3,223,80.2,223,80z M8.6,79.7c-0.3-0.1-0.4-0.4-0.3-0.6l0,0
	c0.1-0.3,0.4-0.4,0.6-0.3l0,0c0.3,0.1,0.4,0.4,0.3,0.6l0,0c-0.1,0.2-0.3,0.3-0.5,0.3l0,0C8.7,79.7,8.7,79.7,8.6,79.7z M222,77.2
	c-0.1-0.3,0-0.5,0.3-0.6l0,0c0.2-0.1,0.5,0,0.6,0.3l0,0c0.1,0.3,0,0.6-0.3,0.6l0,0c0,0-0.1,0-0.2,0l0,0
	C222.2,77.5,222.1,77.4,222,77.2z M9.6,76.9c-0.3-0.1-0.4-0.4-0.3-0.6l0,0c0.1-0.3,0.4-0.4,0.6-0.3l0,0c0.2,0.1,0.4,0.4,0.3,0.6l0,0
	c-0.1,0.2-0.3,0.3-0.5,0.3l0,0C9.7,76.9,9.7,76.9,9.6,76.9z M220.9,74.4c-0.1-0.2,0-0.5,0.3-0.6l0,0c0.3-0.1,0.5,0,0.6,0.3l0,0
	c0.1,0.3,0,0.5-0.3,0.6l0,0c-0.1,0-0.1,0-0.2,0l0,0C221.2,74.7,221,74.6,220.9,74.4z M10.7,74.1c-0.2-0.1-0.4-0.4-0.3-0.7l0,0
	c0.1-0.3,0.4-0.4,0.6-0.3l0,0c0.2,0.1,0.4,0.4,0.3,0.6l0,0c-0.1,0.2-0.3,0.3-0.5,0.3l0,0C10.8,74.1,10.8,74.1,10.7,74.1z
	 M219.8,71.6c-0.1-0.3,0-0.6,0.3-0.7l0,0c0.2-0.1,0.5,0,0.7,0.3l0,0c0.1,0.2,0,0.5-0.3,0.7l0,0c-0.1,0-0.1,0-0.2,0l0,0
	C220,71.9,219.8,71.8,219.8,71.6z M11.9,71.3c-0.2-0.1-0.4-0.4-0.2-0.6l0,0c0.1-0.3,0.4-0.4,0.7-0.3l0,0c0.2,0.1,0.4,0.4,0.2,0.7
	l0,0c-0.1,0.2-0.3,0.3-0.5,0.3l0,0C12,71.3,11.9,71.3,11.9,71.3z M218.5,68.9c-0.1-0.2,0-0.5,0.2-0.7l0,0c0.2-0.1,0.5,0,0.7,0.2l0,0
	l0,0l0,0c0.1,0.2,0,0.6-0.2,0.7l0,0c-0.1,0-0.1,0-0.2,0l0,0C218.8,69.2,218.6,69.1,218.5,68.9z M13.1,68.5c-0.2-0.1-0.4-0.4-0.2-0.7
	l0,0c0.1-0.2,0.4-0.4,0.7-0.2l0,0c0.2,0.1,0.4,0.4,0.2,0.7l0,0c-0.1,0.2-0.3,0.3-0.4,0.3l0,0C13.2,68.6,13.2,68.6,13.1,68.5z
	 M217.2,66.2c-0.1-0.2,0-0.6,0.2-0.7l0,0c0.2-0.1,0.5,0,0.7,0.2l0,0c0,0,0,0,0,0l0,0c0.1,0.2,0,0.5-0.2,0.7l0,0
	c-0.1,0-0.2,0.1-0.2,0.1l0,0C217.5,66.5,217.3,66.4,217.2,66.2z M14.4,65.8c-0.2-0.1-0.3-0.4-0.2-0.7l0,0c0,0,0,0,0,0l0,0
	c0.1-0.2,0.4-0.3,0.7-0.2l0,0c0.2,0.1,0.3,0.4,0.2,0.7v0c-0.1,0.2-0.3,0.3-0.4,0.3l0,0C14.6,65.9,14.5,65.9,14.4,65.8z M215.9,63.6
	c-0.1-0.2,0-0.5,0.2-0.7l0,0c0.2-0.1,0.5,0,0.7,0.2l0,0c0.1,0.2,0,0.5-0.2,0.7l0,0c-0.1,0-0.2,0.1-0.2,0.1l0,0
	C216.1,63.9,216,63.8,215.9,63.6z M15.8,63.2c-0.2-0.1-0.3-0.4-0.2-0.7l0,0c0.1-0.2,0.4-0.3,0.7-0.2l0,0c0.2,0.1,0.3,0.4,0.2,0.7
	l0,0c-0.1,0.2-0.3,0.3-0.4,0.3l0,0C15.9,63.2,15.9,63.2,15.8,63.2z M214.5,61c-0.1-0.2-0.1-0.5,0.2-0.7l0,0c0.2-0.1,0.5-0.1,0.7,0.2
	l0,0c0.1,0.2,0.1,0.6-0.2,0.7l0,0c-0.1,0-0.2,0.1-0.2,0.1l0,0C214.7,61.2,214.5,61.1,214.5,61z M17.2,60.5c-0.2-0.1-0.3-0.4-0.2-0.7
	l0,0c0.1-0.2,0.4-0.3,0.7-0.2l0,0c0.2,0.1,0.3,0.4,0.2,0.7l0,0c-0.1,0.2-0.3,0.2-0.4,0.2l0,0C17.4,60.6,17.3,60.6,17.2,60.5z
	 M213,58.4c-0.2-0.2-0.1-0.5,0.2-0.7l0,0c0.2-0.2,0.5-0.1,0.7,0.2l0,0c0.2,0.2,0.1,0.5-0.2,0.7l0,0c-0.1,0.1-0.2,0.1-0.2,0.1l0,0
	C213.2,58.6,213,58.6,213,58.4z M18.8,57.9c-0.2-0.1-0.3-0.5-0.2-0.7l0,0c0.1-0.2,0.5-0.3,0.7-0.2l0,0c0.2,0.1,0.3,0.5,0.2,0.7l0,0
	C19.3,57.9,19.2,58,19,58l0,0C18.9,58,18.8,58,18.8,57.9z M211.4,55.9c-0.2-0.2-0.1-0.5,0.2-0.7l0,0c0.2-0.1,0.5-0.1,0.7,0.1l0,0
	c0.2,0.2,0.1,0.5-0.2,0.7l0,0c-0.1,0-0.2,0.1-0.3,0.1l0,0C211.6,56.1,211.5,56,211.4,55.9z M20.3,55.4c-0.2-0.1-0.3-0.5-0.1-0.7l0,0
	c0.1-0.2,0.5-0.3,0.7-0.1l0,0c0.2,0.1,0.3,0.5,0.1,0.7l0,0c-0.1,0.1-0.3,0.2-0.4,0.2l0,0C20.5,55.5,20.4,55.4,20.3,55.4z
	 M209.7,53.4L209.7,53.4c-0.2-0.2-0.1-0.5,0.1-0.7l0,0c0.2-0.1,0.5-0.1,0.7,0.1l0,0c0.2,0.2,0.1,0.5-0.1,0.7l0,0
	c-0.1,0.1-0.2,0.1-0.3,0.1l0,0C210,53.6,209.8,53.5,209.7,53.4z M22,52.9c-0.2-0.1-0.3-0.5-0.1-0.7l0,0c0.2-0.2,0.5-0.3,0.7-0.1l0,0
	c0.2,0.1,0.3,0.5,0.1,0.7l0,0c-0.1,0.1-0.3,0.2-0.4,0.2l0,0C22.2,53,22.1,52.9,22,52.9z M208.1,50.9L208.1,50.9
	c-0.2-0.2-0.1-0.5,0.1-0.7l0,0c0.2-0.2,0.5-0.1,0.7,0.1l0,0l0,0l0,0c0.2,0.2,0.1,0.5-0.1,0.7l0,0c-0.1,0.1-0.2,0.1-0.3,0.1l0,0
	C208.3,51.1,208.1,51.1,208.1,50.9z M23.7,50.4c-0.2-0.2-0.3-0.5-0.1-0.7l0,0c0,0,0,0,0,0l0,0c0.2-0.2,0.5-0.3,0.7-0.1l0,0
	c0.2,0.2,0.3,0.5,0.1,0.7l0,0c-0.1,0.1-0.2,0.2-0.4,0.2l0,0C23.9,50.5,23.8,50.5,23.7,50.4z M206.3,48.5L206.3,48.5
	c-0.2-0.2-0.1-0.5,0.1-0.7l0,0c0.2-0.2,0.5-0.1,0.7,0.1l0,0c0.2,0.2,0.1,0.5-0.1,0.7l0,0c-0.1,0.1-0.2,0.1-0.3,0.1l0,0
	C206.5,48.7,206.4,48.7,206.3,48.5z M25.5,48c-0.2-0.2-0.3-0.5-0.1-0.7l0,0l0,0l0,0c0.2-0.2,0.5-0.3,0.7-0.1l0,0
	c0.2,0.2,0.3,0.5,0.1,0.7l0,0c-0.1,0.1-0.2,0.2-0.4,0.2l0,0C25.7,48.1,25.6,48.1,25.5,48z M204.5,46.2c-0.2-0.2-0.1-0.5,0.1-0.7l0,0
	c0.2-0.2,0.5-0.1,0.7,0.1l0,0l0,0l0,0c0.2,0.2,0.1,0.5-0.1,0.7l0,0c-0.1,0.1-0.2,0.1-0.3,0.1l0,0C204.7,46.4,204.6,46.3,204.5,46.2z
	 M27.3,45.6c-0.2-0.2-0.2-0.5-0.1-0.7l0,0c0.2-0.2,0.5-0.2,0.7-0.1l0,0c0.2,0.2,0.2,0.5,0.1,0.7l0,0c-0.1,0.1-0.2,0.2-0.4,0.2l0,0
	C27.5,45.8,27.4,45.7,27.3,45.6z M202.6,43.9c-0.2-0.2-0.1-0.5,0.1-0.7l0,0c0.2-0.2,0.5-0.1,0.7,0.1l0,0l0,0l0,0
	c0.2,0.2,0.1,0.5-0.1,0.7l0,0c-0.1,0.1-0.2,0.1-0.3,0.1l0,0C202.8,44,202.7,44,202.6,43.9z M29.2,43.3c-0.2-0.2-0.2-0.5-0.1-0.7l0,0
	c0.2-0.2,0.5-0.2,0.7,0l0,0c0.2,0.2,0.2,0.5,0.1,0.7l0,0c-0.1,0.1-0.2,0.2-0.4,0.2l0,0C29.5,43.4,29.3,43.4,29.2,43.3z M200.6,41.6
	c-0.2-0.2-0.2-0.5,0.1-0.7l0,0c0.2-0.2,0.5-0.2,0.7,0l0,0c0.2,0.2,0.2,0.5,0,0.7l0,0c-0.1,0.1-0.2,0.1-0.3,0.1l0,0
	C200.9,41.8,200.7,41.7,200.6,41.6z M31.2,41c-0.2-0.2-0.2-0.5,0-0.7l0,0c0.2-0.2,0.5-0.2,0.7,0l0,0c0.2,0.2,0.2,0.5,0,0.7l0,0
	c-0.1,0.1-0.2,0.2-0.4,0.2l0,0C31.4,41.2,31.3,41.1,31.2,41z M198.6,39.4c-0.2-0.2-0.2-0.5,0-0.7l0,0c0.2-0.2,0.5-0.2,0.7,0l0,0
	c0.2,0.2,0.2,0.5,0,0.7l0,0c-0.1,0.1-0.2,0.1-0.3,0.1l0,0C198.8,39.5,198.7,39.5,198.6,39.4z M33.2,38.8c-0.2-0.2-0.2-0.5,0-0.7l0,0
	c0.2-0.2,0.5-0.2,0.7,0l0,0c0.2,0.2,0.2,0.5,0,0.7l0,0c-0.1,0.1-0.2,0.1-0.4,0.1l0,0C33.5,39,33.3,38.9,33.2,38.8z M196.5,37.2
	c-0.2-0.2-0.2-0.5,0-0.7l0,0c0.2-0.2,0.5-0.2,0.7,0l0,0c0.2,0.2,0.2,0.5,0,0.7l0,0c-0.1,0.1-0.2,0.1-0.4,0.1l0,0
	C196.8,37.4,196.6,37.3,196.5,37.2z M35.3,36.7c-0.2-0.2-0.2-0.5,0-0.7l0,0c0.2-0.2,0.5-0.2,0.7,0l0,0c0.2,0.2,0.2,0.5,0,0.7l0,0
	c-0.1,0.1-0.2,0.1-0.4,0.1l0,0C35.5,36.8,35.4,36.8,35.3,36.7z M194.4,35.1L194.4,35.1c-0.2-0.2-0.2-0.5,0-0.7l0,0
	c0.2-0.2,0.5-0.2,0.7,0l0,0c0.2,0.2,0.2,0.5,0,0.7l0,0c-0.1,0.1-0.2,0.1-0.4,0.1l0,0C194.6,35.3,194.5,35.2,194.4,35.1z M37.4,34.6
	c-0.2-0.2-0.2-0.5,0-0.7l0,0c0.2-0.2,0.5-0.2,0.7,0l0,0c0.2,0.2,0.2,0.5,0,0.7l0,0c-0.1,0.1-0.2,0.1-0.3,0.1l0,0
	C37.7,34.7,37.5,34.7,37.4,34.6z M192.2,33.1L192.2,33.1c-0.2-0.2-0.2-0.5,0-0.7l0,0c0.2-0.2,0.5-0.2,0.7,0l0,0
	c0.2,0.2,0.2,0.5,0,0.7l0,0c-0.1,0.1-0.2,0.2-0.4,0.2l0,0C192.5,33.2,192.3,33.2,192.2,33.1z M39.6,32.5c-0.2-0.2-0.2-0.5,0-0.7l0,0
	c0.2-0.2,0.5-0.2,0.7,0l0,0c0.2,0.2,0.2,0.5,0,0.7l0,0c-0.1,0.1-0.2,0.1-0.3,0.1l0,0C39.9,32.7,39.7,32.6,39.6,32.5z M190,31.1
	L190,31.1c-0.2-0.2-0.2-0.5,0-0.7l0,0c0.2-0.2,0.5-0.2,0.7-0.1l0,0c0,0,0,0,0,0l0,0c0.2,0.2,0.2,0.5,0,0.7l0,0
	c-0.1,0.1-0.2,0.2-0.4,0.2l0,0C190.2,31.2,190.1,31.2,190,31.1z M41.9,30.5c-0.2-0.2-0.2-0.5,0.1-0.7l0,0c0.2-0.2,0.5-0.1,0.7,0.1
	l0,0c0.2,0.2,0.2,0.5-0.1,0.7l0,0c-0.1,0.1-0.2,0.1-0.3,0.1l0,0C42.1,30.7,42,30.7,41.9,30.5z M187.7,29.2c-0.2-0.2-0.2-0.5-0.1-0.7
	l0,0c0.2-0.2,0.5-0.2,0.7-0.1l0,0c0.2,0.2,0.2,0.5,0.1,0.7l0,0c-0.1,0.1-0.2,0.2-0.4,0.2l0,0C187.9,29.3,187.8,29.3,187.7,29.2z
	 M44.2,28.6c-0.2-0.2-0.1-0.5,0.1-0.7l0,0c0.2-0.2,0.5-0.1,0.7,0.1l0,0c0.2,0.2,0.1,0.5-0.1,0.7l0,0c-0.1,0.1-0.2,0.1-0.3,0.1l0,0
	C44.4,28.8,44.3,28.7,44.2,28.6z M185.4,27.3c-0.2-0.2-0.2-0.5-0.1-0.7l0,0c0.2-0.2,0.5-0.3,0.7-0.1l0,0c0.2,0.2,0.3,0.5,0.1,0.7
	l0,0c-0.1,0.1-0.2,0.2-0.4,0.2l0,0C185.6,27.4,185.5,27.4,185.4,27.3z M46.5,26.7c-0.2-0.2-0.1-0.5,0.1-0.7l0,0l0,0l0,0
	c0.2-0.2,0.5-0.1,0.7,0.1l0,0c0.2,0.2,0.1,0.5-0.1,0.7l0,0c-0.1,0.1-0.2,0.1-0.3,0.1l0,0C46.8,26.9,46.6,26.9,46.5,26.7z M183,25.5
	c-0.2-0.2-0.3-0.5-0.1-0.7l0,0c0.2-0.2,0.5-0.3,0.7-0.1l0,0c0.2,0.2,0.3,0.5,0.1,0.7l0,0c-0.1,0.1-0.2,0.2-0.4,0.2l0,0
	C183.2,25.6,183.1,25.6,183,25.5z M48.9,24.9c-0.2-0.2-0.1-0.5,0.1-0.7l0,0c0.2-0.2,0.5-0.1,0.7,0.1l0,0c0.2,0.2,0.1,0.5-0.1,0.7
	l0,0c-0.1,0.1-0.2,0.1-0.3,0.1l0,0C49.2,25.1,49,25.1,48.9,24.9z M180.6,23.8c-0.2-0.2-0.3-0.5-0.1-0.7l0,0c0.2-0.2,0.5-0.3,0.7-0.1
	l0,0c0.2,0.2,0.3,0.5,0.1,0.7l0,0c-0.1,0.1-0.2,0.2-0.4,0.2l0,0C180.8,23.8,180.7,23.8,180.6,23.8z M51.4,23.2
	c-0.2-0.2-0.1-0.5,0.1-0.7l0,0c0.2-0.2,0.5-0.1,0.7,0.1l0,0c0.2,0.2,0.1,0.5-0.1,0.7l0,0c-0.1,0.1-0.2,0.1-0.3,0.1l0,0
	C51.6,23.4,51.4,23.3,51.4,23.2z M178.1,22.1c-0.2-0.2-0.3-0.5-0.1-0.7l0,0c0.2-0.2,0.5-0.3,0.7-0.1l0,0c0.2,0.1,0.3,0.5,0.1,0.7
	l0,0c-0.1,0.1-0.2,0.2-0.4,0.2l0,0C178.3,22.2,178.2,22.1,178.1,22.1z M53.8,21.5c-0.1-0.2-0.1-0.5,0.2-0.7l0,0
	c0.2-0.1,0.5-0.1,0.7,0.2l0,0c0.1,0.2,0.1,0.5-0.1,0.7l0,0c-0.1,0.1-0.2,0.1-0.3,0.1l0,0C54.1,21.8,53.9,21.7,53.8,21.5z
	 M175.6,20.5L175.6,20.5c-0.2-0.1-0.3-0.4-0.2-0.7l0,0c0.2-0.2,0.5-0.3,0.7-0.2l0,0l0,0l0,0c0.2,0.2,0.3,0.5,0.2,0.7l0,0
	c-0.1,0.2-0.3,0.2-0.4,0.2l0,0C175.8,20.5,175.7,20.5,175.6,20.5z M56.4,19.9c-0.1-0.2-0.1-0.6,0.2-0.7l0,0c0.2-0.2,0.5-0.1,0.7,0.2
	l0,0c0.1,0.2,0.1,0.6-0.2,0.7l0,0c-0.1,0.1-0.2,0.1-0.3,0.1l0,0C56.6,20.1,56.5,20.1,56.4,19.9z M173,18.9c-0.2-0.1-0.3-0.4-0.2-0.7
	l0,0c0.1-0.2,0.5-0.3,0.7-0.2l0,0c0.2,0.1,0.3,0.4,0.2,0.7l0,0c-0.1,0.2-0.2,0.2-0.4,0.2l0,0C173.2,19,173.1,19,173,18.9z
	 M58.9,18.4c-0.1-0.2-0.1-0.5,0.2-0.7l0,0c0.2-0.1,0.5-0.1,0.7,0.2l0,0c0.1,0.2,0,0.5-0.2,0.7l0,0c-0.1,0-0.2,0.1-0.2,0.1l0,0
	C59.2,18.6,59,18.5,58.9,18.4z M170.4,17.4c-0.2-0.1-0.3-0.4-0.2-0.7l0,0c0.1-0.2,0.4-0.3,0.7-0.2l0,0c0.2,0.1,0.3,0.4,0.2,0.7l0,0
	c-0.1,0.2-0.3,0.3-0.4,0.3l0,0C170.6,17.5,170.5,17.5,170.4,17.4z M61.5,16.9c-0.1-0.2,0-0.6,0.2-0.7l0,0c0.2-0.1,0.5,0,0.7,0.2l0,0
	c0.1,0.2,0,0.5-0.2,0.7l0,0c-0.1,0-0.2,0.1-0.2,0.1l0,0C61.8,17.2,61.6,17.1,61.5,16.9z M167.8,16c-0.2-0.1-0.3-0.4-0.2-0.7l0,0
	c0.1-0.2,0.4-0.3,0.7-0.2l0,0c0.2,0.1,0.3,0.4,0.2,0.7l0,0c-0.1,0.2-0.3,0.3-0.5,0.3l0,0C167.9,16.1,167.9,16.1,167.8,16z
	 M64.2,15.5c-0.1-0.2,0-0.6,0.2-0.7l0,0c0.2-0.1,0.6,0,0.7,0.2l0,0c0.1,0.2,0,0.5-0.2,0.7l0,0c-0.1,0-0.1,0.1-0.2,0.1l0,0
	C64.4,15.8,64.3,15.7,64.2,15.5z M165.1,14.7L165.1,14.7c-0.2-0.1-0.4-0.4-0.2-0.7l0,0c0.1-0.2,0.4-0.4,0.7-0.2l0,0
	c0.2,0.1,0.3,0.4,0.2,0.7l0,0c-0.1,0.2-0.3,0.3-0.5,0.3l0,0C165.3,14.8,165.2,14.7,165.1,14.7z M66.9,14.2c-0.1-0.2,0-0.5,0.2-0.7
	l0,0c0.2-0.1,0.5,0,0.7,0.2l0,0c0.1,0.2,0,0.5-0.2,0.7l0,0c-0.1,0-0.1,0-0.2,0l0,0C67.1,14.4,66.9,14.3,66.9,14.2z M162.4,13.4
	L162.4,13.4c-0.2-0.1-0.4-0.4-0.2-0.7l0,0c0.1-0.2,0.4-0.4,0.7-0.2l0,0c0,0,0,0,0,0l0,0c0.2,0.1,0.4,0.4,0.2,0.7l0,0
	c-0.1,0.2-0.3,0.3-0.5,0.3l0,0C162.5,13.5,162.5,13.5,162.4,13.4z M69.6,12.9c-0.1-0.2,0-0.5,0.2-0.7l0,0c0.3-0.1,0.5,0,0.7,0.3l0,0
	c0.1,0.2,0,0.5-0.2,0.7l0,0c-0.1,0-0.1,0-0.2,0l0,0C69.8,13.2,69.6,13.1,69.6,12.9z M159.7,12.2c-0.3-0.1-0.4-0.4-0.3-0.6l0,0
	c0.1-0.3,0.4-0.4,0.7-0.3l0,0l0,0l0,0c0.2,0.1,0.4,0.4,0.3,0.6l0,0c-0.1,0.2-0.3,0.3-0.5,0.3l0,0C159.8,12.3,159.7,12.3,159.7,12.2z
	 M72.3,11.7c-0.1-0.3,0-0.5,0.3-0.7l0,0c0.3-0.1,0.5,0,0.7,0.3l0,0c0.1,0.2,0,0.5-0.3,0.6l0,0c-0.1,0-0.1,0-0.2,0l0,0
	C72.6,12,72.4,11.9,72.3,11.7z M156.9,11.1c-0.3-0.1-0.4-0.4-0.3-0.6l0,0c0.1-0.3,0.4-0.4,0.6-0.3l0,0c0.3,0.1,0.4,0.4,0.3,0.6l0,0
	c-0.1,0.2-0.3,0.3-0.5,0.3l0,0C157,11.2,156.9,11.1,156.9,11.1z M75.1,10.6c-0.1-0.3,0-0.5,0.3-0.6l0,0c0.3-0.1,0.6,0,0.7,0.3l0,0
	c0.1,0.3,0,0.6-0.3,0.6l0,0c-0.1,0-0.1,0-0.2,0l0,0C75.4,10.9,75.2,10.8,75.1,10.6z M154.1,10.1c-0.3-0.1-0.4-0.4-0.3-0.6l0,0
	c0.1-0.3,0.4-0.4,0.6-0.3l0,0l0,0l0,0c0.3,0.1,0.4,0.4,0.3,0.6l0,0c-0.1,0.2-0.3,0.3-0.5,0.3l0,0C154.2,10.1,154.1,10.1,154.1,10.1z
	 M77.9,9.5c-0.1-0.3,0-0.5,0.3-0.6l0,0l0,0l0,0c0.3-0.1,0.6,0,0.6,0.3l0,0c0.1,0.3,0,0.6-0.3,0.6l0,0c0,0-0.1,0-0.2,0l0,0
	C78.2,9.9,78,9.8,77.9,9.5z M151.2,9.1c-0.3-0.1-0.4-0.4-0.3-0.6l0,0c0.1-0.3,0.4-0.4,0.6-0.3l0,0l0,0l0,0c0.3,0.1,0.4,0.4,0.3,0.6
	l0,0c-0.1,0.2-0.3,0.4-0.5,0.4l0,0C151.3,9.1,151.3,9.1,151.2,9.1z M80.7,8.6C80.7,8.3,80.8,8,81.1,8l0,0l0,0l0,0
	c0.3-0.1,0.5,0.1,0.6,0.3l0,0c0.1,0.3-0.1,0.5-0.3,0.6h0c-0.1,0-0.1,0-0.2,0l0,0C81,8.9,80.8,8.8,80.7,8.6z M148.4,8.2
	c-0.3-0.1-0.4-0.4-0.3-0.6l0,0c0.1-0.3,0.4-0.4,0.6-0.3l0,0c0.3,0.1,0.4,0.4,0.3,0.6l0,0c-0.1,0.2-0.3,0.4-0.5,0.4l0,0
	C148.5,8.2,148.4,8.2,148.4,8.2z M83.6,7.7c-0.1-0.3,0.1-0.5,0.3-0.6l0,0c0.3-0.1,0.5,0.1,0.6,0.3l0,0c0.1,0.3-0.1,0.5-0.3,0.6l0,0
	c0,0-0.1,0-0.1,0l0,0C83.9,8,83.7,7.9,83.6,7.7z M145.5,7.4c-0.3-0.1-0.4-0.3-0.3-0.6l0,0c0.1-0.3,0.3-0.4,0.6-0.4l0,0
	c0.3,0.1,0.4,0.4,0.3,0.6l0,0c-0.1,0.2-0.3,0.4-0.5,0.4l0,0C145.6,7.4,145.6,7.4,145.5,7.4z M86.5,6.9c-0.1-0.3,0.1-0.6,0.4-0.6l0,0
	c0.3-0.1,0.5,0.1,0.6,0.4l0,0c0.1,0.3-0.1,0.5-0.4,0.6l0,0c0,0-0.1,0-0.1,0l0,0C86.8,7.2,86.5,7.1,86.5,6.9z M142.6,6.6
	c-0.3-0.1-0.4-0.3-0.4-0.6l0,0c0.1-0.3,0.3-0.4,0.6-0.4l0,0c0.3,0.1,0.4,0.3,0.4,0.6l0,0c-0.1,0.2-0.3,0.4-0.5,0.4l0,0
	C142.7,6.7,142.7,6.7,142.6,6.6z M89.4,6.1c-0.1-0.3,0.1-0.5,0.4-0.6l0,0c0,0,0,0,0,0l0,0c0.3-0.1,0.5,0.1,0.6,0.4l0,0
	c0.1,0.3-0.1,0.5-0.4,0.6l0,0c0,0-0.1,0-0.1,0l0,0C89.7,6.5,89.4,6.4,89.4,6.1z M139.7,6L139.7,6c-0.3,0-0.4-0.3-0.4-0.6l0,0
	c0.1-0.3,0.3-0.4,0.6-0.4l0,0c0.3,0.1,0.4,0.3,0.4,0.6l0,0c0,0.2-0.3,0.4-0.5,0.4l0,0C139.8,6,139.8,6,139.7,6z M92.3,5.5
	c-0.1-0.3,0.1-0.5,0.4-0.6l0,0C93,4.8,93.2,5,93.3,5.3l0,0c0,0.3-0.1,0.5-0.4,0.6l0,0c0,0-0.1,0-0.1,0l0,0
	C92.6,5.9,92.4,5.7,92.3,5.5z M136.8,5.4L136.8,5.4c-0.3,0-0.5-0.3-0.4-0.6l0,0c0-0.3,0.3-0.5,0.6-0.4l0,0c0.3,0.1,0.5,0.3,0.4,0.6
	l0,0C137.3,5.2,137.1,5.4,136.8,5.4L136.8,5.4C136.9,5.4,136.8,5.4,136.8,5.4z M95.3,4.9c0-0.3,0.1-0.5,0.4-0.6l0,0l0,0l0,0
	c0.3-0.1,0.5,0.1,0.6,0.4l0,0c0.1,0.3-0.1,0.5-0.4,0.6l0,0c0,0-0.1,0-0.1,0l0,0C95.5,5.3,95.3,5.1,95.3,4.9z M133.8,4.9
	c-0.3,0-0.5-0.3-0.4-0.6l0,0c0-0.3,0.3-0.5,0.6-0.4l0,0c0.3,0.1,0.5,0.3,0.4,0.6l0,0C134.4,4.7,134.2,4.9,133.8,4.9L133.8,4.9
	C133.9,4.9,133.9,4.9,133.8,4.9z M98.2,4.4c0-0.3,0.1-0.5,0.4-0.6l0,0c0.3,0,0.5,0.1,0.6,0.4l0,0c0,0.3-0.1,0.5-0.4,0.6l0,0
	c0,0,0,0-0.1,0l0,0C98.5,4.8,98.3,4.6,98.2,4.4z M130.9,4.5c-0.3,0-0.5-0.3-0.4-0.6l0,0c0-0.3,0.3-0.5,0.6-0.4l0,0
	c0.3,0,0.5,0.3,0.4,0.6l0,0C131.4,4.3,131.2,4.5,130.9,4.5L130.9,4.5C130.9,4.5,130.9,4.5,130.9,4.5z M101.2,4
	c0-0.3,0.2-0.5,0.4-0.6l0,0c0.3,0,0.5,0.2,0.6,0.4l0,0c0,0.3-0.1,0.5-0.4,0.6l0,0c0,0,0,0-0.1,0l0,0C101.4,4.4,101.2,4.2,101.2,4z
	 M127.9,4.1c-0.3,0-0.5-0.3-0.4-0.5l0,0c0-0.3,0.3-0.5,0.6-0.4l0,0c0.3,0,0.5,0.3,0.4,0.5l0,0C128.4,3.9,128.2,4.1,127.9,4.1
	L127.9,4.1C128,4.1,127.9,4.1,127.9,4.1z M104.2,3.6c0-0.3,0.2-0.5,0.5-0.5l0,0c0.3,0,0.5,0.2,0.5,0.4l0,0c0,0.3-0.2,0.5-0.4,0.6
	l0,0c0,0,0,0-0.1,0l0,0C104.4,4.1,104.2,3.9,104.2,3.6z M125,3.8c-0.3,0-0.5-0.3-0.5-0.5l0,0c0-0.3,0.3-0.5,0.5-0.5l0,0
	c0.3,0,0.5,0.3,0.5,0.5l0,0C125.5,3.6,125.3,3.8,125,3.8L125,3.8C125,3.8,125,3.8,125,3.8z M107.2,3.3c0-0.3,0.2-0.5,0.5-0.5l0,0
	l0,0l0,0c0.3,0,0.5,0.2,0.5,0.5l0,0c0,0.3-0.2,0.5-0.5,0.5l0,0c0,0,0,0,0,0l0,0C107.4,3.8,107.2,3.6,107.2,3.3z M122,3.7
	c-0.3,0-0.5-0.3-0.5-0.5l0,0c0-0.3,0.2-0.5,0.5-0.5l0,0l0,0l0,0c0.3,0,0.5,0.2,0.5,0.5l0,0C122.5,3.4,122.3,3.7,122,3.7L122,3.7
	C122,3.7,122,3.7,122,3.7z M110.1,3.1c0-0.3,0.2-0.5,0.5-0.5l0,0c0.3,0,0.5,0.2,0.5,0.5l0,0c0,0.3-0.2,0.5-0.5,0.5l0,0c0,0,0,0,0,0
	l0,0C110.4,3.6,110.2,3.4,110.1,3.1z M119,3.5c-0.3,0-0.5-0.2-0.5-0.5l0,0c0-0.3,0.2-0.5,0.5-0.5l0,0c0.3,0,0.5,0.2,0.5,0.5l0,0
	C119.5,3.3,119.3,3.5,119,3.5L119,3.5C119,3.5,119,3.5,119,3.5z M113.1,3c0-0.3,0.2-0.5,0.5-0.5l0,0c0.3,0,0.5,0.2,0.5,0.5l0,0
	c0,0.3-0.2,0.5-0.5,0.5l0,0h0l0,0C113.4,3.5,113.1,3.3,113.1,3z M115.5,3c0-0.3,0.2-0.5,0.5-0.5l0,0c0.3,0,0.5,0.2,0.5,0.5l0,0
	c0,0.3-0.2,0.5-0.5,0.5l0,0C115.7,3.5,115.5,3.3,115.5,3z"/>
<path id="Rectangle_18_copy_2" class="st3" d="M111.3,103.3l20,15l-20,15"/>
<path class="st4" d="z"/>
<g>
	<g>
		<path class="st2" d="M115.1,208.7v1.3c0.3,0,0.6,0,0.9,0c0.3,0,0.6,0,0.9,0v-1.3c-0.3,0-0.6,0-0.9,0
			C115.7,208.7,115.4,208.7,115.1,208.7z"/>
	</g>
	<g>
		<path class="st2" d="M124.7,208.3l0.1,1.3c0.6-0.1,1.2-0.1,1.8-0.2l-0.1-1.3C125.9,208.2,125.3,208.2,124.7,208.3z"/>
	</g>
	<g>
		<path class="st2" d="M136.1,206.5c-0.6,0.1-1.2,0.3-1.8,0.4l0.3,1.3c0.6-0.1,1.2-0.3,1.8-0.4L136.1,206.5z"/>
	</g>
	<g>
		<path class="st2" d="M144,205.7c0.6-0.2,1.2-0.4,1.7-0.6l-0.4-1.2c-0.6,0.2-1.1,0.4-1.7,0.6L144,205.7z"/>
	</g>
	<g>
		<path class="st2" d="M153.2,202.3c0.6-0.2,1.1-0.5,1.7-0.8l-0.5-1.2c-0.6,0.3-1.1,0.5-1.7,0.8L153.2,202.3z"/>
	</g>
	<g>
		<path class="st2" d="M163.5,197l-0.6-1.1c-0.5,0.3-1.1,0.6-1.6,0.9l0.6,1.1C162.5,197.6,163,197.3,163.5,197z"/>
	</g>
	<g>
		<path class="st2" d="M170.2,192.6c0.5-0.4,1-0.7,1.5-1.1l-0.8-1c-0.5,0.4-1,0.7-1.5,1.1L170.2,192.6z"/>
	</g>
	<g>
		<path class="st2" d="M177.8,186.5c0.5-0.4,0.9-0.8,1.4-1.2l-0.9-0.9c-0.4,0.4-0.9,0.8-1.4,1.2L177.8,186.5z"/>
	</g>
	<g>
		<path class="st2" d="M184.8,179.7c0.4-0.4,0.8-0.9,1.2-1.4l-0.9-0.9c-0.4,0.5-0.8,0.9-1.2,1.4L184.8,179.7z"/>
	</g>
	<g>
		<path class="st2" d="M192.1,170.7l-1-0.8c-0.4,0.5-0.7,1-1.1,1.5l1,0.8C191.4,171.7,191.8,171.2,192.1,170.7z"/>
	</g>
	<g>
		<path class="st2" d="M195.4,163.4l1.1,0.6c0.3-0.5,0.6-1.1,0.9-1.6l-1.1-0.6C196,162.3,195.7,162.9,195.4,163.4z"/>
	</g>
	<g>
		<path class="st2" d="M199.8,154.8l1.2,0.5c0.3-0.6,0.5-1.1,0.8-1.7l-1.2-0.5C200.4,153.7,200.1,154.3,199.8,154.8z"/>
	</g>
	<g>
		<path class="st2" d="M203.4,145.9l1.2,0.4c0.2-0.6,0.4-1.1,0.6-1.7l-1.2-0.4C203.8,144.7,203.6,145.3,203.4,145.9z"/>
	</g>
	<g>
		<path class="st2" d="M207.2,136.8c0.1-0.6,0.3-1.2,0.4-1.8l-1.3-0.3c-0.1,0.6-0.3,1.2-0.4,1.8L207.2,136.8z"/>
	</g>
	<g>
		<path class="st2" d="M209.1,125.4l-1.3-0.1c-0.1,0.6-0.1,1.2-0.2,1.8l1.3,0.1C208.9,126.6,209,126,209.1,125.4z"/>
	</g>
	<g>
		<path class="st2" d="M209.5,116.5c0-0.3,0-0.6,0-0.9h-1.3c0,0.3,0,0.6,0,0.9s0,0.6,0,0.9h1.3C209.5,117.1,209.5,116.8,209.5,116.5
			z"/>
	</g>
	<g>
		<path class="st2" d="M209.1,107.6c-0.1-0.6-0.1-1.2-0.2-1.8l-1.3,0.1c0.1,0.6,0.1,1.2,0.2,1.8L209.1,107.6z"/>
	</g>
	<g>
		<path class="st2" d="M206,96.4c0.1,0.6,0.3,1.2,0.4,1.8l1.3-0.3c-0.1-0.6-0.3-1.2-0.4-1.8L206,96.4z"/>
	</g>
	<g>
		<path class="st2" d="M204.6,86.7l-1.2,0.4c0.2,0.6,0.4,1.1,0.6,1.7l1.2-0.4C205,87.9,204.8,87.3,204.6,86.7z"/>
	</g>
	<g>
		<path class="st2" d="M201,77.7l-1.2,0.5c0.3,0.6,0.5,1.1,0.8,1.7l1.2-0.5C201.5,78.8,201.3,78.2,201,77.7z"/>
	</g>
	<g>
		<path class="st2" d="M196.5,69l-1.1,0.6c0.3,0.5,0.6,1.1,0.9,1.6l1.1-0.6C197.1,70,196.8,69.5,196.5,69z"/>
	</g>
	<g>
		<path class="st2" d="M190,61.6c0.4,0.5,0.7,1,1.1,1.5l1-0.8c-0.4-0.5-0.7-1-1.1-1.5L190,61.6z"/>
	</g>
	<g>
		<path class="st2" d="M184.8,53.3l-0.9,0.9c0.4,0.4,0.8,0.9,1.2,1.4l0.9-0.9C185.6,54.2,185.2,53.7,184.8,53.3z"/>
	</g>
	<g>
		<path class="st2" d="M179.2,47.7c-0.4-0.4-0.9-0.8-1.4-1.2l-0.9,0.9c0.5,0.4,0.9,0.8,1.4,1.2L179.2,47.7z"/>
	</g>
	<g>
		<path class="st2" d="M171.7,41.4"/>
		<path class="st2" d="M170.2,40.4"/>
	</g>
	<g>
		<path class="st2" d="M161.3,36.2c0.5,0.3,1.1,0.6,1.6,0.9l0.6-1.1c-0.5-0.3-1.1-0.6-1.6-0.9L161.3,36.2z"/>
	</g>
	<g>
		<path class="st2" d="M170.5,41.8c0.5,0.4,0.9,0.8,1.4,1.2l0.8-1c-0.5-0.4-0.9-0.8-1.4-1.2L170.5,41.8z"/>
	</g>
	<g>
		<path class="st2" d="M154.9,31.5c-0.6-0.3-1.1-0.5-1.7-0.8l-0.5,1.2c0.6,0.2,1.1,0.5,1.7,0.8L154.9,31.5z"/>
	</g>
	<g>
		<path class="st2" d="M144,27.3l-0.4,1.2c0.6,0.2,1.2,0.4,1.7,0.6l0.4-1.2C145.2,27.7,144.6,27.5,144,27.3z"/>
	</g>
	<g>
		<path class="st2" d="M136.3,25.3c-0.6-0.1-1.2-0.3-1.8-0.4l-0.3,1.3c0.6,0.1,1.2,0.3,1.8,0.4L136.3,25.3z"/>
	</g>
	<g>
		<path class="st2" d="M126.7,23.6c-0.6-0.1-1.2-0.1-1.8-0.2l-0.1,1.3c0.6,0.1,1.2,0.1,1.8,0.2L126.7,23.6z"/>
	</g>
	<g>
		<path class="st2" d="M115.1,23v1.3c0.3,0,0.6,0,0.9,0c0.3,0,0.6,0,0.9,0V23c-0.3,0-0.6,0-0.9,0C115.7,23,115.4,23,115.1,23z"/>
	</g>
	<g>
		<path class="st2" d="M107.3,24.7l-0.1-1.3c-0.6,0.1-1.2,0.1-1.8,0.2l0.1,1.3C106.1,24.8,106.7,24.8,107.3,24.7z"/>
	</g>
	<g>
		<path class="st2" d="M95.7,25.3l0.3,1.3c0.6-0.1,1.2-0.3,1.8-0.4l-0.3-1.3C96.9,25,96.3,25.1,95.7,25.3z"/>
	</g>
	<g>
		<path class="st2" d="M100.8,40.5"/>
	</g>
	<g>
		<path class="st2" d="M88,27.3c-0.6,0.2-1.2,0.4-1.7,0.6l0.4,1.2c0.6-0.2,1.1-0.4,1.7-0.6L88,27.3z"/>
	</g>
	<g>
		<path class="st2" d="M78.8,30.7c-0.6,0.2-1.1,0.5-1.7,0.8l0.5,1.2c0.6-0.3,1.1-0.5,1.7-0.8L78.8,30.7z"/>
	</g>
	<g>
		<path class="st2" d="M68.5,36l0.6,1.1c0.5-0.3,1.1-0.6,1.6-0.9l-0.6-1.1C69.5,35.4,69,35.7,68.5,36z"/>
	</g>
	<g>
		<path class="st2" d="M76.4,49.8"/>
	</g>
	<g>
		<path class="st2" d="M61.8,40.4c-0.5,0.4-1,0.7-1.5,1.1l0.8,1c0.5-0.4,1-0.7,1.5-1.1L61.8,40.4z"/>
	</g>
	<g>
		<path class="st2" d="M47.2,53.3c-0.4,0.4-0.8,0.9-1.2,1.4l1,0.9c0.4-0.5,0.8-0.9,1.2-1.4L47.2,53.3z"/>
	</g>
	<g>
		<path class="st2" d="M39.9,62.3l1,0.8c0.4-0.5,0.7-1,1.1-1.5l-1-0.8C40.6,61.3,40.2,61.8,39.9,62.3z"/>
	</g>
	<g>
		<path class="st2" d="M35.5,69c-0.3,0.5-0.6,1.1-0.9,1.6l1.1,0.6c0.3-0.5,0.6-1.1,0.9-1.6L35.5,69z"/>
	</g>
	<g>
		<path class="st2" d="M31,77.7c-0.3,0.6-0.5,1.1-0.8,1.7l1.2,0.5c0.2-0.6,0.5-1.1,0.8-1.7L31,77.7z"/>
	</g>
	<g>
		<path class="st2" d="M27.4,86.7c-0.2,0.6-0.4,1.1-0.6,1.7l1.2,0.4c0.2-0.6,0.4-1.2,0.6-1.7L27.4,86.7z"/>
	</g>
	<g>
		<path class="st2" d="M24.8,96.2c-0.1,0.6-0.3,1.2-0.4,1.8l1.3,0.3c0.1-0.6,0.3-1.2,0.4-1.8L24.8,96.2z"/>
	</g>
	<g>
		<path class="st2" d="M24.4,106l-1.3-0.1c-0.1,0.6-0.1,1.2-0.2,1.8l1.3,0.1C24.3,107.2,24.3,106.6,24.4,106z"/>
	</g>
	<g>
		<path class="st2" d="M22.5,116.5c0,0.3,0,0.6,0,0.9h1.3c0-0.3,0-0.6,0-0.9s0-0.6,0-0.9h-1.3C22.5,115.9,22.5,116.2,22.5,116.5z"/>
	</g>
	<g>
		<path class="st2" d="M24.4,127c-0.1-0.6-0.1-1.2-0.2-1.8l-1.3,0.1c0.1,0.6,0.1,1.2,0.2,1.8L24.4,127z"/>
	</g>
	<g>
		<path class="st2" d="M26,136.6c-0.1-0.6-0.3-1.2-0.4-1.8l-1.3,0.3c0.1,0.6,0.3,1.2,0.4,1.8L26,136.6z"/>
	</g>
	<g>
		<path class="st2" d="M26.8,144.5c0.2,0.6,0.4,1.2,0.6,1.7l1.2-0.4c-0.2-0.6-0.4-1.1-0.6-1.7L26.8,144.5z"/>
	</g>
	<g>
		<path class="st2" d="M30.2,153.7c0.2,0.6,0.5,1.1,0.8,1.7l1.2-0.5c-0.3-0.6-0.5-1.1-0.8-1.7L30.2,153.7z"/>
	</g>
	<g>
		<path class="st2" d="M34.6,162.4c0.3,0.5,0.6,1.1,0.9,1.6l1.1-0.6c-0.3-0.5-0.6-1.1-0.9-1.6L34.6,162.4z"/>
	</g>
	<g>
		<path class="st2" d="M42,171.4c-0.4-0.5-0.7-1-1.1-1.5l-1,0.8c0.4,0.5,0.7,1,1.1,1.5L42,171.4z"/>
	</g>
	<g>
		<path class="st2" d="M47.2,179.7l1-0.9c-0.4-0.4-0.8-0.9-1.2-1.4l-1,0.9C46.4,178.8,46.8,179.3,47.2,179.7z"/>
	</g>
	<g>
		<path class="st2" d="M52.8,185.3c0.4,0.4,0.9,0.8,1.4,1.2l0.9-1c-0.5-0.4-0.9-0.8-1.4-1.2L52.8,185.3z"/>
	</g>
	<g>
		<path class="st2" d="M61.8,192.6l0.8-1c-0.5-0.4-1-0.7-1.5-1.1l-0.8,1C60.8,191.9,61.3,192.3,61.8,192.6z"/>
	</g>
	<g>
		<path class="st2" d="M70.7,196.8c-0.5-0.3-1.1-0.6-1.6-0.9l-0.6,1.1c0.5,0.3,1.1,0.6,1.6,0.9L70.7,196.8z"/>
	</g>
	<g>
		<path class="st2" d="M77.1,201.5c0.6,0.3,1.1,0.5,1.7,0.8l0.5-1.2c-0.6-0.2-1.1-0.5-1.7-0.8L77.1,201.5z"/>
	</g>
	<g>
		<path class="st2" d="M88,205.7l0.4-1.2c-0.6-0.2-1.2-0.4-1.7-0.6l-0.4,1.2C86.8,205.3,87.4,205.5,88,205.7z"/>
	</g>
	<g>
		<path class="st2" d="M95.7,207.7c0.6,0.1,1.2,0.3,1.8,0.4l0.3-1.3c-0.6-0.1-1.2-0.3-1.8-0.4L95.7,207.7z"/>
	</g>
	<g>
		<path class="st2" d="M105.3,209.4c0.6,0.1,1.2,0.1,1.8,0.2l0.1-1.3c-0.6-0.1-1.2-0.1-1.8-0.2L105.3,209.4z"/>
	</g>
	<g>
		<path class="st2" d="M54.3,46.5c-0.4,0.4-0.9,0.8-1.3,1.2l0.9,0.9c0.4-0.4,0.9-0.8,1.3-1.2L54.3,46.5z"/>
	</g>
</g>
</svg>
