<?xml version="1.0" encoding="utf-8"?>
<!-- Generator: Adobe Illustrator 21.1.0, SVG Export Plug-In . SVG Version: 6.00 Build 0)  -->
<svg version="1.1" id="Isolation_Mode" xmlns="http://www.w3.org/2000/svg" xmlns:xlink="http://www.w3.org/1999/xlink" x="0px"
	 y="0px" viewBox="0 0 329.8 275.1" style="enable-background:new 0 0 329.8 275.1;" xml:space="preserve">
<style type="text/css">
	.st0{fill:#4C6775;}
	.st1{fill:none;}
	.st2{fill:#9A7537;}
</style>
<g>
	<path class="st0" d="M185.8,235.7h-19.2v-23.4c0-0.9-0.7-1.7-1.7-1.7H22.6c-0.9,0-1.7,0.7-1.7,1.7v23.4H1.7c-0.9,0-1.7,0.7-1.7,1.7
		v25.1c0,0.9,0.7,1.7,1.7,1.7h184.1c0.9,0,1.7-0.7,1.7-1.7v-25.1C187.5,236.5,186.7,235.7,185.8,235.7z M24.3,214h138.9v21.8H24.3
		V214z M184.1,260.8H3.3v-21.8h19.2h142.3h19.2V260.8z"/>
	<path class="st0" d="M129.4,224.3H128c-0.7,0-1.4,0.7-1.4,1.7s0.6,1.7,1.4,1.7h1.4c0.7,0,1.4-0.7,1.4-1.7S130.1,224.3,129.4,224.3z
		"/>
	<path class="st0" d="M156.5,224.3h-1.4c-0.7,0-1.4,0.7-1.4,1.7s0.6,1.7,1.4,1.7h1.4c0.7,0,1.4-0.7,1.4-1.7S157.2,224.3,156.5,224.3
		z"/>
	<path class="st0" d="M115.8,224.3h-1.4c-0.7,0-1.4,0.7-1.4,1.7s0.6,1.7,1.4,1.7h1.4c0.7,0,1.4-0.7,1.4-1.7S116.6,224.3,115.8,224.3
		z"/>
	<path class="st0" d="M136.2,224.3h-1.4c-0.7,0-1.4,0.7-1.4,1.7s0.6,1.7,1.4,1.7h1.4c0.7,0,1.4-0.7,1.4-1.7S136.9,224.3,136.2,224.3
		z"/>
	<path class="st0" d="M142.9,224.3h-1.4c-0.7,0-1.4,0.7-1.4,1.7s0.6,1.7,1.4,1.7h1.4c0.7,0,1.4-0.7,1.4-1.7S143.7,224.3,142.9,224.3
		z"/>
	<path class="st0" d="M149.7,224.3h-1.4c-0.7,0-1.4,0.7-1.4,1.7s0.6,1.7,1.4,1.7h1.4c0.7,0,1.4-0.7,1.4-1.7S150.5,224.3,149.7,224.3
		z"/>
	<path class="st0" d="M122.6,224.3h-1.4c-0.7,0-1.4,0.7-1.4,1.7s0.6,1.7,1.4,1.7h1.4c0.7,0,1.4-0.7,1.4-1.7S123.4,224.3,122.6,224.3
		z"/>
	<path class="st0" d="M88.7,224.3h-1.4c-0.7,0-1.4,0.7-1.4,1.7s0.6,1.7,1.4,1.7h1.4c0.7,0,1.4-0.7,1.4-1.7S89.5,224.3,88.7,224.3z"
		/>
	<path class="st0" d="M75.2,224.3h-1.4c-0.7,0-1.4,0.7-1.4,1.7s0.6,1.7,1.4,1.7h1.4c0.7,0,1.4-0.7,1.4-1.7S75.9,224.3,75.2,224.3z"
		/>
	<path class="st0" d="M95.5,224.3h-1.4c-0.7,0-1.4,0.7-1.4,1.7s0.6,1.7,1.4,1.7h1.4c0.7,0,1.4-0.7,1.4-1.7S96.2,224.3,95.5,224.3z"
		/>
	<path class="st0" d="M82,224.3h-1.4c-0.7,0-1.4,0.7-1.4,1.7s0.6,1.7,1.4,1.7H82c0.7,0,1.4-0.7,1.4-1.7S82.7,224.3,82,224.3z"/>
	<path class="st0" d="M109.1,224.3h-1.4c-0.7,0-1.4,0.7-1.4,1.7s0.6,1.7,1.4,1.7h1.4c0.7,0,1.4-0.7,1.4-1.7S109.8,224.3,109.1,224.3
		z"/>
	<path class="st0" d="M102.3,224.3h-1.4c-0.7,0-1.4,0.7-1.4,1.7s0.6,1.7,1.4,1.7h1.4c0.7,0,1.4-0.7,1.4-1.7S103,224.3,102.3,224.3z"
		/>
	<path class="st0" d="M60.2,249.9h-1.4c-0.8,0-1.4,0.7-1.4,1.7s0.6,1.7,1.4,1.7h1.4c0.8,0,1.4-0.7,1.4-1.7S60.9,249.9,60.2,249.9z"
		/>
	<path class="st0" d="M67,249.9h-1.4c-0.8,0-1.4,0.7-1.4,1.7s0.6,1.7,1.4,1.7H67c0.8,0,1.4-0.7,1.4-1.7S67.8,249.9,67,249.9z"/>
	<path class="st0" d="M135.9,249.9h-1.4c-0.8,0-1.4,0.7-1.4,1.7s0.6,1.7,1.4,1.7h1.4c0.8,0,1.4-0.7,1.4-1.7S136.6,249.9,135.9,249.9
		z"/>
	<path class="st0" d="M73.9,249.9h-1.4c-0.8,0-1.4,0.7-1.4,1.7s0.6,1.7,1.4,1.7h1.4c0.8,0,1.4-0.7,1.4-1.7S74.7,249.9,73.9,249.9z"
		/>
	<path class="st0" d="M149.6,249.9h-1.4c-0.8,0-1.4,0.7-1.4,1.7s0.6,1.7,1.4,1.7h1.4c0.8,0,1.4-0.7,1.4-1.7S150.4,249.9,149.6,249.9
		z"/>
	<path class="st0" d="M142.8,249.9h-1.4c-0.8,0-1.4,0.7-1.4,1.7s0.6,1.7,1.4,1.7h1.4c0.8,0,1.4-0.7,1.4-1.7S143.5,249.9,142.8,249.9
		z"/>
	<path class="st0" d="M156.5,249.9h-1.4c-0.8,0-1.4,0.7-1.4,1.7s0.6,1.7,1.4,1.7h1.4c0.8,0,1.4-0.7,1.4-1.7S157.3,249.9,156.5,249.9
		z"/>
	<path class="st0" d="M163.4,249.9H162c-0.8,0-1.4,0.7-1.4,1.7s0.6,1.7,1.4,1.7h1.4c0.8,0,1.4-0.7,1.4-1.7S164.2,249.9,163.4,249.9z
		"/>
	<path class="st0" d="M168.9,253.3h1.4c0.8,0,1.4-0.7,1.4-1.7s-0.6-1.7-1.4-1.7h-1.4c-0.8,0-1.4,0.7-1.4,1.7
		S168.2,253.3,168.9,253.3z"/>
	<path class="st0" d="M175.8,253.3h1.4c0.8,0,1.4-0.7,1.4-1.7s-0.6-1.7-1.4-1.7h-1.4c-0.8,0-1.4,0.7-1.4,1.7S175,253.3,175.8,253.3z
		"/>
	<path class="st0" d="M129,249.9h-1.4c-0.8,0-1.4,0.7-1.4,1.7s0.6,1.7,1.4,1.7h1.4c0.8,0,1.4-0.7,1.4-1.7S129.7,249.9,129,249.9z"/>
	<path class="st0" d="M94.6,249.9h-1.4c-0.8,0-1.4,0.7-1.4,1.7s0.6,1.7,1.4,1.7h1.4c0.8,0,1.4-0.7,1.4-1.7S95.3,249.9,94.6,249.9z"
		/>
	<path class="st0" d="M87.7,249.9h-1.4c-0.8,0-1.4,0.7-1.4,1.7s0.6,1.7,1.4,1.7h1.4c0.8,0,1.4-0.7,1.4-1.7S88.4,249.9,87.7,249.9z"
		/>
	<path class="st0" d="M122.1,249.9h-1.4c-0.8,0-1.4,0.7-1.4,1.7s0.6,1.7,1.4,1.7h1.4c0.8,0,1.4-0.7,1.4-1.7S122.9,249.9,122.1,249.9
		z"/>
	<path class="st0" d="M80.8,249.9h-1.4c-0.8,0-1.4,0.7-1.4,1.7s0.6,1.7,1.4,1.7h1.4c0.8,0,1.4-0.7,1.4-1.7S81.6,249.9,80.8,249.9z"
		/>
	<path class="st0" d="M115.2,249.9h-1.4c-0.8,0-1.4,0.7-1.4,1.7s0.6,1.7,1.4,1.7h1.4c0.8,0,1.4-0.7,1.4-1.7S116,249.9,115.2,249.9z"
		/>
	<path class="st0" d="M101.5,249.9h-1.4c-0.8,0-1.4,0.7-1.4,1.7s0.6,1.7,1.4,1.7h1.4c0.8,0,1.4-0.7,1.4-1.7S102.2,249.9,101.5,249.9
		z"/>
	<path class="st0" d="M108.3,249.9H107c-0.8,0-1.4,0.7-1.4,1.7s0.6,1.7,1.4,1.7h1.4c0.8,0,1.4-0.7,1.4-1.7S109.1,249.9,108.3,249.9z
		"/>
</g>
<path class="st1" d="M190.4,78.1c-11.8,0-24.1-0.1-36.4-0.4v15.4c12.3-0.3,24.6-0.4,36.4-0.4c6.6,0,13.1,0,19.5,0.1V77.9
	C203.4,78,197,78.1,190.4,78.1z"/>
<path class="st1" d="M318.4,98.4c4.3,0.4,8-3,8-7.2V79.5c0-4.2-3.7-7.6-8-7.2c-28.5,2.7-57.8,4.4-88.5,5.2v15.6
	C260.7,94,289.9,95.7,318.4,98.4z"/>
<path class="st2" d="M229.8,74.2c-0.7-4.1-4.3-7.3-8.6-7.3h-2.7c-4.4,0-8.1,3.3-8.6,7.6c0,0.3-0.1,0.7-0.1,1.1v2.3v14.9v2.3
	c0,0.4,0,0.7,0.1,1.1c0.5,4.3,4.2,7.6,8.6,7.6h2.7c4.3,0,7.9-3.1,8.6-7.3c0.1-0.5,0.1-0.9,0.1-1.4v-1.9V77.6v-1.9
	C230,75.2,229.9,74.7,229.8,74.2z M226.6,93.1v2c0,0.5-0.1,0.9-0.2,1.3c-0.6,2.3-2.7,4-5.1,4h-2.7c-2.6,0-4.7-1.8-5.2-4.2
	c-0.1-0.4-0.1-0.7-0.1-1.1v-2.2v-15v-2.2c0-0.4,0-0.7,0.1-1.1c0.5-2.4,2.7-4.2,5.2-4.2h2.7c2.5,0,4.5,1.7,5.1,4
	c0.1,0.4,0.2,0.9,0.2,1.3v2V93.1z"/>
<path class="st0" d="M318.1,69c-28.5,2.7-57.6,4.4-88.3,5.2c0.1,0.5,0.1,0.9,0.1,1.4v1.9c30.7-0.8,59.9-2.5,88.5-5.2
	c4.3-0.4,8,3,8,7.2v11.7c0,4.2-3.7,7.6-8,7.2c-28.5-2.7-57.8-4.4-88.5-5.2v1.9c0,0.5-0.1,1-0.1,1.4c30.6,0.8,59.8,2.5,88.3,5.2
	c0.3,0,0.7,0,1,0c5.9,0,10.6-4.8,10.6-10.6V79.5C329.8,73.4,324.4,68.4,318.1,69z"/>
<path class="st0" d="M209.9,92.8c-6.4-0.1-12.9-0.1-19.5-0.1c-11.8,0-24,0.1-36.4,0.4V77.7c12.3,0.3,24.6,0.4,36.4,0.4
	c6.6,0,13.1,0,19.5-0.1v-2.3c0-0.4,0-0.7,0.1-1.1c-6.4,0.1-13,0.1-19.5,0.1c-12.3,0-25.1-0.1-38-0.4c-0.5,0-0.9,0.2-1.2,0.5
	c-0.3,0.3-0.5,0.7-0.5,1.2v18.8c0,0.5,0.2,0.9,0.5,1.2c0.3,0.3,0.7,0.5,1.2,0.5c12.9-0.3,25.7-0.4,38-0.4c6.6,0,13.1,0,19.6,0.1
	c0-0.3-0.1-0.7-0.1-1.1V92.8z"/>
<g>
	<g>
		<path class="st2" d="M152.3,103.8h-16.7c-0.9,0-1.7-0.7-1.7-1.7V68.6c0-0.9,0.7-1.7,1.7-1.7h16.7c0.9,0,1.7,0.7,1.7,1.7v33.5
			C154,103,153.2,103.8,152.3,103.8z M137.3,100.4h13.4V70.3h-13.4V100.4z"/>
	</g>
</g>
<g>
	<g>
		<path class="st2" d="M146,96.2c-0.9,0-1.7-0.7-1.7-1.7v-1.7c0-0.9,0.7-1.7,1.7-1.7c0.9,0,1.7,0.7,1.7,1.7v1.7
			C147.7,95.5,146.9,96.2,146,96.2z M146,87.9c-0.9,0-1.7-0.7-1.7-1.7v-1.7c0-0.9,0.7-1.7,1.7-1.7c0.9,0,1.7,0.7,1.7,1.7v1.7
			C147.7,87.1,146.9,87.9,146,87.9z M146,79.5c-0.9,0-1.7-0.7-1.7-1.7v-1.7c0-0.9,0.7-1.7,1.7-1.7c0.9,0,1.7,0.7,1.7,1.7v1.7
			C147.7,78.8,146.9,79.5,146,79.5z"/>
	</g>
</g>
<path class="st2" d="M135.6,0H51.9c-0.9,0-1.7,0.7-1.7,1.7v16.7c0,0.9,0.7,1.7,1.7,1.7h10.9v15.1c0,0.9,0.7,1.7,1.7,1.7H123
	c0.9,0,1.7-0.7,1.7-1.7V20.1h10.9c0.9,0,1.7-0.7,1.7-1.7V1.7C137.3,0.7,136.5,0,135.6,0z M121.4,33.5H66.1V20.1h55.2V33.5z
	 M133.9,16.7H123H64.4H53.6v-5.2h80.3V16.7z M133.9,8.6H53.6V3.3h80.3V8.6z"/>
<path class="st2" d="M135.6,150.6h-10.9v-15.1c0-0.9-0.7-1.7-1.7-1.7H64.4c-0.9,0-1.7,0.7-1.7,1.7v15.1H51.9c-0.9,0-1.7,0.7-1.7,1.7
	v16.7c0,0.9,0.7,1.7,1.7,1.7h83.7c0.9,0,1.7-0.7,1.7-1.7v-16.7C137.3,151.4,136.5,150.6,135.6,150.6z M66.1,137.3h55.2v13.4H66.1
	V137.3z M133.9,167.4H53.6v-5h80.3V167.4z M133.9,159.4H53.6V154h10.9H123h10.9V159.4z"/>
<path class="st0" d="M135.6,33.5H51.9c-0.9,0-1.7,0.7-1.7,1.7v16.7v67v16.7c0,0.9,0.7,1.7,1.7,1.7h83.7c0.9,0,1.7-0.7,1.7-1.7v-16.7
	v-67V35.2C137.3,34.2,136.5,33.5,135.6,33.5z M133.9,36.8v13.4H53.6V36.8H133.9z M133.9,117.2H53.6V53.6h80.3V117.2z M53.6,133.9
	v-13.4h80.3v13.4H53.6z"/>
</svg>
