<?xml version="1.0" encoding="utf-8"?>
<!-- Generator: Adobe Illustrator 21.1.0, SVG Export Plug-In . SVG Version: 6.00 Build 0)  -->
<svg version="1.1" id="sunburst_x5F_elements" xmlns="http://www.w3.org/2000/svg" xmlns:xlink="http://www.w3.org/1999/xlink"
	 x="0px" y="0px" viewBox="0 0 178.7 90.5" style="enable-background:new 0 0 178.7 90.5;" xml:space="preserve">
<style type="text/css">
	.st0{fill:#A17427;}
</style>
<g>
	<g>
		<g>
			<g>
				<path class="st0" d="M173.2,89.7c0-0.2,0-0.3,0-0.5h-26.5c0,0.2,0,0.3,0,0.5s0,0.3,0,0.5h26.5C173.2,90,173.2,89.9,173.2,89.7z"
					/>
			</g>
			<g>
				<path class="st0" d="M137.6,89.7c0-0.2,0-0.3,0-0.5H137c0,0.2,0,0.3,0,0.5s0,0.3,0,0.5h0.7C137.6,90,137.6,89.9,137.6,89.7z"/>
			</g>
			<g>
				<path class="st0" d="M117.2,89.7c0-0.2,0-0.3,0-0.5h-1.5c0,0.2,0,0.3,0,0.5c0,0.2,0,0.3,0,0.5h1.5
					C117.2,90,117.2,89.9,117.2,89.7z"/>
			</g>
			<g>
				<path class="st0" d="M129.4,89.7c0-0.2,0-0.3,0-0.5h-7.8c0,0.2,0,0.3,0,0.5s0,0.3,0,0.5h7.8C129.4,90,129.4,89.9,129.4,89.7z"/>
			</g>
			<g>
				<path class="st0" d="M129.2,86c0-0.3-0.1-0.6-0.1-0.9l-7.8,0.8c0,0.3,0.1,0.6,0.1,0.9L129.2,86z"/>
			</g>
			<g>
				<path class="st0" d="M137.4,85.1c0-0.3-0.1-0.6-0.1-0.9l-0.7,0.1c0,0.3,0.1,0.6,0.1,0.9L137.4,85.1z"/>
			</g>
			<g>
				<path class="st0" d="M146.3,83.2c0,0.3,0.1,0.6,0.1,0.9l26.4-2.8c0-0.3-0.1-0.6-0.1-0.9L146.3,83.2z"/>
			</g>
			<g>
				<path class="st0" d="M117.1,87.3c0-0.3-0.1-0.6-0.1-0.9l-1.5,0.2c0,0.3,0.1,0.6,0.1,0.9L117.1,87.3z"/>
			</g>
			<g>
				<path class="st0" d="M115.1,83.8c0.1,0.3,0.1,0.6,0.2,0.9l1.5-0.3c-0.1-0.3-0.1-0.6-0.2-0.9L115.1,83.8z"/>
			</g>
			<g>
				<path class="st0" d="M128.4,80.9l-7.7,1.6c0.1,0.3,0.1,0.6,0.2,0.9l7.7-1.6C128.6,81.5,128.5,81.2,128.4,80.9z"/>
			</g>
			<g>
				<path class="st0" d="M145.5,78.2l25.9-5.5c-0.1-0.3-0.1-0.6-0.2-0.9l-25.9,5.5C145.4,77.6,145.4,77.9,145.5,78.2z"/>
			</g>
			<g>
				<path class="st0" d="M135.8,79.3c0.1,0.3,0.1,0.6,0.2,0.9l0.6-0.1c-0.1-0.3-0.1-0.6-0.2-0.9L135.8,79.3z"/>
			</g>
			<g>
				<path class="st0" d="M135.1,74.3l-0.6,0.2c0.1,0.3,0.2,0.6,0.3,0.9l0.6-0.2C135.3,74.9,135.2,74.6,135.1,74.3z"/>
			</g>
			<g>
				<path class="st0" d="M168.9,63.4l-25.2,8.2c0.1,0.3,0.2,0.6,0.3,0.9l25.2-8.2C169.1,64,169,63.7,168.9,63.4z"/>
			</g>
			<g>
				<path class="st0" d="M114.3,81.1c0.1,0.3,0.2,0.6,0.3,0.9l1.4-0.5c-0.1-0.3-0.2-0.6-0.3-0.9L114.3,81.1z"/>
			</g>
			<g>
				<path class="st0" d="M119.8,79.3c0.1,0.3,0.2,0.6,0.3,0.9l7.5-2.4c-0.1-0.3-0.2-0.6-0.3-0.9L119.8,79.3z"/>
			</g>
			<g>
				<path class="st0" d="M125.7,73l-7.2,3.2c0.1,0.3,0.3,0.6,0.4,0.9l7.2-3.2C126,73.6,125.9,73.3,125.7,73z"/>
			</g>
			<g>
				<path class="st0" d="M133.2,69.6l-0.6,0.3c0.1,0.3,0.3,0.6,0.4,0.9l0.6-0.3C133.5,70.2,133.4,69.9,133.2,69.6z"/>
			</g>
			<g>
				<path class="st0" d="M113.3,78.5c0.1,0.3,0.3,0.6,0.4,0.9l1.4-0.6c-0.1-0.3-0.3-0.6-0.4-0.9L113.3,78.5z"/>
			</g>
			<g>
				<path class="st0" d="M141.9,66.8L166.1,56c-0.1-0.3-0.3-0.6-0.4-0.9L141.5,66C141.6,66.3,141.7,66.5,141.9,66.8z"/>
			</g>
			<g>
				<path class="st0" d="M117.5,74l6.8-3.9c-0.2-0.3-0.3-0.5-0.5-0.8l-6.8,3.9C117.2,73.5,117.3,73.7,117.5,74z"/>
			</g>
			<g>
				<path class="st0" d="M112,76.1c0.2,0.3,0.3,0.5,0.5,0.8l1.3-0.7c-0.2-0.3-0.3-0.5-0.5-0.8L112,76.1z"/>
			</g>
			<g>
				<path class="st0" d="M130.9,65.2l-0.6,0.3c0.2,0.3,0.3,0.5,0.5,0.8l0.6-0.3C131.2,65.7,131.1,65.4,130.9,65.2z"/>
			</g>
			<g>
				<path class="st0" d="M161.7,47.4l-23,13.3c0.2,0.3,0.3,0.5,0.5,0.8l23-13.3C162,47.9,161.8,47.7,161.7,47.4z"/>
			</g>
			<g>
				<path class="st0" d="M110.4,73.8c0.2,0.3,0.4,0.5,0.6,0.8l1.2-0.9c-0.2-0.3-0.4-0.5-0.6-0.8L110.4,73.8z"/>
			</g>
			<g>
				<path class="st0" d="M127.6,61.3c0.2,0.3,0.4,0.5,0.5,0.8l0.5-0.4c-0.2-0.3-0.4-0.5-0.5-0.8L127.6,61.3z"/>
			</g>
			<g>
				<path class="st0" d="M115.7,71.2l6.3-4.6c-0.2-0.3-0.4-0.5-0.5-0.8l-6.3,4.6C115.3,70.6,115.5,70.9,115.7,71.2z"/>
			</g>
			<g>
				<path class="st0" d="M136,56.4l21.4-15.6c-0.2-0.3-0.4-0.5-0.6-0.8l-21.4,15.6C135.6,55.9,135.8,56.2,136,56.4z"/>
			</g>
			<g>
				<path class="st0" d="M124.9,57.1l-0.5,0.4c0.2,0.2,0.4,0.5,0.6,0.7l0.5-0.4C125.3,57.5,125.1,57.3,124.9,57.1z"/>
			</g>
			<g>
				<path class="st0" d="M132.2,51.7L151.9,34c-0.2-0.2-0.4-0.5-0.6-0.7L131.6,51C131.8,51.3,132,51.5,132.2,51.7z"/>
			</g>
			<g>
				<path class="st0" d="M113.6,68.5l5.8-5.2c-0.2-0.2-0.4-0.5-0.6-0.7l-5.8,5.2C113.2,68,113.4,68.3,113.6,68.5z"/>
			</g>
			<g>
				<path class="st0" d="M109.7,70.7l-1.1,1c0.2,0.2,0.4,0.5,0.6,0.7l1.1-1C110.2,71.2,110,70.9,109.7,70.7z"/>
			</g>
			<g>
				<path class="st0" d="M107.6,68.7l-1,1.1c0.2,0.2,0.5,0.4,0.7,0.6l1-1.1C108.1,69.1,107.9,68.9,107.6,68.7z"/>
			</g>
			<g>
				<path class="st0" d="M128,47.5l17.7-19.7c-0.2-0.2-0.5-0.4-0.7-0.6l-17.7,19.7C127.5,47,127.8,47.2,128,47.5z"/>
			</g>
			<g>
				<path class="st0" d="M122,54.2c-0.2-0.2-0.5-0.4-0.7-0.6l-0.4,0.5c0.2,0.2,0.5,0.4,0.7,0.6L122,54.2z"/>
			</g>
			<g>
				<path class="st0" d="M110.5,65.5c0.2,0.2,0.5,0.4,0.7,0.6l5.2-5.8c-0.2-0.2-0.5-0.4-0.7-0.6L110.5,65.5z"/>
			</g>
			<g>
				<path class="st0" d="M105.3,66.9l-0.9,1.2c0.3,0.2,0.5,0.4,0.8,0.6l0.9-1.2C105.9,67.2,105.6,67.1,105.3,66.9z"/>
			</g>
			<g>
				<path class="st0" d="M117.3,50.4l-0.4,0.5c0.3,0.2,0.5,0.4,0.8,0.5l0.4-0.5C117.8,50.8,117.6,50.6,117.3,50.4z"/>
			</g>
			<g>
				<path class="st0" d="M138.2,21.6l-15.6,21.4c0.3,0.2,0.5,0.4,0.8,0.5L139,22.2C138.7,22,138.5,21.8,138.2,21.6z"/>
			</g>
			<g>
				<path class="st0" d="M107.9,63.4c0.3,0.2,0.5,0.4,0.8,0.5l4.6-6.3c-0.3-0.2-0.5-0.4-0.8-0.5L107.9,63.4z"/>
			</g>
			<g>
				<path class="st0" d="M105.8,62.1l3.9-6.8c-0.3-0.2-0.5-0.3-0.8-0.5l-3.9,6.8C105.3,61.7,105.6,61.9,105.8,62.1z"/>
			</g>
			<g>
				<path class="st0" d="M112.7,48.2c0.3,0.2,0.5,0.3,0.8,0.5l0.3-0.6c-0.3-0.2-0.5-0.3-0.8-0.5L112.7,48.2z"/>
			</g>
			<g>
				<path class="st0" d="M102.9,65.3l-0.7,1.3c0.3,0.2,0.5,0.3,0.8,0.5l0.7-1.3C103.4,65.6,103.1,65.5,102.9,65.3z"/>
			</g>
			<g>
				<path class="st0" d="M118.4,40.3l13.3-23c-0.3-0.2-0.5-0.3-0.8-0.5l-13.3,23C117.8,40,118.1,40.2,118.4,40.3z"/>
			</g>
			<g>
				<path class="st0" d="M100.3,64l-0.6,1.4c0.3,0.1,0.6,0.3,0.9,0.4l0.6-1.4C100.8,64.3,100.5,64.2,100.3,64z"/>
			</g>
			<g>
				<path class="st0" d="M113.1,37.6l10.8-24.2c-0.3-0.1-0.6-0.3-0.9-0.4l-10.8,24.2C112.5,37.3,112.8,37.4,113.1,37.6z"/>
			</g>
			<g>
				<path class="st0" d="M109.4,45.8c-0.3-0.1-0.6-0.3-0.9-0.4l-0.3,0.6c0.3,0.1,0.6,0.3,0.9,0.4L109.4,45.8z"/>
			</g>
			<g>
				<path class="st0" d="M102.9,60.5l3.2-7.2c-0.3-0.1-0.6-0.3-0.9-0.4l-3.2,7.2C102.3,60.2,102.6,60.3,102.9,60.5z"/>
			</g>
			<g>
				<path class="st0" d="M98.8,58.9c0.3,0.1,0.6,0.2,0.9,0.3l2.4-7.5c-0.3-0.1-0.6-0.2-0.9-0.3L98.8,58.9z"/>
			</g>
			<g>
				<path class="st0" d="M97.5,63l-0.5,1.4c0.3,0.1,0.6,0.2,0.9,0.3l0.5-1.4C98.1,63.2,97.8,63.1,97.5,63z"/>
			</g>
			<g>
				<path class="st0" d="M103.8,43.6l-0.2,0.6c0.3,0.1,0.6,0.2,0.9,0.3l0.2-0.6C104.4,43.8,104.1,43.7,103.8,43.6z"/>
			</g>
			<g>
				<path class="st0" d="M107.5,35.4l8.2-25.2c-0.3-0.1-0.6-0.2-0.9-0.3l-8.2,25.2C106.9,35.2,107.2,35.3,107.5,35.4z"/>
			</g>
			<g>
				<path class="st0" d="M107.2,7.8c-0.3-0.1-0.6-0.1-0.9-0.2l-5.5,25.9c0.3,0.1,0.6,0.1,0.9,0.2L107.2,7.8z"/>
			</g>
			<g>
				<path class="st0" d="M99.8,42.6c-0.3-0.1-0.6-0.1-0.9-0.2L98.8,43c0.3,0.1,0.6,0.1,0.9,0.2L99.8,42.6z"/>
			</g>
			<g>
				<path class="st0" d="M94.4,63.8c0.3,0.1,0.6,0.1,0.9,0.2l0.3-1.5c-0.3-0.1-0.6-0.1-0.9-0.2L94.4,63.8z"/>
			</g>
			<g>
				<path class="st0" d="M95.6,58.1c0.3,0.1,0.6,0.1,0.9,0.2l1.6-7.7c-0.3-0.1-0.6-0.1-0.9-0.2L95.6,58.1z"/>
			</g>
			<g>
				<path class="st0" d="M92.7,62c-0.3,0-0.6-0.1-0.9-0.1l-0.2,1.5c0.3,0,0.6,0.1,0.9,0.1L92.7,62z"/>
			</g>
			<g>
				<path class="st0" d="M94,49.9c-0.3,0-0.6-0.1-0.9-0.1l-0.8,7.8c0.3,0,0.6,0.1,0.9,0.1L94,49.9z"/>
			</g>
			<g>
				<path class="st0" d="M94.9,41.7c-0.3,0-0.6-0.1-0.9-0.1l-0.1,0.7c0.3,0,0.6,0.1,0.9,0.1L94.9,41.7z"/>
			</g>
			<g>
				<path class="st0" d="M94.9,32.7c0.3,0,0.6,0.1,0.9,0.1l2.8-26.4c-0.3,0-0.6-0.1-0.9-0.1L94.9,32.7z"/>
			</g>
			<g>
				<path class="st0" d="M88.9,41.4v0.7c0.2,0,0.3,0,0.5,0c0.2,0,0.3,0,0.5,0v-0.7c-0.2,0-0.3,0-0.5,0C89.2,41.4,89,41.4,88.9,41.4z
					"/>
			</g>
			<g>
				<path class="st0" d="M88.9,49.7v7.8c0.2,0,0.3,0,0.5,0c0.2,0,0.3,0,0.5,0v-7.8c-0.2,0-0.3,0-0.5,0C89.2,49.7,89,49.7,88.9,49.7z
					"/>
			</g>
			<g>
				<path class="st0" d="M88.9,5.9v26.5c0.2,0,0.3,0,0.5,0c0.2,0,0.3,0,0.5,0V5.9c-0.2,0-0.3,0-0.5,0C89.2,5.9,89,5.9,88.9,5.9z"/>
			</g>
			<g>
				<path class="st0" d="M88.9,61.8v1.5c0.2,0,0.3,0,0.5,0c0.2,0,0.3,0,0.5,0v-1.5c-0.2,0-0.3,0-0.5,0C89.2,61.8,89,61.8,88.9,61.8z
					"/>
			</g>
			<g>
				<path class="st0" d="M86,62l0.2,1.5c0.3,0,0.6-0.1,0.9-0.1l-0.2-1.5C86.6,62,86.3,62,86,62z"/>
			</g>
			<g>
				<path class="st0" d="M85.5,57.7c0.3,0,0.6-0.1,0.9-0.1l-0.8-7.8c-0.3,0-0.6,0.1-0.9,0.1L85.5,57.7z"/>
			</g>
			<g>
				<path class="st0" d="M84.8,42.3l-0.1-0.7c-0.3,0-0.6,0.1-0.9,0.1l0.1,0.7C84.2,42.4,84.5,42.3,84.8,42.3z"/>
			</g>
			<g>
				<path class="st0" d="M83.8,32.7L81.1,6.3c-0.3,0-0.6,0.1-0.9,0.1l2.8,26.4C83.2,32.7,83.5,32.7,83.8,32.7z"/>
			</g>
			<g>
				<path class="st0" d="M78.8,42.6l0.1,0.6c0.3-0.1,0.6-0.1,0.9-0.2l-0.1-0.6C79.5,42.4,79.2,42.5,78.8,42.6z"/>
			</g>
			<g>
				<path class="st0" d="M84,62.3c-0.3,0.1-0.6,0.1-0.9,0.2l0.3,1.5c0.3-0.1,0.6-0.1,0.9-0.2L84,62.3z"/>
			</g>
			<g>
				<path class="st0" d="M83.1,58.1l-1.6-7.7c-0.3,0.1-0.6,0.1-0.9,0.2l1.6,7.7C82.5,58.2,82.8,58.2,83.1,58.1z"/>
			</g>
			<g>
				<path class="st0" d="M77.9,33.5L72.4,7.6c-0.3,0.1-0.6,0.1-0.9,0.2L77,33.8C77.3,33.7,77.6,33.6,77.9,33.5z"/>
			</g>
			<g>
				<path class="st0" d="M77.4,51.5c-0.3,0.1-0.6,0.2-0.9,0.3l2.4,7.5c0.3-0.1,0.6-0.2,0.9-0.3L77.4,51.5z"/>
			</g>
			<g>
				<path class="st0" d="M74.9,43.6c-0.3,0.1-0.6,0.2-0.9,0.3l0.2,0.6c0.3-0.1,0.6-0.2,0.9-0.3L74.9,43.6z"/>
			</g>
			<g>
				<path class="st0" d="M72.1,35.1L63.9,9.8c-0.3,0.1-0.6,0.2-0.9,0.3l8.2,25.2C71.5,35.3,71.8,35.2,72.1,35.1z"/>
			</g>
			<g>
				<path class="st0" d="M80.7,64.8c0.3-0.1,0.6-0.2,0.9-0.3L81.2,63c-0.3,0.1-0.6,0.2-0.9,0.3L80.7,64.8z"/>
			</g>
			<g>
				<path class="st0" d="M70.1,45.4c-0.3,0.1-0.6,0.3-0.9,0.4l0.3,0.6c0.3-0.1,0.6-0.3,0.9-0.4L70.1,45.4z"/>
			</g>
			<g>
				<path class="st0" d="M72.6,53.3l3.2,7.2c0.3-0.1,0.6-0.3,0.9-0.4l-3.2-7.2C73.2,53.1,72.9,53.2,72.6,53.3z"/>
			</g>
			<g>
				<path class="st0" d="M78.4,64c-0.3,0.1-0.6,0.3-0.9,0.4l0.6,1.4c0.3-0.1,0.6-0.3,0.9-0.4L78.4,64z"/>
			</g>
			<g>
				<path class="st0" d="M66.5,37.2L55.7,13c-0.3,0.1-0.6,0.2-0.9,0.4l10.8,24.2C65.9,37.4,66.2,37.3,66.5,37.2z"/>
			</g>
			<g>
				<path class="st0" d="M61.1,39.9l-13.3-23c-0.3,0.2-0.5,0.3-0.8,0.5l13.3,23C60.6,40.2,60.8,40,61.1,39.9z"/>
			</g>
			<g>
				<path class="st0" d="M64.8,48.1l0.3,0.6c0.3-0.2,0.5-0.3,0.8-0.5l-0.3-0.6C65.4,47.8,65.1,48,64.8,48.1z"/>
			</g>
			<g>
				<path class="st0" d="M75.8,65.3c-0.3,0.2-0.5,0.3-0.8,0.5l0.7,1.3c0.3-0.2,0.5-0.3,0.8-0.5L75.8,65.3z"/>
			</g>
			<g>
				<path class="st0" d="M72.8,62.1c0.3-0.2,0.5-0.3,0.8-0.5l-3.9-6.8c-0.3,0.2-0.5,0.3-0.8,0.5L72.8,62.1z"/>
			</g>
			<g>
				<path class="st0" d="M65.4,57.6l4.6,6.3c0.3-0.2,0.5-0.4,0.8-0.5L66.2,57C65.9,57.2,65.7,57.4,65.4,57.6z"/>
			</g>
			<g>
				<path class="st0" d="M61.4,50.4c-0.3,0.2-0.5,0.4-0.8,0.5l0.4,0.5c0.3-0.2,0.5-0.4,0.8-0.5L61.4,50.4z"/>
			</g>
			<g>
				<path class="st0" d="M73.3,66.9c-0.3,0.2-0.5,0.4-0.8,0.6l0.9,1.2c0.3-0.2,0.5-0.4,0.8-0.6L73.3,66.9z"/>
			</g>
			<g>
				<path class="st0" d="M39.7,22.2l15.6,21.4c0.3-0.2,0.5-0.4,0.8-0.5L40.5,21.6C40.2,21.8,40,22,39.7,22.2z"/>
			</g>
			<g>
				<path class="st0" d="M57.4,53.5c-0.2,0.2-0.5,0.4-0.7,0.6l0.4,0.5c0.2-0.2,0.5-0.4,0.7-0.6L57.4,53.5z"/>
			</g>
			<g>
				<path class="st0" d="M62.2,60.3l5.2,5.8c0.2-0.2,0.5-0.4,0.7-0.6l-5.2-5.8C62.7,59.9,62.4,60.1,62.2,60.3z"/>
			</g>
			<g>
				<path class="st0" d="M71,68.7c-0.2,0.2-0.5,0.4-0.7,0.6l1,1.1c0.2-0.2,0.5-0.4,0.7-0.6L71,68.7z"/>
			</g>
			<g>
				<path class="st0" d="M50.7,47.5c0.2-0.2,0.5-0.4,0.7-0.6L33.6,27.1c-0.2,0.2-0.5,0.4-0.7,0.6L50.7,47.5z"/>
			</g>
			<g>
				<path class="st0" d="M59.3,63.3l5.8,5.2c0.2-0.2,0.4-0.5,0.6-0.7l-5.8-5.2C59.7,62.8,59.5,63,59.3,63.3z"/>
			</g>
			<g>
				<path class="st0" d="M47.1,51L27.4,33.3c-0.2,0.2-0.4,0.5-0.6,0.7l19.7,17.7C46.7,51.5,46.9,51.3,47.1,51z"/>
			</g>
			<g>
				<path class="st0" d="M53.8,57.1c-0.2,0.2-0.4,0.5-0.6,0.7l0.5,0.4c0.2-0.2,0.4-0.5,0.6-0.7L53.8,57.1z"/>
			</g>
			<g>
				<path class="st0" d="M69,70.7c-0.2,0.2-0.4,0.5-0.6,0.7l1.1,1c0.2-0.2,0.4-0.5,0.6-0.7L69,70.7z"/>
			</g>
			<g>
				<path class="st0" d="M63,71.2c0.2-0.3,0.4-0.5,0.5-0.8l-6.3-4.6c-0.2,0.3-0.4,0.5-0.5,0.8L63,71.2z"/>
			</g>
			<g>
				<path class="st0" d="M43.3,55.7L21.8,40.1c-0.2,0.3-0.4,0.5-0.6,0.8l21.4,15.6C42.9,56.2,43.1,55.9,43.3,55.7z"/>
			</g>
			<g>
				<path class="st0" d="M50,61.7l0.5,0.4c0.2-0.3,0.4-0.5,0.5-0.8L50.6,61C50.4,61.2,50.2,61.5,50,61.7z"/>
			</g>
			<g>
				<path class="st0" d="M68.3,73.8l-1.2-0.9c-0.2,0.3-0.4,0.5-0.6,0.8l1.2,0.9C67.9,74.3,68.1,74.1,68.3,73.8z"/>
			</g>
			<g>
				<path class="st0" d="M47.8,65.2c-0.2,0.3-0.3,0.5-0.5,0.8l0.6,0.3c0.2-0.3,0.3-0.5,0.5-0.8L47.8,65.2z"/>
			</g>
			<g>
				<path class="st0" d="M17,47.4c-0.2,0.3-0.3,0.5-0.5,0.8l23,13.3c0.2-0.3,0.3-0.5,0.5-0.8L17,47.4z"/>
			</g>
			<g>
				<path class="st0" d="M54.4,70.1l6.8,3.9c0.2-0.3,0.3-0.5,0.5-0.8l-6.8-3.9C54.8,69.5,54.6,69.8,54.4,70.1z"/>
			</g>
			<g>
				<path class="st0" d="M65,76.2l1.3,0.7c0.2-0.3,0.3-0.5,0.5-0.8l-1.3-0.7C65.3,75.6,65.1,75.9,65,76.2z"/>
			</g>
			<g>
				<path class="st0" d="M53,73c-0.1,0.3-0.3,0.6-0.4,0.9l7.2,3.2c0.1-0.3,0.3-0.6,0.4-0.9L53,73z"/>
			</g>
			<g>
				<path class="st0" d="M37.2,66L13,55.2c-0.1,0.3-0.3,0.6-0.4,0.9l24.2,10.8C36.9,66.5,37.1,66.3,37.2,66z"/>
			</g>
			<g>
				<path class="st0" d="M63.7,78.8l1.4,0.6c0.1-0.3,0.3-0.6,0.4-0.9l-1.4-0.6C63.9,78.2,63.8,78.5,63.7,78.8z"/>
			</g>
			<g>
				<path class="st0" d="M45.4,69.6c-0.1,0.3-0.3,0.6-0.4,0.9l0.6,0.3c0.1-0.3,0.3-0.6,0.4-0.9L45.4,69.6z"/>
			</g>
			<g>
				<path class="st0" d="M62.7,81.5l1.4,0.5c0.1-0.3,0.2-0.6,0.3-0.9L63,80.6C62.9,80.9,62.8,81.2,62.7,81.5z"/>
			</g>
			<g>
				<path class="st0" d="M9.8,63.4c-0.1,0.3-0.2,0.6-0.3,0.9l25.2,8.2c0.1-0.3,0.2-0.6,0.3-0.9L9.8,63.4z"/>
			</g>
			<g>
				<path class="st0" d="M58.6,80.2c0.1-0.3,0.2-0.6,0.3-0.9l-7.5-2.4c-0.1,0.3-0.2,0.6-0.3,0.9L58.6,80.2z"/>
			</g>
			<g>
				<path class="st0" d="M43.6,74.3c-0.1,0.3-0.2,0.6-0.3,0.9l0.6,0.2c0.1-0.3,0.2-0.6,0.3-0.9L43.6,74.3z"/>
			</g>
			<g>
				<path class="st0" d="M42.2,79.2c-0.1,0.3-0.1,0.6-0.2,0.9l0.6,0.1c0.1-0.3,0.1-0.6,0.2-0.9L42.2,79.2z"/>
			</g>
			<g>
				<path class="st0" d="M50.3,80.9c-0.1,0.3-0.1,0.6-0.2,0.9l7.7,1.6c0.1-0.3,0.1-0.6,0.2-0.9L50.3,80.9z"/>
			</g>
			<g>
				<path class="st0" d="M33.4,77.3L7.5,71.8c-0.1,0.3-0.1,0.6-0.2,0.9l25.9,5.5C33.3,77.9,33.3,77.6,33.4,77.3z"/>
			</g>
			<g>
				<path class="st0" d="M62,84.4l1.5,0.3c0.1-0.3,0.1-0.6,0.2-0.9l-1.5-0.3C62.1,83.7,62,84.1,62,84.4z"/>
			</g>
			<g>
				<path class="st0" d="M42,84.3l-0.7-0.1c0,0.3-0.1,0.6-0.1,0.9l0.7,0.1C42,84.9,42,84.6,42,84.3z"/>
			</g>
			<g>
				<path class="st0" d="M49.5,86l7.8,0.8c0-0.3,0.1-0.6,0.1-0.9L49.6,85C49.5,85.4,49.5,85.7,49.5,86z"/>
			</g>
			<g>
				<path class="st0" d="M61.6,87.3l1.5,0.2c0-0.3,0.1-0.6,0.1-0.9l-1.5-0.2C61.6,86.6,61.6,86.9,61.6,87.3z"/>
			</g>
			<g>
				<path class="st0" d="M6,80.5c0,0.3-0.1,0.6-0.1,0.9l26.4,2.8c0-0.3,0.1-0.6,0.1-0.9L6,80.5z"/>
			</g>
			<g>
				<path class="st0" d="M61.5,89.7c0,0.2,0,0.3,0,0.5H63c0-0.2,0-0.3,0-0.5c0-0.2,0-0.3,0-0.5h-1.5C61.5,89.4,61.5,89.5,61.5,89.7z
					"/>
			</g>
			<g>
				<path class="st0" d="M49.3,89.7c0,0.2,0,0.3,0,0.5h7.8c0-0.2,0-0.3,0-0.5s0-0.3,0-0.5h-7.8C49.3,89.4,49.3,89.5,49.3,89.7z"/>
			</g>
			<g>
				<path class="st0" d="M41.1,89.7c0,0.2,0,0.3,0,0.5h0.7c0-0.2,0-0.3,0-0.5s0-0.3,0-0.5h-0.7C41.1,89.4,41.1,89.5,41.1,89.7z"/>
			</g>
			<g>
				<path class="st0" d="M5.5,89.2c0,0.2,0,0.3,0,0.5s0,0.3,0,0.5h26.5c0-0.2,0-0.3,0-0.5s0-0.3,0-0.5H5.5z"/>
			</g>
		</g>
	</g>
	<g>
		<g>
			<g>
				<path class="st0" d="M178.7,85.4l0-0.8l-3,0.2c0,0.3,0,0.6,0,0.8L178.7,85.4z"/>
			</g>
			<g>
				<path class="st0" d="M140.7,87.4l23.8-1.2c0-0.3,0-0.6,0-0.8l-23.8,1.2C140.7,86.9,140.7,87.2,140.7,87.4z"/>
			</g>
			<g>
				<path class="st0" d="M163.5,77.5L140,81.2c0,0.3,0.1,0.6,0.1,0.8l23.5-3.7C163.6,78.1,163.6,77.8,163.5,77.5z"/>
			</g>
			<g>
				<path class="st0" d="M177.8,76.1l-0.1-0.8l-2.9,0.5c0,0.3,0.1,0.6,0.1,0.8L177.8,76.1z"/>
			</g>
			<g>
				<path class="st0" d="M175.9,67l-0.2-0.8l-2.9,0.8c0.1,0.3,0.1,0.5,0.2,0.8L175.9,67z"/>
			</g>
			<g>
				<path class="st0" d="M139.1,76.8l23-6.2c-0.1-0.3-0.1-0.5-0.2-0.8l-23,6.2C139,76.3,139,76.5,139.1,76.8z"/>
			</g>
			<g>
				<path class="st0" d="M173,58l-0.3-0.8l-2.8,1.1c0.1,0.3,0.2,0.5,0.3,0.8L173,58z"/>
			</g>
			<g>
				<path class="st0" d="M137.5,71.7l22.2-8.5c-0.1-0.3-0.2-0.5-0.3-0.8l-22.2,8.5C137.3,71.1,137.4,71.4,137.5,71.7z"/>
			</g>
			<g>
				<path class="st0" d="M169.2,49.5l-0.4-0.8l-2.6,1.3c0.1,0.3,0.3,0.5,0.4,0.8L169.2,49.5z"/>
			</g>
			<g>
				<path class="st0" d="M135.4,66.7l21.2-10.8c-0.1-0.3-0.3-0.5-0.4-0.8L135,66C135.1,66.2,135.2,66.5,135.4,66.7z"/>
			</g>
			<g>
				<path class="st0" d="M164.6,41.3l-0.5-0.7l-2.5,1.6c0.2,0.2,0.3,0.5,0.5,0.7L164.6,41.3z"/>
			</g>
			<g>
				<path class="st0" d="M152.7,49.1c-0.2-0.2-0.3-0.5-0.5-0.7l-20,13c0.2,0.2,0.3,0.5,0.5,0.7L152.7,49.1z"/>
			</g>
			<g>
				<path class="st0" d="M159.1,33.7l-0.5-0.7l-2.3,1.9c0.2,0.2,0.4,0.4,0.5,0.7L159.1,33.7z"/>
			</g>
			<g>
				<path class="st0" d="M129,57c0.2,0.2,0.4,0.4,0.5,0.7l18.5-15c-0.2-0.2-0.4-0.4-0.5-0.7L129,57z"/>
			</g>
			<g>
				<path class="st0" d="M150.2,28.2c0.1,0.1,0.2,0.2,0.3,0.3c0.1,0.1,0.2,0.2,0.3,0.3l2.1-2.1l-0.6-0.6L150.2,28.2z"/>
			</g>
			<g>
				<path class="st0" d="M142.2,36.2L125.4,53c0.1,0.1,0.2,0.2,0.3,0.3c0.1,0.1,0.2,0.2,0.3,0.3l16.8-16.8c-0.1-0.1-0.2-0.2-0.3-0.3
					C142.4,36.4,142.3,36.3,142.2,36.2z"/>
			</g>
			<g>
				<path class="st0" d="M144.1,22.7l1.9-2.3l-0.7-0.5l-1.9,2.3C143.7,22.4,143.9,22.6,144.1,22.7z"/>
			</g>
			<g>
				<path class="st0" d="M122,50l15-18.5c-0.2-0.2-0.4-0.4-0.7-0.5l-15,18.5C121.6,49.6,121.8,49.8,122,50z"/>
			</g>
			<g>
				<path class="st0" d="M117.7,46.8l13-20c-0.2-0.2-0.5-0.3-0.7-0.5l-13,20C117.2,46.5,117.5,46.6,117.7,46.8z"/>
			</g>
			<g>
				<path class="st0" d="M136.8,17.4l1.6-2.5l-0.7-0.5l-1.6,2.5C136.3,17.1,136.6,17.2,136.8,17.4z"/>
			</g>
			<g>
				<path class="st0" d="M129,12.8l1.3-2.6l-0.8-0.4l-1.3,2.6C128.5,12.6,128.7,12.7,129,12.8z"/>
			</g>
			<g>
				<path class="st0" d="M113.1,44.1l10.8-21.2c-0.3-0.1-0.5-0.3-0.8-0.4l-10.8,21.2C112.6,43.8,112.8,43.9,113.1,44.1z"/>
			</g>
			<g>
				<path class="st0" d="M108.2,41.8l8.5-22.2c-0.3-0.1-0.5-0.2-0.8-0.3l-8.5,22.2C107.6,41.6,107.9,41.7,108.2,41.8z"/>
			</g>
			<g>
				<path class="st0" d="M120.7,9.1l1.1-2.8L121,6l-1.1,2.8C120.2,8.9,120.5,9,120.7,9.1z"/>
			</g>
			<g>
				<path class="st0" d="M112.1,6.3l0.8-2.9l-0.8-0.2l-0.8,2.9C111.6,6.1,111.9,6.2,112.1,6.3z"/>
			</g>
			<g>
				<path class="st0" d="M103.1,40.2l6.2-23c-0.3-0.1-0.5-0.1-0.8-0.2l-6.2,23C102.5,40,102.8,40.1,103.1,40.2z"/>
			</g>
			<g>
				<path class="st0" d="M103.3,4.4l0.5-2.9l-0.8-0.1l-0.5,2.9C102.7,4.3,103,4.3,103.3,4.4z"/>
			</g>
			<g>
				<path class="st0" d="M100.7,15.4L97,38.9c0.3,0,0.6,0.1,0.8,0.1l3.7-23.5C101.2,15.5,101,15.4,100.7,15.4z"/>
			</g>
			<g>
				<path class="st0" d="M94.3,3.4l0.2-3l-0.8,0l-0.2,3C93.7,3.4,94,3.4,94.3,3.4z"/>
			</g>
			<g>
				<path class="st0" d="M91.6,38.3c0.3,0,0.6,0,0.8,0.1l1.2-23.8c-0.3,0-0.6,0-0.8,0L91.6,38.3z"/>
			</g>
			<g>
				<path class="st0" d="M87.1,38.3l-1.2-23.8c-0.3,0-0.6,0-0.8,0l1.2,23.8C86.5,38.4,86.8,38.4,87.1,38.3z"/>
			</g>
			<g>
				<path class="st0" d="M85.2,3.3l-0.2-3l-0.8,0l0.2,3C84.7,3.4,85,3.4,85.2,3.3z"/>
			</g>
			<g>
				<path class="st0" d="M81.7,38.9L78,15.4c-0.3,0-0.6,0.1-0.8,0.1L80.9,39C81.2,39,81.4,38.9,81.7,38.9z"/>
			</g>
			<g>
				<path class="st0" d="M76.2,4.2l-0.5-3l-0.8,0.1l0.5,2.9C75.7,4.3,76,4.3,76.2,4.2z"/>
			</g>
			<g>
				<path class="st0" d="M70.3,17c-0.3,0.1-0.5,0.1-0.8,0.2l6.2,23c0.3-0.1,0.5-0.1,0.8-0.2L70.3,17z"/>
			</g>
			<g>
				<path class="st0" d="M67.4,6.1l-0.8-2.9l-0.8,0.2l0.8,2.9C66.8,6.2,67.1,6.1,67.4,6.1z"/>
			</g>
			<g>
				<path class="st0" d="M71.3,41.6l-8.5-22.2c-0.3,0.1-0.5,0.2-0.8,0.3l8.5,22.2C70.8,41.7,71,41.6,71.3,41.6z"/>
			</g>
			<g>
				<path class="st0" d="M56.9,6.3L58,9.1c0.3-0.1,0.5-0.2,0.8-0.3L57.7,6L56.9,6.3z"/>
			</g>
			<g>
				<path class="st0" d="M48.4,10.2l1.3,2.6c0.3-0.1,0.5-0.3,0.8-0.4l-1.3-2.6L48.4,10.2z"/>
			</g>
			<g>
				<path class="st0" d="M55.6,22.5c-0.3,0.1-0.5,0.3-0.8,0.4l10.8,21.2c0.3-0.1,0.5-0.2,0.8-0.4L55.6,22.5z"/>
			</g>
			<g>
				<path class="st0" d="M42.6,16.9L41,14.5l-0.7,0.5l1.6,2.5C42.1,17.2,42.4,17.1,42.6,16.9z"/>
			</g>
			<g>
				<path class="st0" d="M61.7,46.3l-13-20c-0.2,0.2-0.5,0.3-0.7,0.5l13,20C61.2,46.6,61.5,46.5,61.7,46.3z"/>
			</g>
			<g>
				<path class="st0" d="M35.2,22.2l-1.9-2.3l-0.7,0.5l1.9,2.3C34.8,22.6,35,22.4,35.2,22.2z"/>
			</g>
			<g>
				<path class="st0" d="M42.3,31c-0.2,0.2-0.4,0.4-0.7,0.5l15,18.5c0.2-0.2,0.4-0.4,0.7-0.5L42.3,31z"/>
			</g>
			<g>
				<path class="st0" d="M28.2,28.5c0.1-0.1,0.2-0.2,0.3-0.3l-2.1-2.1l-0.6,0.6l2.1,2.1C28,28.7,28.1,28.6,28.2,28.5z"/>
			</g>
			<g>
				<path class="st0" d="M36.5,36.2c-0.1,0.1-0.2,0.2-0.3,0.3c-0.1,0.1-0.2,0.2-0.3,0.3l16.8,16.8c0.1-0.1,0.2-0.2,0.3-0.3
					s0.2-0.2,0.3-0.3L36.5,36.2z"/>
			</g>
			<g>
				<path class="st0" d="M22.4,34.9l-2.3-1.9l-0.5,0.7l2.3,1.9C22,35.4,22.2,35.2,22.4,34.9z"/>
			</g>
			<g>
				<path class="st0" d="M49.1,57.7c0.2-0.2,0.3-0.4,0.5-0.7L31.2,42c-0.2,0.2-0.4,0.4-0.5,0.7L49.1,57.7z"/>
			</g>
			<g>
				<path class="st0" d="M46.4,61.3l-20-13c-0.2,0.2-0.3,0.5-0.5,0.7l20,13C46.1,61.8,46.3,61.6,46.4,61.3z"/>
			</g>
			<g>
				<path class="st0" d="M17,42.2l-2.5-1.6l-0.5,0.7l2.5,1.6C16.7,42.7,16.9,42.5,17,42.2z"/>
			</g>
			<g>
				<path class="st0" d="M22.5,55.2c-0.1,0.3-0.3,0.5-0.4,0.8l21.2,10.8c0.1-0.3,0.2-0.5,0.4-0.8L22.5,55.2z"/>
			</g>
			<g>
				<path class="st0" d="M9.8,48.7l-0.4,0.8l2.6,1.3c0.1-0.3,0.3-0.5,0.4-0.8L9.8,48.7z"/>
			</g>
			<g>
				<path class="st0" d="M41.5,70.9l-22.2-8.5c-0.1,0.3-0.2,0.5-0.3,0.8l22.2,8.5C41.3,71.4,41.4,71.1,41.5,70.9z"/>
			</g>
			<g>
				<path class="st0" d="M6,57.2L5.7,58l2.8,1.1c0.1-0.3,0.2-0.5,0.3-0.8L6,57.2z"/>
			</g>
			<g>
				<path class="st0" d="M3.1,66.1L2.8,67l2.9,0.8c0.1-0.3,0.1-0.5,0.2-0.8L3.1,66.1z"/>
			</g>
			<g>
				<path class="st0" d="M16.8,69.8c-0.1,0.3-0.1,0.5-0.2,0.8l23,6.2c0.1-0.3,0.1-0.5,0.2-0.8L16.8,69.8z"/>
			</g>
			<g>
				<path class="st0" d="M1.1,75.3l-0.1,0.8l3,0.5C3.9,76.3,4,76,4,75.8L1.1,75.3z"/>
			</g>
			<g>
				<path class="st0" d="M38.6,81.2l-23.5-3.7c0,0.3-0.1,0.6-0.1,0.8l23.5,3.7C38.5,81.8,38.6,81.5,38.6,81.2z"/>
			</g>
			<g>
				<path class="st0" d="M0,84.6l0,0.8l3,0.2c0-0.3,0-0.6,0-0.8L0,84.6z"/>
			</g>
			<g>
				<path class="st0" d="M38,86.6l-23.8-1.2c0,0.3,0,0.6,0,0.8L38,87.4C38,87.1,38,86.9,38,86.6z"/>
			</g>
		</g>
	</g>
</g>
</svg>
